<?xml version="1.0" encoding="UTF-8" standalone="no"?>
<svg
   xmlns:dc="http://purl.org/dc/elements/1.1/"
   xmlns:cc="http://creativecommons.org/ns#"
   xmlns:rdf="http://www.w3.org/1999/02/22-rdf-syntax-ns#"
   xmlns:svg="http://www.w3.org/2000/svg"
   xmlns="http://www.w3.org/2000/svg"
   xmlns:sodipodi="http://sodipodi.sourceforge.net/DTD/sodipodi-0.dtd"
   xmlns:inkscape="http://www.inkscape.org/namespaces/inkscape"
   sodipodi:docname="othila.svg"
   inkscape:version="1.0 (4035a4fb49, 2020-05-01)"
   width="64mm"
   height="64mm"
   viewBox="0 0 64 64"
   version="1.1"
   id="SVGRoot">
  <defs
     id="defs18" />
  <sodipodi:namedview
     inkscape:pagecheckerboard="false"
     inkscape:window-maximized="1"
     inkscape:window-y="0"
     inkscape:window-x="0"
     inkscape:window-height="1021"
     inkscape:window-width="1920"
     showgrid="false"
     inkscape:document-rotation="0"
     inkscape:current-layer="layer1"
     inkscape:document-units="mm"
     inkscape:cy="72.894475"
     inkscape:cx="57.482729"
     inkscape:zoom="1.4"
     inkscape:pageshadow="2"
     inkscape:pageopacity="0"
     borderopacity="1.0"
     bordercolor="#666666"
     pagecolor="#000000"
     id="base" />
  <metadata
     id="metadata21">
    <rdf:RDF>
      <cc:Work
         rdf:about="">
        <dc:format>image/svg+xml</dc:format>
        <dc:type
           rdf:resource="http://purl.org/dc/dcmitype/StillImage" />
        <dc:title></dc:title>
      </cc:Work>
    </rdf:RDF>
  </metadata>
  <g
     id="layer1"
     inkscape:groupmode="layer"
     inkscape:label="Layer 1">
    <path
       d="m 37.599383,9.0777718 c -2.731007,2.6480322 -5.784169,4.9462302 -8.781005,7.2812382 -3.001971,2.292486 -6.10088,4.45686 -9.295304,6.472182 -0.433014,0.266178 -0.863512,0.537433 -1.308771,0.782971 -2.844336,1.579705 -0.610296,5.602205 2.234041,4.0225 v 0 c 0.519096,-0.289546 1.026174,-0.599854 1.530467,-0.914353 3.322158,-2.097371 6.546377,-4.347598 9.66781,-6.733909 3.137994,-2.445633 6.330493,-4.857002 9.185074,-7.635938 2.315553,-2.285589 -0.916756,-5.56028 -3.232312,-3.2746912 z"
       id="path231"
       style="fill:#ffffff;stroke-width:0.306749" />
    <path
       d="m 18.868861,26.49745 c 3.104812,1.814349 6.167834,3.709274 9.121819,5.762002 0.948035,0.658791 1.875041,1.347339 2.81256,2.021011 5.132091,3.858099 10.000938,8.052442 14.808152,12.30416 1.241106,1.13405 2.487092,2.264312 3.691161,3.438061 0.447063,0.435805 0.834595,0.855608 1.199259,1.356484 0.207286,0.293043 0.203461,0.471682 0.07123,0.04915 0.756837,3.164321 5.231859,2.093992 4.475026,-1.070327 v 0 c -0.177565,-0.629653 -0.472498,-1.205063 -0.860794,-1.733589 -1.5753,-2.076612 -3.654157,-3.694336 -5.527703,-5.486516 -4.924036,-4.354277 -9.911926,-8.649047 -15.172673,-12.594985 -0.978886,-0.702354 -1.94702,-1.419942 -2.936657,-2.107065 -3.099181,-2.151814 -6.311813,-4.142011 -9.577079,-6.030244 -2.893384,-1.487969 -4.99769,2.603893 -2.104306,4.091863 z"
       id="path233"
       style="fill:#ffffff;stroke-width:0.306749" />
    <path
       d="M 45.893102,13.172439 C 45.298852,12.11699 44.493346,11.207615 43.695144,10.304684 43.041936,9.7019978 41.909949,8.5038833 40.857425,9.5110011 c -0.904967,0.8659249 -0.951246,2.3703959 -1.000308,3.6219479 -0.01816,0.463253 0.534628,0.757769 0.814129,1.127649 0.689864,0.912938 1.412131,1.800934 2.116651,2.70261 0.358861,0.467342 0.718773,0.933878 1.076578,1.402027 0.110952,0.145161 1.494818,1.96399 1.690592,2.230588 0.03027,0.04122 0.580386,0.767647 0.656604,1.008928 0.02755,0.08723 -0.09757,-0.154781 -0.146363,-0.232171 -0.0053,-0.437632 0.114603,-0.895185 -0.01605,-1.312899 -0.04035,-0.129017 -0.212302,0.167545 -0.314504,0.25602 -0.269928,0.233674 -0.52646,0.482857 -0.801687,0.710262 -1.893498,1.564479 -3.926229,2.942851 -5.940162,4.34414 -6.997192,4.711136 -13.947198,9.492954 -20.742917,14.491149 -2.485163,1.897722 -4.982342,3.820161 -7.105021,6.128955 -0.400241,0.432716 -0.7498,0.898856 -1.035429,1.412919 -1.4085592,2.932863 2.739134,4.924867 4.147694,1.992003 v 0 c -0.360503,0.614534 0.184034,-0.27751 0.285102,-0.301804 1.901734,-2.101575 4.210863,-3.789133 6.434091,-5.525593 6.762933,-4.975383 13.682279,-9.731363 20.645476,-14.421413 2.16698,-1.509488 4.359951,-2.992841 6.383738,-4.695341 0.312268,-0.262694 1.768171,-1.551396 1.955814,-1.969278 0.316252,-0.704302 0.374796,-1.497919 0.562191,-2.246878 -0.107515,-0.307557 -0.188137,-0.625887 -0.322574,-0.922671 -0.188055,-0.41516 -0.725741,-1.150892 -0.973898,-1.488868 -0.91585,-1.247344 -1.880651,-2.458667 -2.813584,-3.693043 -1.356051,-1.735489 -0.801561,-1.029156 -2.052439,-2.618448 -0.159545,-0.202709 -0.315993,-0.808057 -0.478828,-0.607979 -0.678959,0.834252 -0.505416,2.30472 -1.394618,2.90993 -2.491049,1.695455 -2.324573,0.297462 -2.238993,-0.460508 0.590294,0.666871 1.203674,1.325893 1.649426,2.102146 1.614285,2.824855 5.609235,0.541914 3.99495,-2.282942 z"
       id="path235"
       style="fill:#ffffff;stroke-width:0.306749" />
  </g>
</svg>
