<?xml version="1.0" encoding="UTF-8" standalone="no"?>
<svg
   xmlns:dc="http://purl.org/dc/elements/1.1/"
   xmlns:cc="http://creativecommons.org/ns#"
   xmlns:rdf="http://www.w3.org/1999/02/22-rdf-syntax-ns#"
   xmlns:svg="http://www.w3.org/2000/svg"
   xmlns="http://www.w3.org/2000/svg"
   xmlns:sodipodi="http://sodipodi.sourceforge.net/DTD/sodipodi-0.dtd"
   xmlns:inkscape="http://www.inkscape.org/namespaces/inkscape"
   sodipodi:docname="teiwaz.svg"
   inkscape:version="1.0 (4035a4fb49, 2020-05-01)"
   width="64mm"
   height="64mm"
   viewBox="0 0 64 64"
   version="1.1"
   id="SVGRoot">
  <defs
     id="defs18" />
  <sodipodi:namedview
     inkscape:pagecheckerboard="false"
     inkscape:window-maximized="1"
     inkscape:window-y="0"
     inkscape:window-x="0"
     inkscape:window-height="1021"
     inkscape:window-width="1920"
     showgrid="false"
     inkscape:document-rotation="0"
     inkscape:current-layer="layer1"
     inkscape:document-units="mm"
     inkscape:cy="70.037332"
     inkscape:cx="57.482729"
     inkscape:zoom="1.4"
     inkscape:pageshadow="2"
     inkscape:pageopacity="0"
     borderopacity="1.0"
     bordercolor="#666666"
     pagecolor="#000000"
     id="base" />
  <metadata
     id="metadata21">
    <rdf:RDF>
      <cc:Work
         rdf:about="">
        <dc:format>image/svg+xml</dc:format>
        <dc:type
           rdf:resource="http://purl.org/dc/dcmitype/StillImage" />
        <dc:title></dc:title>
      </cc:Work>
    </rdf:RDF>
  </metadata>
  <g
     id="layer1"
     inkscape:groupmode="layer"
     inkscape:label="Layer 1">
    <path
       d="m 27.494888,17.12983 c -0.36372,1.788629 -0.125322,3.620409 -0.02458,5.421951 0.126201,2.25677 0.116477,2.382134 0.19214,4.694301 0.150651,4.286472 0.02983,8.575969 0.135811,12.862769 0.02395,0.482791 0.04805,0.965573 0.07181,1.448374 0.0467,0.948849 0.08615,1.312257 0.05149,2.2318 -0.03231,0.857269 -0.159515,1.703449 -0.282075,2.550965 -0.399523,2.777746 3.528804,3.342756 3.928324,0.565009 v 0 c 0.147458,-1.030197 0.288838,-2.056347 0.322461,-3.098429 0.0329,-1.019604 -0.0061,-1.433812 -0.05641,-2.447576 -0.02233,-0.449778 -0.0454,-0.899517 -0.0681,-1.349274 -0.108553,-4.297069 0.01897,-8.597173 -0.136712,-12.893908 -0.07831,-2.376394 -0.0682,-2.498866 -0.19797,-4.815422 -0.02387,-0.425967 -0.160242,-2.319813 -0.169243,-2.956878 -0.0087,-0.613557 0.01529,-0.71073 0.07659,-1.224669 0.699339,-2.717796 -3.144205,-3.706809 -3.843544,-0.989013 z"
       id="path447"
       style="fill:#ffffff;stroke-width:0.264583" />
    <path
       d="m 28.814987,13.778867 c -1.814361,1.518723 -3.521854,3.183648 -5.058839,4.984543 -0.41754,0.489234 -0.807221,1.001574 -1.210831,1.502361 -0.367131,0.514906 -0.750183,1.018823 -1.101393,1.544717 -0.653831,0.979031 -1.483449,2.394943 -2.088106,3.411806 -0.799702,1.344875 -1.600131,2.688538 -2.414765,4.024425 -0.331942,0.562681 -0.705296,1.098298 -1.045688,1.655458 -1.455792,2.399199 1.937188,4.458001 3.39298,2.058802 v 0 c 0.334511,-0.557355 0.719186,-1.082646 1.041212,-1.648103 0.8216,-1.347539 1.629518,-2.70256 2.435798,-4.059319 0.500471,-0.842161 1.368394,-2.320694 1.914213,-3.144899 0.306111,-0.462239 0.640202,-0.905327 0.960303,-1.35799 0.352846,-0.441263 0.692571,-0.893347 1.05854,-1.323789 1.381953,-1.625418 2.917351,-3.128758 4.54339,-4.507701 2.220537,-1.716017 -0.206277,-4.856328 -2.426814,-3.140311 z"
       id="path449"
       style="fill:#ffffff;stroke-width:0.264583" />
    <path
       d="m 27.693008,17.70486 c 1.37704,1.3615 2.646236,2.825534 3.977241,4.230264 1.193051,1.259135 1.852361,1.885862 3.07867,3.090451 1.398903,1.309066 2.760292,2.657001 4.145325,3.980407 2.029339,1.938367 4.770607,-0.93155 2.741266,-2.86992 v 0 c -1.372312,-1.310314 -2.719681,-2.646535 -4.106021,-3.942342 -1.120558,-1.099798 -1.84668,-1.792912 -2.931522,-2.938044 -1.330204,-1.404129 -2.597608,-2.868587 -3.975267,-4.228109 -1.893133,-2.071603 -4.822822,0.60569 -2.929692,2.677293 z"
       id="path451"
       style="fill:#ffffff;stroke-width:0.264583" />
  </g>
</svg>
