<?xml version="1.0" encoding="UTF-8" standalone="no"?>
<svg
   xmlns:dc="http://purl.org/dc/elements/1.1/"
   xmlns:cc="http://creativecommons.org/ns#"
   xmlns:rdf="http://www.w3.org/1999/02/22-rdf-syntax-ns#"
   xmlns:svg="http://www.w3.org/2000/svg"
   xmlns="http://www.w3.org/2000/svg"
   xmlns:sodipodi="http://sodipodi.sourceforge.net/DTD/sodipodi-0.dtd"
   xmlns:inkscape="http://www.inkscape.org/namespaces/inkscape"
   sodipodi:docname="jera.svg"
   inkscape:version="1.0 (4035a4fb49, 2020-05-01)"
   width="64mm"
   height="64mm"
   viewBox="0 0 64 64"
   version="1.1"
   id="SVGRoot">
  <defs
     id="defs18" />
  <sodipodi:namedview
     inkscape:pagecheckerboard="false"
     inkscape:window-maximized="1"
     inkscape:window-y="0"
     inkscape:window-x="0"
     inkscape:window-height="1021"
     inkscape:window-width="1920"
     showgrid="false"
     inkscape:document-rotation="0"
     inkscape:current-layer="layer1"
     inkscape:document-units="mm"
     inkscape:cy="70.037332"
     inkscape:cx="57.482729"
     inkscape:zoom="1.4"
     inkscape:pageshadow="2"
     inkscape:pageopacity="0"
     borderopacity="1.0"
     bordercolor="#666666"
     pagecolor="#000000"
     id="base" />
  <metadata
     id="metadata21">
    <rdf:RDF>
      <cc:Work
         rdf:about="">
        <dc:format>image/svg+xml</dc:format>
        <dc:type
           rdf:resource="http://purl.org/dc/dcmitype/StillImage" />
        <dc:title></dc:title>
      </cc:Work>
    </rdf:RDF>
  </metadata>
  <g
     id="layer1"
     inkscape:groupmode="layer"
     inkscape:label="Layer 1">
    <path
       d="m 30.034113,15.067052 c 3.366437,2.699366 6.750698,5.375975 10.108009,8.086808 3.004416,2.437863 6.006793,4.878217 9.031727,7.290619 0.553781,0.435893 0.298413,0.241695 0.762902,0.586783 2.25656,1.668359 4.615977,-1.522902 2.359414,-3.191259 v 0 c -0.363207,-0.266644 -0.14537,-0.103029 -0.64779,-0.498377 -3.018708,-2.407397 -6.014767,-4.842853 -9.013028,-7.275615 -3.405534,-2.749695 -6.836503,-5.467094 -10.255319,-8.200155 -2.263587,-1.658813 -4.609502,1.542383 -2.345915,3.201196 z"
       id="path325"
       style="fill:#ffffff;stroke-width:0.264583" />
    <path
       d="m 49.215815,27.599716 c -2.069082,0.813676 -4.101825,1.716067 -6.169308,2.534108 -1.996213,0.789842 -2.674186,1.022898 -4.698095,1.763519 -3.52833,1.265225 -7.098332,2.408008 -10.678351,3.516601 -1.003887,0.270518 -1.974619,0.644822 -2.962214,0.964504 -2.665938,0.876507 -1.42637,4.646711 1.239568,3.770204 v 0 c 0.963657,-0.319987 1.916371,-0.673888 2.896645,-0.943573 3.643952,-1.128445 7.27752,-2.29231 10.86862,-3.580841 3.628218,-1.328592 7.216595,-2.751778 10.772214,-4.264147 2.658986,-0.897374 1.389906,-4.657749 -1.269079,-3.760375 z"
       id="path327"
       style="fill:#ffffff;stroke-width:0.264583" />
    <path
       d="M 34.245528,25.769936 C 29.630296,27.382869 25.0394,29.061005 20.47148,30.803418 16.945471,32.216944 13.4157,33.641395 9.9864848,35.280057 9.8052431,35.38483 9.6240017,35.489605 9.44276,35.594377 c -2.4110987,1.435999 -0.3802901,4.845807 2.030808,3.40981 v 0 c 0.07542,-0.04809 0.150833,-0.09617 0.22625,-0.144262 3.32928,-1.596194 6.763277,-2.969945 10.186217,-4.348406 4.618595,-1.762032 9.264268,-3.447513 13.92484,-5.094576 2.578825,-1.106868 1.013476,-4.753876 -1.565347,-3.647007 z"
       id="path329"
       style="fill:#ffffff;stroke-width:0.264583" />
    <path
       d="m 9.0680065,40.366558 c 4.1759935,1.179309 8.2966815,2.544249 12.4238145,3.881818 6.774354,2.222252 13.567185,4.387443 20.386577,6.467388 1.725456,0.485775 3.423592,1.075108 5.160383,1.521127 2.720091,0.690356 3.696401,-3.156435 0.976309,-3.846791 v 0 C 46.336505,47.971662 44.704809,47.373243 43.036198,46.919649 36.238759,44.846507 29.467921,42.687999 22.715392,40.47295 18.552539,39.123831 14.396012,37.747717 10.183965,36.557934 7.4908615,35.768833 6.374903,39.577454 9.0680065,40.366558 Z"
       id="path331"
       style="fill:#ffffff;stroke-width:0.264583" />
  </g>
</svg>
