<?xml version="1.0" encoding="UTF-8"?>
<svg width="60" height="60" fill="none" version="1.1" viewBox="0 0 60 60" xmlns="http://www.w3.org/2000/svg">
 <path d="m17.953 6.4718-2.4212 1.5407 4.5916 8.782-6.2709-1.8551-0.72529 2.9798 8.9684 2.6529 4.3796 8.3724h-8.7509l-6.5665-7.2538-1.975 2.1817 4.5944 5.0721h-9.1859v3.0814h9.1859l-4.5944 5.0718 1.975 2.1817 6.5638-7.2534h8.7395l-4.3711 8.3596-8.9655 2.6533 0.71689 2.9797 6.2763-1.8613-4.5913 8.7913 2.4129 1.5409 4.5943-8.7884 1.6821 6.9333 2.6919-0.80107-2.4019-9.91 5.1745-9.8973h0.0168l5.1801 9.9187-2.399 9.9067 2.6946 0.79199 1.6767-6.9269 4.5944 8.7882 2.4185-1.5405-4.5917-8.7884 6.2708 1.8549 0.72536-2.9733-8.9684-2.6533-4.3796-8.3782h8.7536l6.5636 7.2534 1.9751-2.1817-4.5944-5.0718h9.186v-3.0814h-9.186l4.5944-5.0721-0.14233-0.18482h-3.6345l-4.7618 5.257h-11.975v-0.0062l-0.01101-0.0062-5.1691-9.9006 2.399-9.9068-2.6946-0.80116-1.6767 6.9332zm25.692-2.1786v3.0814h6.3962l-5.5791 6.1628-0.8171 0.90275v2.1787h11.158v-3.0814h-6.3964l5.5789-6.1628 0.81748-0.90284v-2.1786h-1.9723z" fill="url(#paint0_linear)" stroke-width="1.9312"/>
 <path d="m29.697 10.087v3.3796h6.6426l-5.7936 6.7593-0.84896 0.99013v2.3895h11.587v-3.3796h-6.6422l5.7936-6.7593 0.84858-0.99021v-2.3894h-2.0479z" fill="url(#paint1_linear)" stroke-width="1.9312"/>
 <defs>
  <linearGradient id="paint0_linear" x1="16" x2="16" y1="29" y2="3" gradientTransform="matrix(1.9312 0 0 1.9312 -1.2027 -1.5004)" gradientUnits="userSpaceOnUse">
   <stop stop-color="#A93AFF" offset="0"/>
   <stop stop-color="#FF81FF" offset="1"/>
  </linearGradient>
  <linearGradient id="paint1_linear" x1="19" x2="19" y1="13" y2="6" gradientTransform="matrix(1.9312 0 0 1.9312 -1.2027 -1.5004)" gradientUnits="userSpaceOnUse">
   <stop stop-color="#A93AFF" offset="0"/>
   <stop stop-color="#FF81FF" offset="1"/>
  </linearGradient>
 </defs>
</svg>
