<?xml version="1.0" encoding="UTF-8"?>
<svg width="60" height="60" fill="none" version="1.1" viewBox="0 0 60 60" xmlns="http://www.w3.org/2000/svg">
 <path d="m51.364 39.226h-9.9502c-0.32987 0-0.64622 0.13107-0.87955 0.36439-0.23321 0.23321-0.36427 0.54956-0.36427 0.87943 0 0.32987 0.13107 0.64622 0.36427 0.87955 0.23332 0.23321 0.54967 0.36427 0.87955 0.36427h7.403c-2.0392 3.0534-4.7983 5.5583-8.0341 7.2935-3.2359 1.7353-6.849 2.6476-10.521 2.6567-3.2409 0.0021-6.4437-0.69858-9.3876-2.054-2.9438-1.3554-5.5587-3.3333-7.6642-5.797-2.1055-2.4637-3.6516-5.3548-4.5317-8.474-0.88005-3.1191-1.0731-6.392-0.56588-9.593 0.03954-0.31891-0.0459-0.64074-0.23841-0.89809-0.19251-0.25735-0.47716-0.43016-0.79428-0.48228-0.31711-0.05212-0.64209 0.02064-0.90681 0.20278-0.26473 0.18225-0.44865 0.45977-0.51324 0.7746-0.21089 1.3004-0.31655 2.6156-0.31593 3.9328 0.014866 13.731 11.144 24.861 24.876 24.876 3.8612-0.0014 7.6693-0.90089 11.123-2.6273 3.4538-1.7266 6.4589-4.2326 8.7774-7.3204v6.219c0 0.32988 0.13094 0.64622 0.36427 0.87943 0.23321 0.23332 0.54956 0.36427 0.87943 0.36427 0.32987 0 0.64622-0.13094 0.87955-0.36427 0.23321-0.23321 0.36427-0.54956 0.36427-0.87943v-9.9552c-6.99e-4 -0.32941-0.132-0.64517-0.36521-0.87792-0.23321-0.23274-0.54909-0.36346-0.87862-0.36346zm-9.3607-31.851c-10.988-5.9154-24.418-2.709-31.684 6.9826v-6.2264c0-0.32988-0.13104-0.64624-0.3643-0.87949-0.23326-0.23326-0.54962-0.3643-0.87949-0.3643-0.32986 0-0.64624 0.13104-0.87948 0.3643-0.23326 0.23325-0.3643 0.54962-0.3643 0.87949v9.9503c0 0.32988 0.13104 0.64622 0.3643 0.87955 0.23324 0.23321 0.54962 0.36427 0.87948 0.36427h9.9503c0.32987 0 0.64622-0.13107 0.87943-0.36427 0.23333-0.23333 0.36439-0.54968 0.36439-0.87955s-0.13107-0.64622-0.36439-0.87943c-0.23321-0.23333-0.54956-0.36439-0.87943-0.36439h-7.403c2.0391-3.0534 4.7983-5.5582 8.0341-7.2935 3.2359-1.7353 6.8489-2.6476 10.521-2.6567 3.2411-0.00199 6.4442 0.69923 9.3882 2.0551 2.9439 1.3559 5.5588 3.3341 7.6641 5.7985 2.1053 2.4643 3.651 5.356 4.5306 8.4755 0.87955 3.1195 1.0719 6.3927 0.56402 9.5939-0.02612 0.16115-0.02029 0.32603 0.01726 0.48496 0.03755 0.15893 0.10612 0.30889 0.20161 0.44135 0.09549 0.13246 0.21618 0.24487 0.35506 0.33069 0.13899 0.08582 0.29349 0.14342 0.45464 0.16954 0.16126 0.02624 0.32603 0.02029 0.48496-0.01726s0.30889-0.10599 0.44135-0.20149c0.13258-0.09549 0.24487-0.21619 0.33069-0.35518 0.08593-0.13888 0.14354-0.29338 0.16966-0.45464 0.21082-1.3003 0.31658-2.6156 0.31588-3.9328-0.0034-4.492-1.2221-8.8994-3.5271-12.755-2.3048-3.8555-5.61-7.0157-9.565-9.1455z" fill="url(#paint0_linear)" stroke="url(#paint0_linear)" stroke-width=".93284"/>
 <path d="m37.682 29.276c0-1.9792-0.78627-3.8773-2.1858-5.2769-1.3995-1.3995-3.2977-2.1858-5.2769-2.1858-1.9792 0-3.8775 0.78626-5.2769 2.1858-1.3995 1.3996-2.1858 3.2977-2.1858 5.2769 0 1.9792 0.78626 3.8775 2.1858 5.2769 1.3995 1.3995 3.2977 2.1858 5.2769 2.1858 1.9792 0 3.8775-0.78626 5.2769-2.1858 1.3995-1.3995 2.1858-3.2977 2.1858-5.2769zm-12.438 0c0-1.3195 0.52426-2.5849 1.4572-3.518 0.93307-0.93295 2.1985-1.4572 3.518-1.4572s2.5849 0.52426 3.518 1.4572c0.93307 0.93307 1.4572 2.1985 1.4572 3.518s-0.52414 2.5849-1.4572 3.518c-0.93307 0.93307-2.1985 1.4572-3.518 1.4572s-2.5849-0.52414-3.518-1.4572c-0.93295-0.93307-1.4572-2.1985-1.4572-3.518z" clip-rule="evenodd" fill="url(#paint2_linear)" fill-rule="evenodd" stroke-width=".1166"/>
 <path d="m35.167 24.329c1.3122 1.312 2.0492 3.0915 2.0492 4.9471h0.93284c0-2.103-0.83536-4.1198-2.3224-5.6067zm-4.9471-2.0492c1.8555 0 3.635 0.73718 4.9471 2.0492l0.65963-0.65963c-1.4869-1.4871-3.5037-2.3224-5.6067-2.3224zm-4.9471 2.0492c1.312-1.312 3.0915-2.0492 4.9471-2.0492v-0.93284c-2.103 0-4.1198 0.83536-5.6067 2.3224zm-2.0492 4.9471c0-1.8555 0.73706-3.635 2.0492-4.9471l-0.65963-0.65963c-1.4871 1.4869-2.3224 3.5037-2.3224 5.6067zm2.0492 4.9472c-1.3122-1.3122-2.0492-3.0917-2.0492-4.9472h-0.93284c0 2.103 0.83536 4.1198 2.3224 5.6067zm4.9471 2.0491c-1.8555 0-3.635-0.73706-4.9471-2.0491l-0.65963 0.65952c1.4869 1.4871 3.5037 2.3224 5.6067 2.3224zm4.9471-2.0491c-1.312 1.312-3.0915 2.0491-4.9471 2.0491v0.93284c2.103 0 4.1198-0.83536 5.6067-2.3224zm2.0492-4.9472c0 1.8555-0.73706 3.635-2.0492 4.9472l0.65963 0.65952c1.4871-1.4869 2.3224-3.5037 2.3224-5.6067zm-10.844-3.8477c-1.0205 1.0204-1.5939 2.4045-1.5939 3.8477h0.93284c0-1.1958 0.47505-2.3426 1.3207-3.1881zm3.8477-1.5939c-1.4432 0-2.8272 0.57334-3.8477 1.5939l0.65963 0.65963c0.8455-0.84562 1.9923-1.3207 3.1881-1.3207zm3.8477 1.5939c-1.0204-1.0205-2.4045-1.5939-3.8477-1.5939v0.93284c1.1958 0 2.3426 0.47505 3.1882 1.3207zm1.5939 3.8477c0-1.4432-0.57335-2.8273-1.5939-3.8477l-0.65952 0.65963c0.8455 0.8455 1.3205 1.9923 1.3205 3.1881zm-1.5939 3.8477c1.0205-1.0204 1.5939-2.4045 1.5939-3.8477h-0.93284c0 1.1958-0.47505 2.3426-1.3205 3.1882zm-3.8477 1.5939c1.4432 0 2.8273-0.57334 3.8477-1.5939l-0.65952-0.65952c-0.84562 0.8455-1.9924 1.3205-3.1882 1.3205zm-3.8477-1.5939c1.0205 1.0205 2.4045 1.5939 3.8477 1.5939v-0.93284c-1.1958 0-2.3426-0.47505-3.1881-1.3205zm-1.5939-3.8477c0 1.4432 0.57335 2.8273 1.5939 3.8477l0.65963-0.65952c-0.84562-0.84562-1.3207-1.9924-1.3207-3.1882z" fill="url(#paint2_linear)" stroke-width=".1166"/>
 <defs>
  <linearGradient id="paint0_linear" x1="256" x2="256" y1="469.33" y2="42.677" gradientTransform="matrix(.1166 0 0 .1166 .36889 -.57462)" gradientUnits="userSpaceOnUse">
   <stop stop-color="#A93AFF" offset="0"/>
   <stop stop-color="#FF81FF" offset="1"/>
  </linearGradient>
  <linearGradient id="paint2_linear" x1="256" x2="256" y1="192" y2="320" gradientTransform="matrix(.1166 0 0 .1166 .36889 -.57462)" gradientUnits="userSpaceOnUse">
   <stop stop-color="#DC18FC" offset="0"/>
   <stop stop-color="#8E1EFF" offset="1"/>
  </linearGradient>
 </defs>
</svg>
