<?xml version="1.0" encoding="UTF-8"?>
<svg width="60" height="60" fill="none" version="1.1" viewBox="0 0 60 60" xmlns="http://www.w3.org/2000/svg">
 <g stroke-width=".11099">
  <path d="m41.385 9.0002c0.1441-0.27048 0.48071-0.37341 0.74785-0.22325 4.696 2.6388 8.4178 6.7284 10.602 11.663 2.2592 5.1041 2.7433 10.818 1.3751 16.229-1.3682 5.4114-4.5098 10.208-8.9235 13.625-4.4136 3.4169-9.8448 5.2567-15.426 5.2256-5.5816-0.0311-10.992-1.9312-15.367-5.3971-4.3753-3.4658-7.4634-8.2975-8.7712-13.724-1.3079-5.4263-0.76013-11.134 1.5558-16.213 2.2391-4.9101 6.0061-8.958 10.731-11.544 0.26894-0.14719 0.60424-0.040543 0.7453 0.23157l0.86851 1.6738c0.14117 0.27206 0.03468 0.60642-0.23386 0.7544-4.1309 2.2773-7.4243 5.8267-9.3855 10.128-2.0381 4.4693-2.5201 9.4926-1.3691 14.268 1.151 4.7753 3.8686 9.0275 7.7191 12.078 3.8505 3.05 8.6117 4.7223 13.524 4.7496 4.9121 0.02735 9.6917-1.5917 13.576-4.5986 3.8842-3.0071 6.649-7.2287 7.8531-11.991 1.2041-4.7622 0.77804-9.7906-1.2101-14.282-1.9133-4.3225-5.1669-7.9083-9.2722-10.231-0.26671-0.15094-0.3696-0.48647-0.22542-0.75696z" fill="url(#paint0_linear)"/>
  <path d="m38.513 14.387c0.1441-0.27048 0.4808-0.37358 0.74684-0.22154 3.4924 1.9956 6.2604 5.0583 7.8924 8.7453 1.7069 3.8563 2.0727 8.1734 1.0389 12.262-1.0338 4.0885-3.4075 7.713-6.7422 10.295-3.3348 2.5816-7.4382 3.9717-11.656 3.9481-4.2172-0.02345-8.3049-1.4591-11.611-4.0777-3.3057-2.6187-5.639-6.2693-6.6271-10.369-0.98818-4.1-0.57435-8.4127 1.1754-12.25 1.673-3.6686 4.4749-6.7002 7.9893-8.6568 0.2677-0.14915 0.60322-0.04233 0.7444 0.22974l0.94764 1.8266c0.14117 0.27203 0.03436 0.60612-0.23242 0.75684-2.8864 1.6294-5.1876 4.1336-6.5667 7.1579-1.4561 3.193-1.8005 6.7817-0.97815 10.193 0.82231 3.4116 2.7638 6.4494 5.5145 8.6284 2.7509 2.179 6.1524 3.3736 9.6616 3.3932 3.5093 0.01954 6.9239-1.1371 9.6987-3.2854 2.7749-2.1482 4.7501-5.1641 5.6103-8.5663 0.86028-3.4022 0.55583-6.9946-0.8645-10.204-1.3454-3.0396-3.6186-5.5691-6.4866-7.2307-0.26516-0.15354-0.36816-0.48891-0.22398-0.7594z" fill="url(#paint1_linear)"/>
  <rect x="25.57" y="2.1345" width="8.6572" height="30.522" rx="4.3286" fill="url(#paint2_linear)"/>
 </g>
 <defs>
  <linearGradient id="paint0_linear" x1="256" x2="256" y1="66.5" y2="496" gradientTransform="matrix(.11099 0 0 .11099 1.4853 .46959)" gradientUnits="userSpaceOnUse">
   <stop stop-color="#FFB155" offset="0"/>
   <stop stop-color="#FF5454" offset="1"/>
  </linearGradient>
  <linearGradient id="paint1_linear" x1="256" x2="256" y1="140.5" y2="493" gradientTransform="matrix(.11099 0 0 .11099 1.4853 .46959)" gradientUnits="userSpaceOnUse">
   <stop stop-color="#FFB155" offset="0"/>
   <stop stop-color="#FF5454" offset="1"/>
  </linearGradient>
  <linearGradient id="paint2_linear" x1="256" x2="256" y1="46.949" y2="332.06" gradientTransform="matrix(.11099 0 0 .11099 1.4853 .46959)" gradientUnits="userSpaceOnUse">
   <stop stop-color="#FFB155" offset="0"/>
   <stop stop-color="#FF5454" offset="1"/>
  </linearGradient>
 </defs>
</svg>
