<svg width="24" height="24" version="1" xmlns="http://www.w3.org/2000/svg">
 <defs>
  <style id="current-color-scheme" type="text/css">.ColorScheme-Text { color:#ffffff; } .ColorScheme-Highlight { color:#5294e2; }</style>
 </defs>
 <path class="ColorScheme-Text" d="m19.816 2.9883c-0.51284-0.031335-0.79124 0.058272-8.2979 2.6836-4.2717 1.4941-7.8632 2.7793-7.9798 2.8552-0.33904 0.22058-0.55477 0.64494-0.55477 1.0875 0 0.95023 0.34773 1.217 3.782 2.8927 1.7381 0.84898 2.903 1.4682 3.0446 1.618 0.12624 0.13317 0.86217 1.52 1.6334 3.0821 1.3955 2.8202 1.7147 3.3484 2.2168 3.6521 0.53346 0.32379 1.2589 0.13436 1.6863-0.44028 0.20063-0.26938 5.5882-15.49 5.6548-15.976 0.063119-0.45186-0.081153-0.87533-0.40012-1.1801-0.21303-0.20334-0.34265-0.24819-0.78561-0.27524zm-13.451 12.394a2.2542 2.2542 0 0 0-2.2542 2.2542 2.2542 2.2542 0 0 0 2.2542 2.2542 2.2542 2.2542 0 0 0 2.2542-2.2542 2.2542 2.2542 0 0 0-2.2542-2.2542z" color="#ffffff" fill="currentColor" stroke-width="1.1271"/>
</svg>
