<?xml version="1.0" encoding="UTF-8" standalone="no"?>
<svg
   width="24"
   height="24"
   version="1"
   id="svg7"
   sodipodi:docname="telegram.svg"
   inkscape:version="1.1.2 (0a00cf5339, 2022-02-04, custom)"
   xmlns:inkscape="http://www.inkscape.org/namespaces/inkscape"
   xmlns:sodipodi="http://sodipodi.sourceforge.net/DTD/sodipodi-0.dtd"
   xmlns="http://www.w3.org/2000/svg"
   xmlns:svg="http://www.w3.org/2000/svg">
  <sodipodi:namedview
     id="namedview9"
     pagecolor="#ffffff"
     bordercolor="#666666"
     borderopacity="1.0"
     inkscape:pageshadow="2"
     inkscape:pageopacity="0.0"
     inkscape:pagecheckerboard="0"
     showgrid="false"
     inkscape:zoom="30.291667"
     inkscape:cx="11.983494"
     inkscape:cy="12"
     inkscape:window-width="1910"
     inkscape:window-height="1050"
     inkscape:window-x="1923"
     inkscape:window-y="23"
     inkscape:window-maximized="1"
     inkscape:current-layer="svg7" />
  <defs
     id="defs3">
    <style
       id="current-color-scheme"
       type="text/css">.ColorScheme-Text { color:#ffffff; } .ColorScheme-Highlight { color:#5294e2; }</style>
  </defs>
  <path
     class="ColorScheme-Text"
     d="M 18.372996,4.1291861 C 17.925077,4.1018178 17.68192,4.1800814 11.125539,6.4730653 7.3945992,7.778025 4.2577524,8.9005296 4.155913,8.9668214 3.8597925,9.1594778 3.6713721,9.5301175 3.6713721,9.9166531 c 0,0.8299389 0.3037104,1.0629379 3.3032311,2.5265089 1.5180714,0.741506 2.535505,1.282338 2.6591797,1.413175 0.1102591,0.116312 0.7530271,1.327581 1.4266261,2.691933 1.218841,2.463186 1.497633,2.924521 1.936172,3.189775 0.465928,0.282801 1.099534,0.117351 1.472829,-0.384544 C 14.644642,19.118222 19.350191,5.8244022 19.40836,5.3999257 19.46349,5.0052673 19.337483,4.635405 19.058892,4.3692162 18.87283,4.1916173 18.759619,4.152445 18.372734,4.1288193 Z M 6.6247769,14.954212 a 1.9688375,1.9688375 0 0 0 -1.9688375,1.968837 1.9688375,1.9688375 0 0 0 1.9688375,1.968838 1.9688375,1.9688375 0 0 0 1.9688375,-1.968838 1.9688375,1.9688375 0 0 0 -1.9688375,-1.968837 z"
     color="#ffffff"
     fill="currentColor"
     stroke-width="0.984419"
     id="path5" />
</svg>
