<?xml version="1.0" encoding="UTF-8" standalone="no"?>
<svg
   xmlns:dc="http://purl.org/dc/elements/1.1/"
   xmlns:cc="http://creativecommons.org/ns#"
   xmlns:rdf="http://www.w3.org/1999/02/22-rdf-syntax-ns#"
   xmlns:svg="http://www.w3.org/2000/svg"
   xmlns="http://www.w3.org/2000/svg"
   xmlns:sodipodi="http://sodipodi.sourceforge.net/DTD/sodipodi-0.dtd"
   xmlns:inkscape="http://www.inkscape.org/namespaces/inkscape"
   inkscape:version="1.0 (4035a4fb49, 2020-05-01)"
   sodipodi:docname="shutdown.svg"
   id="svg8"
   version="1.1"
   viewBox="0 0 65 65"
   height="65mm"
   width="65mm">
  <defs
     id="defs2" />
  <sodipodi:namedview
     inkscape:window-maximized="1"
     inkscape:window-y="0"
     inkscape:window-x="0"
     inkscape:window-height="1021"
     inkscape:window-width="1920"
     showgrid="false"
     inkscape:document-rotation="0"
     inkscape:current-layer="layer1"
     inkscape:document-units="mm"
     inkscape:cy="117.02659"
     inkscape:cx="110.31619"
     inkscape:zoom="2.061125"
     inkscape:pageshadow="2"
     inkscape:pageopacity="0"
     borderopacity="1.0"
     bordercolor="#666666"
     pagecolor="#000000"
     id="base" />
  <metadata
     id="metadata5">
    <rdf:RDF>
      <cc:Work
         rdf:about="">
        <dc:format>image/svg+xml</dc:format>
        <dc:type
           rdf:resource="http://purl.org/dc/dcmitype/StillImage" />
        <dc:title></dc:title>
      </cc:Work>
    </rdf:RDF>
  </metadata>
  <g
     id="layer1"
     inkscape:groupmode="layer"
     inkscape:label="Layer 1">
    <path
       d="m 14.833942,21.895771 c -0.3319,0.09799 -0.671861,0.171946 -0.9957,0.293961 -2.197582,0.827999 -4.2284587,2.09478 -5.7345747,3.934694 -0.617496,0.754352 -1.211126,1.562179 -1.565276,2.470433 -0.367319,0.942027 -0.373606,1.987403 -0.56041,2.981105 0.250841,1.057579 0.269355,2.199111 0.752521,3.172735 1.3457,2.711704 3.8941857,4.755425 6.4343037,6.232541 3.446659,2.004285 7.724481,3.414633 11.621412,4.074036 2.532477,0.428521 5.115798,0.465719 7.673697,0.698579 2.927127,-0.20038 5.879446,-0.168709 8.781383,-0.601139 4.342079,-0.64703 9.255577,-2.08548 12.919945,-4.670896 2.59815,-1.833139 4.667385,-4.367233 4.809024,-7.684063 0.06098,-1.427952 -0.596151,-2.79565 -0.894228,-4.193475 C 57.216358,27.320922 56.51482,25.916141 55.496997,24.754203 52.566525,21.4088 48.202321,18.958208 43.986974,17.663505 40.419531,16.5678 39.264709,16.666818 35.567202,16.34824 c -5.768948,0.508235 -3.073175,-0.01485 -8.115477,1.416443 -0.08519,0.04256 0.516655,1.247263 0.60184,1.204706 v 0 c 4.587491,-1.058657 2.265333,-0.734997 6.966434,-0.97125 3.402417,0.265692 4.691721,0.161347 7.955539,1.22322 1.246481,0.405539 2.450095,0.944958 3.619524,1.537081 2.463723,1.247471 5.239187,3.020017 7.200757,4.984842 0.967981,0.969585 1.698075,2.15055 2.547112,3.225825 0.33819,1.125633 1.045808,2.201974 1.014571,3.376898 -0.07506,2.823294 -2.483855,4.822343 -4.651753,6.084154 -1.717432,0.999617 -3.588448,1.74719 -5.490604,2.322179 -4.980197,1.505432 -8.724225,1.606598 -13.846151,2.092024 -2.475595,-0.07622 -4.964311,0.03705 -7.426785,-0.228648 -3.822372,-0.412422 -7.858025,-1.513305 -11.341836,-3.177217 -2.199058,-1.050295 -5.0681687,-2.812957 -6.4437117,-5.008861 -0.490504,-0.783037 -0.539582,-1.767433 -0.809373,-2.651149 0.139299,-0.852771 0.111577,-1.750359 0.417898,-2.558314 0.31503,-0.830924 0.86565,-1.560104 1.409864,-2.262605 1.0055807,-1.298056 2.3251607,-2.400783 3.6417397,-3.365734 0.444602,-0.325859 0.930841,-0.590992 1.387722,-0.8994 0.267313,-0.180444 0.522804,-0.37781 0.784207,-0.566715 0.01626,-0.01094 -0.138517,-0.240892 -0.154777,-0.229948 z"
       id="path1179"
       style="fill:#ffffff;stroke-width:0.264999;stroke-miterlimit:4;stroke-dasharray:none" />
    <path
       d="m 22.999129,12.761212 c -0.127436,3.171066 0.05845,6.362465 0.541261,9.49979 0.08755,0.568874 0.211079,1.131624 0.316616,1.697435 0.330113,0.08857 0.09226,1.288352 0.58642,1.490352 0.08531,0.03487 0.100314,-0.154627 0.150469,-0.231941 -2.65e-4,-0.0054 -0.07672,-3.97e-4 -0.07637,0.005 v 0 c 0.06085,0.05969 0.120817,0.237865 0.182547,0.179082 0.371853,-0.354113 -0.378526,-1.369942 0.06478,-1.539106 -0.250883,-3.722295 -0.553889,-7.46207 -1.321842,-11.118494 -0.0013,-0.03139 -0.445146,-0.01351 -0.443884,0.01788 z"
       id="path1181"
       style="fill:#ffffff;stroke-width:0.264999;stroke-miterlimit:4;stroke-dasharray:none" />
  </g>
</svg>
