<svg height="128" viewBox="0 0 512 512" width="128" xmlns="http://www.w3.org/2000/svg">
 <path d="m471.95 253.05c0 120.9-98.01 218.9-218.9 218.9-120.9 0-218.9-98.01-218.9-218.9 0-120.9 98.01-218.9 218.9-218.9 120.9 0 218.9 98.01 218.9 218.9" fill="#efa369" fill-rule="evenodd"/>
 <path d="m280.66 105.97c-4.603.819-13.264.767-19.469.031h-30.19c-.084 10.703.168 21.614-.125 32.19-24.606-25.938-.032.017-24.656-26.16-2.384 4.225-18.12 9.703-26.906 14.844-59.988 35.792-89.24 114.39-64.28 179.63 11.629 35.764 39.593 61.961 69.03 83.63 55.25 57.46 72.39 75.25 78.56 81.59 111.09-4.786 200.71-92.34 208.72-202.56-77.95-86.62 22.13 23.862-109.94-122.22-14.227-11.361-43.21-33.34-54.16-30.656-.783 4.269.537 14.91-1.813 14.906-24.492-25.17-16.627-17.232-24.781-25.22" fill-opacity=".235"/>
 <g fill-rule="evenodd" transform="translate(0 -540.36)">
  <path d="m256 541.36c-140.83 0-255 114.17-255 255s114.17 255 255 255 255-114.17 255-255-114.17-255-255-255m8.827 44.931c120.9 0 218.9 98 218.9 218.9s-98 218.9-218.9 218.9-218.93-98-218.93-218.9 98.03-218.9 218.93-218.9" fill-opacity=".067"/>
  <g fill-opacity=".129">
   <path d="m256 544.79c-138.94 0-251.57 112.63-251.57 251.57s112.63 251.54 251.57 251.54 251.57-112.6 251.57-251.54-112.63-251.57-251.57-251.57m5.885 38.556c120.9 0 218.9 98 218.9 218.9s-98 218.9-218.9 218.9-218.93-98-218.93-218.9 98.03-218.9 218.93-218.9"/>
   <path d="m256 548.72c-136.77 0-247.64 110.87-247.64 247.64s110.87 247.64 247.64 247.64 247.64-110.87 247.64-247.64-110.87-247.64-247.64-247.64m2.942 31.691c120.9 0 218.9 98 218.9 218.9s-98 218.9-218.9 218.9-218.93-98-218.93-218.9 98.03-218.9 218.93-218.9"/>
  </g>
  <path d="m253.04 548.22c-135.42 0-245.19 109.78-245.19 245.19 0 135.42 109.78 245.19 245.19 245.19 135.42 0 245.19-109.78 245.19-245.19 0-135.42-109.78-245.19-245.19-245.19zm0 26.297c120.9 0 218.9 98 218.9 218.9s-98 218.9-218.9 218.9-218.93-98-218.93-218.9 98.03-218.9 218.93-218.9z" fill="#ffffff" stroke="#000000" stroke-opacity=".31" stroke-width="4.904"/>
 </g>
 <path d="m231 106v151.41h50v-151.41zm-25 5.906c-58.28 20.771-100 76.8-100 142.72 0 83.6 67.16 151.38 150 151.38s150-67.775 150-151.37c0-65.921-41.724-121.95-100-142.72v55.969c29.846 17.457 50 49.43 50 86.75 0 55.733-44.775 100.91-100 100.91-55.22 0-100-45.17-100-100.91 0-37.32 20.15-69.29 50-86.75v-55.969" fill="#ffffff"/>
</svg>
