<?xml version="1.0" encoding="UTF-8" standalone="no"?>
<svg
   xmlns:dc="http://purl.org/dc/elements/1.1/"
   xmlns:cc="http://creativecommons.org/ns#"
   xmlns:rdf="http://www.w3.org/1999/02/22-rdf-syntax-ns#"
   xmlns:svg="http://www.w3.org/2000/svg"
   xmlns="http://www.w3.org/2000/svg"
   xmlns:xlink="http://www.w3.org/1999/xlink"
   xmlns:sodipodi="http://sodipodi.sourceforge.net/DTD/sodipodi-0.dtd"
   xmlns:inkscape="http://www.inkscape.org/namespaces/inkscape"
   style="isolation:isolate"
   viewBox="0 0 48 48"
   width="48pt"
   height="48pt"
   version="1.1"
   id="svg16"
   sodipodi:docname="insomnia.svg"
   inkscape:version="1.0 (4035a4fb49, 2020-05-01)">
  <metadata
     id="metadata22">
    <rdf:RDF>
      <cc:Work
         rdf:about="">
        <dc:format>image/svg+xml</dc:format>
        <dc:type
           rdf:resource="http://purl.org/dc/dcmitype/StillImage" />
        <dc:title></dc:title>
      </cc:Work>
    </rdf:RDF>
  </metadata>
  <defs
     id="defs20">
    <linearGradient
       gradientUnits="userSpaceOnUse"
       gradientTransform="matrix(36.962,-30.624,30.433,36.731,-9.697,20.797)"
       y2="0.5"
       x2="1"
       y1="0.5"
       x1="0"
       id="linearGradient851">
      <stop
         id="stop847"
         style="stop-color:rgb(71,118,230)"
         stop-opacity="1"
         offset="0%" />
      <stop
         id="stop849"
         style="stop-color:rgb(142,84,233)"
         stop-opacity="1"
         offset="98.26086956521739%" />
    </linearGradient>
    <linearGradient
       gradientUnits="userSpaceOnUse"
       gradientTransform="matrix(46.807999,0,0,46.999999,-12.222292,3.8542668)"
       y2="0.88848537"
       x2="0.4954074"
       y1="0.058511149"
       x1="0.48999584"
       id="_lgradient_1"
       spreadMethod="pad">
      <stop
         id="stop2-3"
         style="stop-color:rgb(255,229,59)"
         stop-opacity="1"
         offset="0%" />
      <stop
         id="stop4-6"
         style="stop-color:rgb(255,0,91)"
         stop-opacity="1"
         offset="98.69565217391305%" />
    </linearGradient>
    <linearGradient
       inkscape:collect="always"
       xlink:href="#_lgradient_1"
       id="linearGradient879"
       x1="-0.40372497"
       y1="23.96674"
       x2="48.598225"
       y2="23.96674"
       gradientUnits="userSpaceOnUse"
       gradientTransform="matrix(0.90748767,0,0,0.90748767,2.2292928,2.2172189)" />
    <linearGradient
       inkscape:collect="always"
       xlink:href="#_lgradient_1"
       id="linearGradient887"
       x1="-0.40372497"
       y1="23.96674"
       x2="48.598225"
       y2="23.96674"
       gradientUnits="userSpaceOnUse"
       gradientTransform="matrix(0.90748767,0,0,0.90748767,2.2292928,2.2172189)" />
    <linearGradient
       inkscape:collect="always"
       xlink:href="#_lgradient_1"
       id="linearGradient925"
       x1="19.954615"
       y1="30.871071"
       x2="45.547066"
       y2="17.158087"
       gradientUnits="userSpaceOnUse"
       gradientTransform="matrix(0.81356151,0,0,0.81356151,4.4835271,4.4714111)" />
    <linearGradient
       inkscape:collect="always"
       xlink:href="#_lgradient_1"
       id="linearGradient929"
       gradientUnits="userSpaceOnUse"
       x1="12.662611"
       y1="26.91514"
       x2="25.374683"
       y2="13.503046"
       gradientTransform="matrix(0.81356151,0,0,0.81356151,4.4835271,4.4714111)" />
  </defs>
  <sodipodi:namedview
     inkscape:document-rotation="0"
     pagecolor="#ffffff"
     bordercolor="#666666"
     borderopacity="1"
     objecttolerance="10"
     gridtolerance="10"
     guidetolerance="10"
     inkscape:pageopacity="0"
     inkscape:pageshadow="2"
     inkscape:window-width="1920"
     inkscape:window-height="1052"
     id="namedview18"
     showgrid="false"
     inkscape:zoom="6.5546875"
     inkscape:cx="60.112445"
     inkscape:cy="37.05522"
     inkscape:window-x="1920"
     inkscape:window-y="0"
     inkscape:window-maximized="1"
     inkscape:current-layer="svg16" />
  <linearGradient
     id="_lgradient_2"
     x1="0"
     y1="0.5"
     x2="1"
     y2="0.5"
     gradientUnits="objectBoundingBox"
     spreadMethod="pad"
     xlink:href="#_lgradient_1">
    <stop
       offset="0%"
       stop-opacity="1"
       style="stop-color:rgb(71,118,230)"
       id="stop2" />
    <stop
       offset="98.26086956521739%"
       stop-opacity="1"
       style="stop-color:rgb(142,84,233)"
       id="stop4" />
  </linearGradient>
  <path
     d="m 12.310803,20.522166 c -0.416544,1.39119 -0.587392,2.881634 -0.468612,4.416012 0.519866,6.715951 6.394594,11.746201 13.10973,11.225522 C 31.666244,35.643834 36.696496,29.769107 36.175816,23.053156 35.659205,16.380324 29.85607,11.37204 23.194629,11.820313 c 1.152817,1.140613 1.915123,2.686379 2.050175,4.429028 0.29939,3.861977 -2.592822,7.239884 -6.453984,7.538462 -2.687194,0.208271 -5.140081,-1.129224 -6.480017,-3.265637 z"
     fill-rule="evenodd"
     fill="none"
     vector-effect="non-scaling-stroke"
     stroke-width="3"
     stroke="url(#_lgradient_2)"
     stroke-linejoin="miter"
     stroke-linecap="square"
     stroke-miterlimit="3"
     id="path7"
     style="fill:url(#linearGradient925);fill-opacity:1;stroke:url(#linearGradient929);stroke-width:0;stroke-miterlimit:3;stroke-dasharray:none;stroke-opacity:1" />
  <linearGradient
     id="_lgradient_3"
     x1="0.29295769"
     y1="0.049432281"
     x2="0.80297333"
     y2="0.4968192"
     gradientTransform="matrix(36.962,-30.624,30.433,36.731,-9.697,20.797)"
     gradientUnits="userSpaceOnUse"
     spreadMethod="pad"
     xlink:href="#_lgradient_1">
    <stop
       offset="0%"
       stop-opacity="1"
       style="stop-color:rgb(71,118,230)"
       id="stop9" />
    <stop
       offset="98.26086956521739%"
       stop-opacity="1"
       style="stop-color:rgb(142,84,233)"
       id="stop11" />
  </linearGradient>
  <path
     d="m 31.65458,40.471454 v 0 c 0.911118,-0.416537 1.988306,-0.01452 2.403935,0.89569 v 0 c 0.416537,0.910211 0.01543,1.987398 -0.89569,2.403935 v 0 C 28.805977,45.766645 23.905543,46.26667 19.236519,45.19765 14.567495,44.127722 10.381254,41.550457 7.324836,37.860612 3.6422511,33.416645 1.8726501,27.68223 2.4116978,21.932389 2.9507455,16.182547 5.7557898,10.876466 10.200664,7.1947888 14.644632,3.5122039 20.379046,1.7426029 26.128888,2.2816506 c 5.750749,0.5390476 11.055922,3.344092 14.738507,7.7889664 3.044621,3.675325 4.794258,8.248156 4.992997,13.009743 0.190573,4.767941 -1.184271,9.466004 -3.916716,13.379999 v 0 c -0.575348,0.821276 -1.7088,1.020923 -2.530076,0.446484 v 0 c -0.821276,-0.575348 -1.020924,-1.7088 -0.445576,-2.530076 v 0 c 2.276886,-3.253343 3.424858,-7.174598 3.26877,-11.146671 -0.168793,-3.972981 -1.62894,-7.783522 -4.165368,-10.84357 C 35.00321,8.6821611 30.58193,6.3471953 25.790395,5.8979889 20.99886,5.4487825 16.22003,6.9207275 12.516573,9.9898508 8.8131158,13.058067 6.4772425,17.479347 6.0280361,22.270881 c -0.4492064,4.792443 1.0236461,9.570365 4.0918619,13.273823 2.547318,3.075475 6.038423,5.226221 9.932453,6.113744 3.885862,0.892968 7.972279,0.476431 11.602229,-1.186994 z"
     fill="url(#_lgradient_3)"
     id="path14"
     style="fill:url(#linearGradient879);fill-opacity:1;stroke:url(#linearGradient887);stroke-width:0.907488;stroke-opacity:1" />
</svg>
