<?xml version="1.0" encoding="UTF-8" standalone="no"?>
<svg
   xmlns:dc="http://purl.org/dc/elements/1.1/"
   xmlns:cc="http://creativecommons.org/ns#"
   xmlns:rdf="http://www.w3.org/1999/02/22-rdf-syntax-ns#"
   xmlns:svg="http://www.w3.org/2000/svg"
   xmlns="http://www.w3.org/2000/svg"
   xmlns:sodipodi="http://sodipodi.sourceforge.net/DTD/sodipodi-0.dtd"
   xmlns:inkscape="http://www.inkscape.org/namespaces/inkscape"
   inkscape:version="1.0 (4035a4fb49, 2020-05-01)"
   sodipodi:docname="hibernate.svg"
   id="svg9"
   version="1.1"
   viewBox="0 0 32 32">
  <metadata
     id="metadata15">
    <rdf:RDF>
      <cc:Work
         rdf:about="">
        <dc:format>image/svg+xml</dc:format>
        <dc:type
           rdf:resource="http://purl.org/dc/dcmitype/StillImage" />
      </cc:Work>
    </rdf:RDF>
  </metadata>
  <defs
     id="defs13" />
  <sodipodi:namedview
     inkscape:current-layer="svg9"
     inkscape:window-maximized="1"
     inkscape:window-y="0"
     inkscape:window-x="0"
     inkscape:cy="16"
     inkscape:cx="16"
     inkscape:zoom="26.28125"
     showgrid="false"
     id="namedview11"
     inkscape:window-height="1021"
     inkscape:window-width="1920"
     inkscape:pageshadow="2"
     inkscape:pageopacity="0"
     guidetolerance="10"
     gridtolerance="10"
     objecttolerance="10"
     borderopacity="1"
     bordercolor="#666666"
     pagecolor="#ffffff" />
  <style
     id="current-color-scheme"
     type="text/css">
        .ColorScheme-Text {
            color:#232629;
        }
    </style>
  <g
     style="fill:#ffffff;fill-opacity:1"
     id="g7"
     fill="currentColor"
     class="ColorScheme-Text">
    <path
       style="fill:#ffffff;fill-opacity:1"
       id="path3"
       d="M9.79 5.242l-.868.5 2.146 3.717-3.615-.969-.258.967 4.58 1.227L14.844 16H8.707l-3.353-3.354-.708.708L7.293 16H3v1h4.293l-2.647 2.646.708.708L8.707 17h6.137l-3.069 5.316-4.58 1.227.258.967 3.615-.969-2.146 3.717.867.5 2.147-3.717.968 3.615.965-.26-1.226-4.58L16 17l3.357 5.816-1.226 4.58.965.26.968-3.615 2.147 3.717.867-.5-2.146-3.717 3.615.969.258-.967-4.58-1.227L17.156 17h6.137l3.353 3.354.708-.708L24.707 17H29v-1h-4.293l2.647-2.646-.708-.708L23.293 16H16v-.002l-3.357-5.814 1.226-4.58-.965-.26-.968 3.615zM23 4v1h2.293l-2 2-.293.293V8h4V7h-2.293l2-2L27 4.707V4h-.707z" />
    <path
       style="fill:#ffffff;fill-opacity:1"
       id="path5"
       d="M20 10v1h2.293l-2 2-.293.293V14h4v-1h-2.293l2-2 .293-.293V10h-.707zm-4-5v1h2.293l-2 2-.293.293V9h4V8h-2.293l2-2L20 5.707V5h-.707z" />
  </g>
</svg>
