<?xml version="1.0" encoding="UTF-8" standalone="no"?>
<svg
   xmlns:dc="http://purl.org/dc/elements/1.1/"
   xmlns:cc="http://creativecommons.org/ns#"
   xmlns:rdf="http://www.w3.org/1999/02/22-rdf-syntax-ns#"
   xmlns:svg="http://www.w3.org/2000/svg"
   xmlns="http://www.w3.org/2000/svg"
   xmlns:sodipodi="http://sodipodi.sourceforge.net/DTD/sodipodi-0.dtd"
   xmlns:inkscape="http://www.inkscape.org/namespaces/inkscape"
   height="512"
   viewBox="0 0 512 512"
   width="512"
   id="svg2"
   version="1.1"
   inkscape:version="0.91 r13725"
   sodipodi:docname="sublime-text.svg"
   inkscape:export-filename="/home/erik/Desktop/sublime-text.png"
   inkscape:export-xdpi="2.8125"
   inkscape:export-ydpi="2.8125">
  <metadata
     id="metadata26">
    <rdf:RDF>
      <cc:Work
         rdf:about="">
        <dc:format>image/svg+xml</dc:format>
        <dc:type
           rdf:resource="http://purl.org/dc/dcmitype/StillImage" />
      </cc:Work>
    </rdf:RDF>
  </metadata>
  <defs
     id="defs24" />
  <sodipodi:namedview
     pagecolor="#ffffff"
     bordercolor="#666666"
     borderopacity="1"
     objecttolerance="10"
     gridtolerance="10"
     guidetolerance="10"
     inkscape:pageopacity="0"
     inkscape:pageshadow="2"
     inkscape:window-width="1920"
     inkscape:window-height="1019"
     id="namedview22"
     showgrid="false"
     inkscape:zoom="0.4609375"
     inkscape:cx="256"
     inkscape:cy="252.74576"
     inkscape:window-x="0"
     inkscape:window-y="0"
     inkscape:window-maximized="1"
     inkscape:current-layer="svg2" />
  <path
     d="m471.95 253.05c0 120.9-98.01 218.9-218.9 218.9-120.9 0-218.9-98.01-218.9-218.9 0-120.9 98.01-218.9 218.9-218.9 120.9 0 218.9 98.01 218.9 218.9"
     fill="#777777"
     fill-rule="evenodd"
     id="path4" />
  <path
     d="m262.44 106c-60.36 0-102.97 38.16-102.97 86.09 0 24.09 9.288 42.509 22.781 56.13.118.123.225.253.344.375.246.245.502.477.75.719.087.09.163.192.25.281.08.077.17.142.25.219.104.103.208.21.313.313.147.154.289.316.438.469.079.076.171.143.25.219.104.103.208.21.313.313.147.154.289.316.438.469.079.076.171.143.25.219.194.192.367.404.563.594.113.117.23.228.344.344.021.02.041.042.063.063.419.415.823.844 1.25 1.25.106.104.206.209.313.313.062.064.125.124.188.188.08.077.17.142.25.219.105.104.207.209.313.313.147.154.289.316.438.469.08.077.17.142.25.219.104.103.208.21.313.313.147.154.289.316.438.469.079.076.171.143.25.219.104.103.208.21.313.313.147.154.289.316.438.469.079.076.171.143.25.219.104.103.208.21.313.313.147.154.289.316.438.469.079.076.171.143.25.219.203.207.389.42.594.625.212.205.412.422.625.625.249.245.498.477.75.719.105.104.207.209.313.313.147.154.289.316.438.469.08.077.17.142.25.219.105.104.207.209.313.313.147.154.289.316.438.469.08.077.17.142.25.219.104.103.208.21.313.313.147.154.289.316.438.469.079.076.171.143.25.219.104.103.208.21.313.313.147.154.289.316.438.469.079.076.171.143.25.219.203.207.389.42.594.625.212.205.412.422.625.625.249.245.498.477.75.719.136.135.269.272.406.406.118.123.225.253.344.375.08.077.17.142.25.219.105.104.207.209.313.313.147.154.289.316.438.469.08.077.17.142.25.219.104.103.208.21.313.313.147.154.289.316.438.469.079.076.171.143.25.219.104.103.208.21.313.313.147.154.289.316.438.469.079.076.171.143.25.219.331.327.633.679.969 1 .456.452.91.903 1.375 1.344.011.01.021.021.031.031.118.123.225.253.344.375.08.077.17.142.25.219.105.104.207.209.313.313.147.154.289.316.438.469.08.077.17.142.25.219.104.103.208.21.313.313.147.154.289.316.438.469.079.076.171.143.25.219.104.103.208.21.313.313.147.154.289.316.438.469.079.076.171.143.25.219.104.103.208.21.313.313.147.154.289.316.438.469.079.076.171.143.25.219.203.207.389.42.594.625.212.205.412.422.625.625.106.104.206.209.313.313.062.064.125.123.188.188.08.077.17.142.25.219.105.104.207.209.313.313.147.154.289.316.438.469.08.077.17.142.25.219.104.103.208.21.313.313.147.154.289.316.438.469.079.076.171.143.25.219.104.103.208.21.313.313.147.154.289.316.438.469.079.076.171.143.25.219.104.103.208.21.313.313.147.154.289.316.438.469.079.076.171.143.25.219.203.207.389.42.594.625.212.205.412.422.625.625.249.245.498.477.75.719.105.104.207.209.313.313.147.154.289.316.438.469.08.077.17.142.25.219.105.104.207.209.313.313.147.154.289.316.438.469.08.077.17.142.25.219.104.103.208.21.313.313.147.154.289.316.438.469.079.076.171.143.25.219.104.103.208.21.313.313.147.154.289.316.438.469.079.076.171.143.25.219.331.327.633.679.969 1 .456.452.91.903 1.375 1.344.011.01.021.021.031.031.118.123.225.253.344.375.08.077.17.142.25.219.105.104.207.209.313.313.147.154.289.316.438.469.08.077.17.142.25.219.104.103.208.21.313.313.147.154.289.316.438.469.079.076.171.143.25.219.104.103.208.21.313.313.147.154.289.316.438.469.079.076.171.143.25.219.194.192.367.404.563.594.113.117.23.228.344.344.021.02.041.042.063.063.419.415.823.844 1.25 1.25.106.104.206.209.313.313.062.064.125.123.188.188.08.077.17.142.25.219.105.104.207.209.313.313.147.154.289.316.438.469.08.077.17.142.25.219.104.103.208.21.313.313.147.154.289.316.438.469.079.076.171.143.25.219.104.103.208.21.313.313.147.154.289.316.438.469.079.076.171.143.25.219.104.103.208.21.313.313.147.154.289.316.438.469.079.076.171.143.25.219.203.207.389.42.594.625.212.205.412.422.625.625.249.245.498.477.75.719.105.104.207.209.313.313.147.154.289.316.438.469.08.077.17.142.25.219.105.104.207.209.313.313.147.154.289.316.438.469.08.077.17.142.25.219.104.103.208.21.313.313.147.154.289.316.438.469.079.076.171.143.25.219.104.103.208.21.313.313.147.154.289.316.438.469.079.076.171.143.25.219.203.207.389.42.594.625.212.205.412.422.625.625.249.245.498.477.75.719.136.135.269.272.406.406.118.123.225.253.344.375.08.077.17.142.25.219.105.104.207.209.313.313.147.154.289.316.438.469.08.077.17.142.25.219.104.103.208.21.313.313.147.154.289.316.438.469.079.076.171.143.25.219.104.103.208.21.313.313.147.154.289.316.438.469.079.076.171.143.25.219.331.327.633.679.969 1 .456.452.91.903 1.375 1.344.011.01.021.021.031.031.118.123.225.253.344.375.08.077.17.142.25.219.105.104.207.209.313.313.147.154.289.316.438.469.08.077.17.142.25.219.103.105.209.208.313.313.223.234.462.457.688.688.104.103.208.21.313.313.147.154.289.316.438.469.079.076.171.143.25.219.104.103.208.21.313.313.147.154.289.316.438.469.079.076.171.143.25.219.203.207.389.42.594.625.212.205.412.422.625.625.106.104.206.209.313.313.062.064.125.123.188.188.08.077.17.142.25.219.105.104.207.209.313.313.147.154.289.316.438.469.08.077.17.142.25.219.104.103.208.21.313.313.147.154.289.316.438.469.079.076.171.143.25.219.104.103.208.21.313.313.147.154.289.316.438.469.079.076.171.143.25.219.104.103.208.21.313.313.147.154.289.316.438.469.079.076.171.143.25.219.203.207.389.42.594.625.212.205.412.422.625.625.249.245.498.477.75.719.105.104.207.209.313.313.147.154.289.316.438.469.08.077.17.142.25.219.105.104.207.209.313.313.147.154.289.316.438.469.08.077.17.142.25.219.104.103.208.21.313.313.147.154.289.316.438.469.079.076.171.143.25.219.104.103.208.21.313.313.147.154.289.316.438.469.079.076.171.143.25.219.33.327.633.679.969 1 .456.452.91.903 1.375 1.344.011.01.021.021.031.031.118.123.225.253.344.375.08.077.17.142.25.219.105.104.207.209.313.313.147.154.289.316.438.469.08.077.17.142.25.219.104.103.208.21.313.313.147.154.289.316.438.469.079.076.171.143.25.219.104.103.208.21.313.313.147.154.289.316.438.469.079.076.171.143.25.219.194.192.367.404.563.594.113.117.23.228.344.344.021.02.041.042.063.063.419.415.823.844 1.25 1.25.106.104.206.209.313.313.062.064.125.123.188.188.08.077.17.142.25.219.105.104.207.209.313.313.147.154.289.316.438.469.08.077.17.142.25.219.104.103.208.21.313.313.147.154.289.316.438.469.079.076.171.143.25.219.104.103.208.21.313.313.147.154.289.316.438.469.266.257.512.528.781.781-6.104 2.408-13.837 3.75-23.25 3.75-23.964 0-50.583-12.436-71.44-30.19l-37.28 44.813c.339.319.689.622 1.031.938l-.031.063c.339.319.689.622 1.031.938 0 0-.031.063-.031.063.339.319.689.622 1.031.938 0 0-.031.063-.031.063.336.315.662.626 1 .938l-.031.031c.342.322.686.651 1.031.969l-.031.031c.342.322.686.651 1.031.969l-.031.031c.339.319.689.622 1.031.938l-.031.063c.339.319.689.622 1.031.938 0 0-.031.062-.031.063.339.319.689.622 1.031.938 0 0-.031.062-.031.063.336.315.662.626 1 .938l-.031.031c.342.322.686.651 1.031.969l-.031.031c.342.322.686.651 1.031.969l-.031.031c.339.319.689.622 1.031.938 0 0-.031.062-.031.063.339.319.689.622 1.031.938 0 0-.031.062-.031.063.339.319.689.622 1.031.938 0 0-.031.062-.031.063.341.321.687.62 1.031.938l-.063.063c.339.319.689.622 1.031.938l-.031.031c.342.322.686.651 1.031.969l-.031.031c.342.322.686.651 1.031.969l-.031.031c.339.319.689.622 1.031.938 0 0-.031.062-.031.063.339.319.689.622 1.031.938 0 0-.031.062-.031.063.339.319.689.622 1.031.938l-.031.063c.336.315.662.626 1 .938l-.031.031c.342.322.686.651 1.031.969l-.031.031c.342.322.686.651 1.031.969l-.031.031c.339.319.689.622 1.031.938l-.031.063c.339.319.689.622 1.031.938 0 0-.031.062-.031.063.339.319.689.622 1.031.938 0 0-.031.062-.031.063.336.315.662.626 1 .938l-.031.031c.342.322.686.651 1.031.969l-.031.031c.342.322.686.651 1.031.969l-.031.031c.339.319.689.622 1.031.938 0 0-.031.062-.031.063.339.319.689.622 1.031.938l-.031.063c.339.319.689.622 1.031.938 0 0-.031.062-.031.063.341.321.687.62 1.031.938l-.063.063c.339.319.689.622 1.031.938l-.031.031c.342.322.686.651 1.031.969l-.031.031c.342.322.686.651 1.031.969l-.031.031c.339.319.689.622 1.031.938 0 0-.031.062-.031.063.339.319.689.622 1.031.938 0 0-.031.062-.031.063.341.321.687.62 1.031.938l-.063.063c.339.319.689.622 1.031.938l-.031.031c.342.322.686.651 1.031.969l-.031.031c.342.322.686.651 1.031.969l-.031.031c.339.319.689.622 1.031.938 0 0-.031.062-.031.063.339.319.689.622 1.031.938l-.031.063c.339.319.689.622 1.031.938 0 0-.031.062-.031.063.336.315.662.626 1 .938l-.031.031c.342.322.686.651 1.031.969l-.031.031c.342.322.686.651 1.031.969l-.031.031c.339.319.689.622 1.031.938 0 0-.031.062-.031.063.339.319.689.622 1.031.938 0 0-.031.062-.031.063.339.319.689.622 1.031.938 0 0-.031.062-.031.063.336.315.662.626 1 .938l-.031.031c.342.322.686.651 1.031.969l-.031.031c.342.322.686.651 1.031.969l-.031.031c.339.319.689.622 1.031.938l-.031.063c.339.319.689.622 1.031.938 0 0-.031.062-.031.063.339.319.689.622 1.031.938l-.031.063c.341.321.687.62 1.031.938l-.063.063c.339.319.689.622 1.031.938l-.031.031c.342.322.686.651 1.031.969l-.031.031c.342.322.686.651 1.031.969l-.031.031c.339.319.689.622 1.031.938 0 0-.031.062-.031.063.339.319.689.622 1.031.938 0 0-.031.062-.031.063.339.319.689.622 1.031.938 0 0-.031.062-.031.063.336.315.662.626 1 .938l-.031.031c.342.322.686.651 1.031.969l-.031.031c.342.322.686.651 1.031.969l-.031.031c.339.319.689.622 1.031.938l-.031.063c.339.319.689.622 1.031.938 0 0-.031.062-.031.063.339.319.689.622 1.031.938l-.031.063c.336.315.662.626 1 .938l-.031.031c.342.322.686.651 1.031.969l-.031.031c.342.322.686.651 1.031.969l-.031.031c.339.319.689.622 1.031.938 0 0-.031.062-.031.063.339.319.689.622 1.031.938 0 0-.031.062-.031.063.339.319.689.622 1.031.938 0 0-.031.062-.031.063.341.321.687.62 1.031.938l-.063.063c.339.319.689.622 1.031.938l-.031.031c.342.322.686.651 1.031.969l-.031.031c.339.319.689.622 1.031.938 0 0-.031.062-.031.063.339.319.689.622 1.031.938l-.031.063c.339.319.689.622 1.031.938 0 0-.031.062-.031.063.341.321.687.62 1.031.938l-.063.063c.339.319.689.622 1.031.938l-.031.031c.342.322.686.651 1.031.969l-.031.031c.342.322.686.651 1.031.969l-.031.031c.339.319.689.622 1.031.938 0 0-.031.062-.031.063.339.319.689.622 1.031.938 0 0-.031.062-.031.063.339.319.689.622 1.031.938 0 0-.031.062-.031.063.336.315.662.626 1 .938l-.031.031c.342.322.686.651 1.031.969l-.031.031c.342.322.686.651 1.031.969l-.031.031c.339.319.689.622 1.031.938 0 0-.031.062-.031.063.339.319.689.622 1.031.938l-.031.063c.339.319.689.622 1.031.938 0 0-.031.062-.031.063.336.315.662.626 1 .938l-.031.031c.342.322.686.651 1.031.969l-.031.031c.342.322.686.651 1.031.969l-.031.031c.339.319.689.622 1.031.938 0 0-.031.062-.031.063.339.319.689.622 1.031.938 0 0-.031.062-.031.063.339.319.689.622 1.031.938 0 0-.031.062-.031.063.341.321.687.62 1.031.938l-.063.063c.339.319.689.622 1.031.938l-.031.031c.342.322.686.651 1.031.969l-.031.031c.342.322.686.651 1.031.969l-.031.031c.339.319.689.622 1.031.938 0 0-.031.062-.031.063.064.061.122.128.188.188 117.28-1.346 212.39-94.93 216.22-211.59-.249-.251-.499-.505-.75-.75-.331-.331-.665-.673-1-1-.334-.334-.694-.639-1.031-.969l.031-.031c-.336-.336-.661-.668-1-1-.336-.336-.661-.668-1-1-.325-.325-.64-.647-.969-.969-.331-.331-.665-.673-1-1-.331-.331-.665-.673-1-1-.331-.331-.665-.673-1-1-.336-.336-.661-.668-1-1-.336-.336-.661-.668-1-1-.325-.325-.64-.647-.969-.969-.331-.331-.665-.673-1-1-.331-.331-.665-.673-1-1-.331-.331-.665-.673-1-1-.336-.336-.661-.668-1-1-.336-.336-.661-.668-1-1-.325-.325-.64-.647-.969-.969-.331-.331-.665-.673-1-1-.331-.331-.665-.673-1-1-.331-.331-.665-.673-1-1-.334-.334-.694-.639-1.031-.969l.031-.031c-.336-.336-.661-.668-1-1-.336-.336-.661-.668-1-1-.325-.325-.64-.647-.969-.969-.331-.331-.665-.673-1-1-.331-.331-.665-.673-1-1-.334-.334-.694-.639-1.031-.969l.031-.031c-.336-.336-.661-.668-1-1-.336-.336-.661-.668-1-1-.325-.325-.64-.647-.969-.969-.331-.331-.665-.673-1-1-.331-.331-.665-.673-1-1-.331-.331-.665-.673-1-1-.336-.336-.661-.668-1-1-.336-.336-.661-.668-1-1-.325-.325-.64-.647-.969-.969-.331-.331-.665-.673-1-1-.331-.331-.665-.673-1-1-.331-.331-.665-.673-1-1-.336-.336-.661-.668-1-1-.336-.336-.661-.668-1-1-.331-.331-.666-.642-1-.969-.328-.328-.668-.644-1-.969l.031-.031c-.331-.331-.665-.673-1-1-.331-.331-.665-.673-1-1-.334-.334-.694-.639-1.031-.969l.031-.031c-.336-.336-.661-.668-1-1-.336-.336-.661-.668-1-1-.325-.325-.64-.647-.969-.969-.331-.331-.665-.673-1-1-.331-.331-.665-.673-1-1-.331-.331-.665-.673-1-1-.336-.336-.661-.668-1-1-.336-.336-.661-.668-1-1-.325-.325-.64-.647-.969-.969-.331-.331-.665-.673-1-1-.331-.331-.665-.673-1-1-.331-.331-.665-.673-1-1-.336-.336-.661-.668-1-1-.336-.336-.661-.668-1-1-.325-.325-.64-.647-.969-.969-.331-.331-.665-.673-1-1-.331-.331-.665-.673-1-1-.331-.331-.665-.673-1-1-.334-.334-.694-.639-1.031-.969l.031-.031c-.336-.336-.661-.668-1-1-.331-.331-.666-.642-1-.969-.328-.328-.668-.644-1-.969l.031-.031c-.331-.331-.665-.673-1-1-.331-.331-.665-.673-1-1-.334-.334-.694-.639-1.031-.969l.031-.031c-.336-.336-.661-.668-1-1-.336-.336-.661-.668-1-1-.325-.325-.64-.647-.969-.969-.331-.331-.665-.673-1-1-.331-.331-.665-.673-1-1-.331-.331-.665-.673-1-1-.336-.336-.661-.668-1-1-.336-.336-.661-.668-1-1-.325-.325-.64-.647-.969-.969-.331-.331-.665-.673-1-1-.331-.331-.665-.673-1-1-.331-.331-.665-.673-1-1-.336-.336-.661-.668-1-1-.336-.336-.661-.668-1-1-.331-.331-.666-.642-1-.969-.328-.328-.668-.644-1-.969l.031-.031c-.331-.331-.665-.673-1-1-.331-.331-.665-.673-1-1-.334-.334-.694-.639-1.031-.969l.031-.031c-.336-.336-.661-.668-1-1-.336-.336-.661-.668-1-1-.325-.325-.64-.647-.969-.969-.331-.331-.665-.673-1-1-.331-.331-.665-.673-1-1-.331-.331-.665-.673-1-1-.336-.336-.661-.668-1-1-.336-.336-.661-.668-1-1-.325-.325-.64-.647-.969-.969-.331-.331-.665-.673-1-1-.331-.331-.665-.673-1-1-.331-.331-.665-.673-1-1-.336-.336-.661-.668-1-1-.336-.336-.661-.668-1-1-.325-.325-.64-.647-.969-.969-.331-.331-.665-.673-1-1-.331-.331-.665-.673-1-1-.331-.331-.665-.673-1-1-.334-.334-.694-.639-1.031-.969l.031-.031c-.336-.336-.661-.668-1-1-.331-.331-.666-.642-1-.969-.328-.328-.668-.644-1-.969l.031-.031c-.331-.331-.665-.673-1-1-.331-.331-.665-.673-1-1-.334-.334-.694-.639-1.031-.969l.031-.031c-.336-.336-.661-.668-1-1-24.852-24.852-59.907-38.16-93.19-38.16"
     fill-opacity=".235"
     id="path6" />
  <g
     fill-rule="evenodd"
     id="g8">
    <path
       d="m256 1c-140.83 0-255 114.17-255 255s114.17 255 255 255 255-114.17 255-255-114.17-255-255-255m8.827 44.931c120.9 0 218.9 98 218.9 218.9s-98 218.9-218.9 218.9-218.93-98-218.93-218.9 98.03-218.9 218.93-218.9"
       fill-opacity=".067"
       id="path10" />
    <g
       fill-opacity=".129"
       id="g12">
      <path
         d="m256 4.433c-138.94 0-251.57 112.63-251.57 251.57s112.63 251.57 251.57 251.57 251.57-112.63 251.57-251.57-112.63-251.57-251.57-251.57m5.885 38.556c120.9 0 218.9 98 218.9 218.9s-98 218.9-218.9 218.9-218.93-98-218.93-218.9 98.03-218.9 218.93-218.9"
         id="path14" />
      <path
         d="m256 8.356c-136.77 0-247.64 110.87-247.64 247.64s110.87 247.64 247.64 247.64 247.64-110.87 247.64-247.64-110.87-247.64-247.64-247.64m2.942 31.691c120.9 0 218.9 98 218.9 218.9s-98 218.9-218.9 218.9-218.93-98-218.93-218.9 98.03-218.9 218.93-218.9"
         id="path16" />
    </g>
    <path
       d="m253.04 7.859c-135.42 0-245.19 109.78-245.19 245.19 0 135.42 109.78 245.19 245.19 245.19 135.42 0 245.19-109.78 245.19-245.19 0-135.42-109.78-245.19-245.19-245.19zm0 26.297c120.9 0 218.9 98 218.9 218.9s-98 218.9-218.9 218.9-218.93-98-218.93-218.9 98.03-218.9 218.93-218.9z"
       fill="#ffffff"
       stroke="#000000"
       stroke-opacity=".31"
       stroke-width="4.904"
       id="path18" />
  </g>
  <path
     d="m185.22 319.46c20.855 17.751 47.49 30.18 71.45 30.18 27.07 0 40.38-10.654 40.38-27.959 0-18.2-16.417-23.964-41.716-34.615l-37.72-15.98c-29.737-11.982-58.14-36.834-58.14-78.997 0-47.929 42.607-86.09 102.97-86.09 33.28 0 68.35 13.314 93.2 38.17l-33.29 41.27c-19.08-14.645-36.838-23.08-59.911-23.08-22.633 0-36.838 9.763-36.838 26.18 0 17.751 19.08 23.964 43.942 34.17l37.28 15.09c35.06 14.201 57.25 37.725 57.25 78.55 0 47.932-39.944 89.64-109.18 89.64-37.719 0-77.66-14.198-106.95-41.716l37.28-44.819"
     fill="#ffffff"
     id="path20" />
</svg>
