<?xml version="1.0" encoding="UTF-8" standalone="no"?>
<svg
   width="256"
   height="256"
   viewBox="0 0 256 256"
   version="1.1"
   id="svg12"
   sodipodi:docname="cancel.svg"
   inkscape:version="1.3.2 (091e20ef0f, 2023-11-25, custom)"
   xmlns:inkscape="http://www.inkscape.org/namespaces/inkscape"
   xmlns:sodipodi="http://sodipodi.sourceforge.net/DTD/sodipodi-0.dtd"
   xmlns="http://www.w3.org/2000/svg"
   xmlns:svg="http://www.w3.org/2000/svg"
   xmlns:rdf="http://www.w3.org/1999/02/22-rdf-syntax-ns#"
   xmlns:cc="http://creativecommons.org/ns#"
   xmlns:dc="http://purl.org/dc/elements/1.1/">
  <metadata
     id="metadata16">
    <rdf:RDF>
      <cc:Work
         rdf:about="">
        <dc:format>image/svg+xml</dc:format>
        <dc:type
           rdf:resource="http://purl.org/dc/dcmitype/StillImage" />
        <dc:title>action-unavailable</dc:title>
      </cc:Work>
    </rdf:RDF>
  </metadata>
  <sodipodi:namedview
     pagecolor="#ffffff"
     bordercolor="#666666"
     borderopacity="1"
     objecttolerance="10"
     gridtolerance="10"
     guidetolerance="10"
     inkscape:pageopacity="0"
     inkscape:pageshadow="2"
     inkscape:window-width="3440"
     inkscape:window-height="1364"
     id="namedview14"
     showgrid="false"
     inkscape:zoom="3.4766083"
     inkscape:cx="90.030274"
     inkscape:cy="124.97813"
     inkscape:window-x="0"
     inkscape:window-y="40"
     inkscape:window-maximized="1"
     inkscape:current-layer="svg12"
     inkscape:pagecheckerboard="true"
     inkscape:showpageshadow="2"
     inkscape:deskcolor="#d1d1d1" />
  <!-- Generator: Sketch 51.3 (57544) - http://www.bohemiancoding.com/sketch -->
  <title
     id="title2">action-unavailable</title>
  <desc
     id="desc4">Created with Sketch.</desc>
  <defs
     id="defs6" />
  <g
     id="action-unavailable"
     style="fill:#ffffff;fill-opacity:1;fill-rule:evenodd;stroke:none;stroke-width:1"
     transform="matrix(18.285714,0,0,18.285714,-91.42857,-91.42857)">
    <g
       id="60"
       transform="translate(5,5)"
       style="fill:#ffffff;fill-opacity:1;fill-rule:nonzero">
      <path
         d="m 7,0 c 3.863,0 7,3.137 7,7 0,3.863 -3.137,7 -7,7 C 3.137,14 0,10.863 0,7 0,3.137 3.137,0 7,0 Z m 0,13 c 3.313709,0 6,-2.686291 6,-6 C 13,3.6862915 10.313709,1 7,1 3.6862915,1 1,3.6862915 1,7 c 0,3.313709 2.6862915,6 6,6 z"
         id="Combined-Shape"
         style="fill:#ffffff;fill-opacity:1"
         inkscape:connector-curvature="0" />
      <rect
         id="Rectangle-4"
         transform="rotate(44,7.115347,7.050773)"
         x="6.6153469"
         y="0.55077314"
         width="1"
         height="13"
         style="fill:#ffffff;fill-opacity:1" />
    </g>
  </g>
</svg>
