<?xml version="1.0" encoding="UTF-8"?>
<svg width="60" height="60" fill="none" version="1.1" viewBox="0 0 60 60" xmlns="http://www.w3.org/2000/svg">
 <g stroke-width=".11799">
  <path d="m50.346 42.511c0.27964 0.15755 0.38617 0.52527 0.23085 0.81719-2.7292 5.1314-6.959 9.1984-12.063 11.585-5.279 2.4687-11.189 2.9977-16.785 1.5026-5.5969-1.495-10.558-4.928-14.092-9.7509-3.534-4.8229-5.4368-10.758-5.4046-16.857 0.032148-6.0991 1.9974-12.011 5.582-16.792 3.5846-4.781 8.5819-8.1554 14.194-9.5845 5.6122-1.4291 11.516-0.83062 16.769 1.7 5.0783 2.4467 9.265 6.5631 11.94 11.726 0.1521 0.29386 0.04182 0.66026-0.23958 0.81441l-1.7312 0.94903c-0.28136 0.15426-0.62712 0.03785-0.78025-0.25554-2.3553-4.514-6.0263-8.1127-10.475-10.256-4.6225-2.2271-9.8179-2.7538-14.757-1.4961-4.939 1.2577-9.3368 4.2273-12.491 8.4348-3.1546 4.2075-4.8841 9.4102-4.9124 14.778-0.028265 5.3676 1.6462 10.59 4.7563 14.835 3.11 4.2444 7.4763 7.2655 12.402 8.5813 4.9254 1.3158 10.126 0.85018 14.772-1.3223 4.4706-2.0906 8.1793-5.646 10.582-10.132 0.15612-0.29144 0.50314-0.40387 0.78289-0.24632z" fill="url(#paint0_linear)"/>
  <path d="m44.775 39.374c0.27975 0.15755 0.38639 0.52539 0.22913 0.8161-2.064 3.8162-5.2316 6.8409-9.045 8.6242-3.9885 1.8652-8.4535 2.2649-12.682 1.1352-4.2286-1.1296-7.9773-3.7235-10.647-7.3674-2.6701-3.644-4.1078-8.1279-4.0835-12.736 0.024315-4.6082 1.5091-9.075 4.2174-12.687 2.7084-3.6122 6.4841-6.1618 10.724-7.2416 4.2405-1.0798 8.701-0.6276 12.67 1.2844 3.7943 1.8281 6.9298 4.8898 8.9534 8.7301 0.15417 0.29253 0.04373 0.65916-0.23763 0.81344l-1.8892 1.0355c-0.28135 0.15427-0.62688 0.03756-0.78277-0.25396-1.6853-3.1541-4.2753-5.6686-7.4033-7.1756-3.3024-1.5911-7.0141-1.9674-10.543-1.0688-3.5285 0.89857-6.6704 3.02-8.924 6.0259-2.2536 3.006-3.4892 6.7229-3.5095 10.557-0.02023 3.8347 1.1761 7.5659 3.398 10.598 2.2218 3.0322 5.3411 5.1906 8.8599 6.1305 3.5188 0.94006 7.2343 0.60738 10.553-0.94466 3.1437-1.4702 5.76-3.9541 7.4784-7.0881 0.15887-0.28974 0.50566-0.40229 0.78542-0.24475z" fill="url(#paint1_linear)"/>
  <path d="m47.515 33.697v4.0803c0 1.0309 1.1284 1.6039 1.8902 0.96006l9.3846-7.932c0.58223-0.49216 0.58223-1.4276 0-1.9198l-9.3846-7.9318c-0.76154-0.64389-1.8902-0.07081-1.8902 0.95982v4.0804c0 0.67869-0.52093 1.2292-1.1634 1.2292h-17.53c-0.64238 0-1.1634 0.55038-1.1634 1.2292v2.7862c0 0.67906 0.52105 1.2292 1.1637 1.2292h17.53c0.6425 0 1.1634 0.5505 1.1634 1.2293z" fill="url(#paint2_linear)"/>
 </g>
 <defs>
  <linearGradient id="paint0_linear" x1="9" x2="429" y1="256" y2="256" gradientTransform="matrix(.11479 0 0 .12128 1.2558 -1.0877)" gradientUnits="userSpaceOnUse">
   <stop stop-color="#FD3A84" offset="0"/>
   <stop stop-color="#FFA68D" offset="1"/>
  </linearGradient>
  <linearGradient id="paint1_linear" x1="64" x2="368.5" y1="256" y2="256" gradientTransform="matrix(.11479 0 0 .12128 1.2558 -1.0877)" gradientUnits="userSpaceOnUse">
   <stop stop-color="#FD3A84" offset="0"/>
   <stop stop-color="#FFA68D" offset="1"/>
  </linearGradient>
  <linearGradient id="paint2_linear" x1="229.96" x2="511.03" y1="252.49" y2="252.49" gradientTransform="matrix(.11479 0 0 .12128 1.2558 -1.0877)" gradientUnits="userSpaceOnUse">
   <stop stop-color="#FD3A84" offset="0"/>
   <stop stop-color="#FFA68D" offset="1"/>
  </linearGradient>
 </defs>
</svg>
