<?xml version="1.0" encoding="UTF-8"?>
<svg width="60" height="60" fill="none" version="1.1" viewBox="0 0 60 60" xmlns="http://www.w3.org/2000/svg">
 <path d="m17.995 9.3012c-3.8324 2.0857-7.0201 5.107-9.2386 8.7566-2.2185 3.6497-3.3889 7.7971-3.392 12.021 0 6.3414 2.6285 12.423 7.3072 16.908 4.6789 4.4841 11.025 7.0038 17.642 7.0048 4.4007-0.0054 8.7215-1.1265 12.524-3.2488 3.8028-2.1228 6.9522-5.1709 9.1289-8.8363 0.01024-6e-3 0.02089-0.01183 0.03109-0.01788l-2.3064-2.2062c-0.0039 0.0062-0.0083 0.01225-0.01264 0.01788-3.0939 1.5323-6.5258 2.3327-10.009 2.3348-5.7898-0.0017-11.342-2.2067-15.435-6.1308-4.0935-3.9238-6.3931-9.2449-6.3931-14.793 0.0045-3.343 0.84446-6.6363 2.45-9.6042zm-2.322 5.2937c-0.62912 2.1197-0.94943 4.3126-0.95191 6.5165 0 6.3414 2.6284 12.423 7.3074 16.908 4.6787 4.4844 11.024 7.004 17.642 7.005 2.3105-0.0076 4.6086-0.32235 6.8289-0.93559-2.0441 2.1725-4.5404 3.9101-7.3281 5.1012-2.7879 1.1906-5.8053 1.8085-8.8575 1.8124-5.79-0.0015-11.342-2.2064-15.435-6.1306-4.0934-3.9236-6.3929-9.2447-6.3929-14.793 5e-3 -2.9187 0.64699-5.8039 1.8849-8.4706 1.2378-2.6667 3.0441-5.0554 5.3028-7.0133z" fill="url(#paint0_linear)" stroke-width=".48577"/>
 <path d="m26.738 13.465v3.331h7.4256l-6.4768 6.6619-0.9488 0.97581v2.3552h12.954v-3.331h-7.4256l6.4768-6.6619 0.9488-0.97591v-2.3551h-2.2897zm16.192-9.9929v3.331h7.4258l-7.4258 7.6378v2.3551h12.954v-3.331h-7.4254l6.4767-6.6619 0.9487-0.976v-2.355h-2.2899z" fill="url(#paint1_linear)" stroke-width=".48577"/>
 <defs>
  <linearGradient id="paint0_linear" x1="60" x2="60" y1="116" y2="24" gradientTransform="matrix(.48577 0 0 .48577 -.46489 -2.3572)" gradientUnits="userSpaceOnUse">
   <stop stop-color="#02AA93" offset="0"/>
   <stop stop-color="#67FF80" offset="1"/>
  </linearGradient>
  <linearGradient id="paint1_linear" x1="86" x2="86" y1="60" y2="12" gradientTransform="matrix(.48577 0 0 .48577 -.46489 -2.3572)" gradientUnits="userSpaceOnUse">
   <stop stop-color="#00B59C" offset="0"/>
   <stop stop-color="#9CFFAC" offset="1"/>
  </linearGradient>
 </defs>
</svg>
