<?xml version="1.0" encoding="UTF-8"?>
<svg width="48" height="48" version="1.1" xmlns="http://www.w3.org/2000/svg">
 <path d="m32.474 3.6189-8.011 7.5013 12.366 7.3436 8.8234-6.9606-13.179-7.8842zm-17.376 0.38295-12.637 7.9293 8.169 6.5552 12.118-7.6815-7.6499-6.8029zm-4.0619 15.003-8.688 7.2084 13.291 8.4248 7.7628-7.6364-12.366-7.9968zm26.064 0.38295-12.253 7.749 8.3044 7.5013 12.502-8.2897-8.5526-6.9606zm-12.502 10.209-0.27079 14.327 12.502-8.1545-0.1354-1.1714-3.8137 2.7482-8.2818-7.749zm-1.3314 0.5181-7.5145 7.6364-4.8517-3.6718-0.1354 2.0949 12.389 7.5013 0.11283-13.561z" fill="#ffffff"/>
</svg>
