<?xml version="1.0" encoding="UTF-8" standalone="no"?>
<svg
   viewBox="0 0 256 256"
   version="1.1"
   id="svg8"
   sodipodi:docname="shutdown.svg"
   inkscape:version="1.3.2 (091e20ef0f, 2023-11-25, custom)"
   width="256"
   height="256"
   xmlns:inkscape="http://www.inkscape.org/namespaces/inkscape"
   xmlns:sodipodi="http://sodipodi.sourceforge.net/DTD/sodipodi-0.dtd"
   xmlns="http://www.w3.org/2000/svg"
   xmlns:svg="http://www.w3.org/2000/svg"
   xmlns:rdf="http://www.w3.org/1999/02/22-rdf-syntax-ns#"
   xmlns:cc="http://creativecommons.org/ns#"
   xmlns:dc="http://purl.org/dc/elements/1.1/">
  <metadata
     id="metadata12">
    <rdf:RDF>
      <cc:Work
         rdf:about="">
        <dc:format>image/svg+xml</dc:format>
        <dc:type
           rdf:resource="http://purl.org/dc/dcmitype/StillImage" />
        <dc:title />
      </cc:Work>
    </rdf:RDF>
  </metadata>
  <sodipodi:namedview
     pagecolor="#ffffff"
     bordercolor="#666666"
     borderopacity="1"
     objecttolerance="10"
     gridtolerance="10"
     guidetolerance="10"
     inkscape:pageopacity="0"
     inkscape:pageshadow="2"
     inkscape:window-width="3440"
     inkscape:window-height="1364"
     id="namedview10"
     showgrid="false"
     inkscape:zoom="9.8333333"
     inkscape:cx="106.77966"
     inkscape:cy="128.08475"
     inkscape:window-x="0"
     inkscape:window-y="40"
     inkscape:window-maximized="1"
     inkscape:current-layer="svg8"
     inkscape:pagecheckerboard="true"
     inkscape:showpageshadow="2"
     inkscape:deskcolor="#d1d1d1" />
  <defs
     id="defs3051">
    <style
       type="text/css"
       id="current-color-scheme">
      .ColorScheme-Text {
        color:#232629;
      }
      </style>
  </defs>
  <g
     transform="matrix(16,0,0,16,-48,-48)"
     id="g6"
     style="fill:#ffffff;fill-opacity:1">
    <path
       style="color:#232629;fill:#ffffff;fill-opacity:1;stroke:none"
       d="m 10,3 v 7 h 2 V 3 Z M 9,3.265625 C 5.5444518,4.1502188 3,7.2610109 3,11 c 0,4.432 3.568,8 8,8 4.432,0 8,-3.568 8,-8 C 19,7.2610109 16.455548,4.1502188 13,3.265625 V 4.3027344 C 15.895041,5.15992 18,7.819625 18,11 18,14.878 14.878,18 11,18 7.122,18 4,14.878 4,11 4,7.819625 6.1049587,5.15992 9,4.3027344 Z"
       class="ColorScheme-Text"
       id="path4"
       inkscape:connector-curvature="0" />
  </g>
</svg>
