<svg height="128" viewBox="0 0 512 512" width="128" xmlns="http://www.w3.org/2000/svg" xmlns:xlink="http://www.w3.org/1999/xlink">
 <g transform="translate(0 -540.36)">
  <path d="m471.95 793.41c0 120.9-98.01 218.9-218.9 218.9-120.9 0-218.9-98.01-218.9-218.9 0-120.9 98.01-218.9 218.9-218.9 120.9 0 218.9 98.01 218.9 218.9" fill="#d52f61" fill-rule="evenodd"/>
  <path d="m285.69 112.38c-.238.013-.493.061-.75.094-1.423.185-2.945.838-3.406 1.469-.636.87-.844 5.607-.844 19.625 0 6.754-.036 13.02-.063 19.09h-128.72c-13.85 0-25 11.15-25 25v5.563c0 7.358 3.161 13.964 8.188 18.531.173.175.322.361.5.531.358.384.743.733 1.125 1.094.325.344.656.675 1 1 .437.463.873.916 1.344 1.344.328.333.654.686 1 1 .326.331.656.687 1 1 .336.342.644.709 1 1.031.168.17.327.335.5.5.358.384.743.733 1.125 1.094.437.463.873.916 1.344 1.344.088.09.16.193.25.281.01.011.021.02.031.031.233.229.477.468.719.688.327.332.655.687 1 1 .336.342.644.709 1 1.031.168.17.327.335.5.5.358.384.743.733 1.125 1.094.437.463.873.916 1.344 1.344.088.09.16.193.25.281.01.011.021.02.031.031.233.229.477.468.719.688.327.332.655.687 1 1 .326.331.656.687 1 1 .173.175.322.361.5.531.358.384.743.733 1.125 1.094.325.344.656.675 1 1 .437.463.873.916 1.344 1.344.328.333.654.686 1 1 .326.331.656.687 1 1 .336.342.644.709 1 1.031.168.17.327.335.5.5.358.384.743.733 1.125 1.094.437.463.873.916 1.344 1.344.088.09.16.193.25.281.01.011.021.02.031.031.233.229.477.468.719.688.327.332.655.687 1 1 .336.342.644.709 1 1.031.168.17.327.335.5.5.358.384.743.733 1.125 1.094.437.463.873.916 1.344 1.344.088.09.16.193.25.281.01.011.021.02.031.031.233.229.477.468.719.688.327.332.655.687 1 1 .326.331.656.687 1 1 .173.175.322.361.5.531.358.384.743.733 1.125 1.094.325.344.656.675 1 1 .437.463.873.916 1.344 1.344.328.333.654.686 1 1 .326.331.656.687 1 1 .173.175.322.361.5.531.358.384.743.733 1.125 1.094.325.344.656.675 1 1 .437.463.873.916 1.344 1.344.328.333.654.686 1 1 .326.331.656.687 1 1 .336.342.644.709 1 1.031.168.17.327.335.5.5.358.384.743.733 1.125 1.094.437.463.873.916 1.344 1.344.088.09.16.193.25.281.01.011.021.02.031.031.233.229.477.468.719.688.327.332.655.687 1 1 .336.342.644.709 1 1.031.168.17.327.335.5.5.358.384.743.733 1.125 1.094.437.463.873.916 1.344 1.344.088.09.16.193.25.281.01.011.021.02.031.031.233.229.477.468.719.688.327.332.655.687 1 1 .326.331.656.687 1 1 .173.175.322.361.5.531.358.384.743.733 1.125 1.094.325.344.656.675 1 1 .437.463.873.916 1.344 1.344.328.333.654.686 1 1 .326.331.656.687 1 1 .326.331.625.687.969 1 .213.216.435.416.656.625.325.344.656.675 1 1 .371.393.729.788 1.125 1.156l-66.59 44.31c-13.235 8.332-14 9.05-14 13.03 0 2.249.634 3.77 2.438 5.313.284.334.611.67 1 1 .269.313.607.628.969.938.301.355.672.712 1.094 1.063.241.274.499.573.813.844.293.354.681.682 1.094 1.031.254.297.536.613.875.906.304.366.692.733 1.125 1.094.256.293.566.585.906.875.256.305.56.606.906.906.279.343.639.663 1.031 1 .29.351.652.685 1.063 1.031.258.304.556.606.906.906.3.363.662.735 1.094 1.094.246.284.548.563.875.844.274.336.582.67.969 1 .266.325.628.618 1 .938.298.365.66.734 1.094 1.094.258.302.554.608.906.906.273.327.617.646 1 .969.234.28.529.536.844.813.299.387.674.777 1.125 1.156.268.322.624.62 1 .938.272.329.582.676.969 1 .275.33.641.643 1.031.969.264.314.568.659.938.969.256.311.578.6.938.906.29.361.665.708 1.094 1.063.268.319.589.653.969.969.273.327.61.646 1 .969.274.326.609.647 1 .969.223.265.481.551.781.813.273.356.653.683 1.063 1.031.271.342.632.664 1.031 1 .255.317.572.627.938.938.268.338.637.668 1.031 1 .269.334.606.672 1 1 .24.298.535.583.875.875.28.365.665.706 1.094 1.063.26.322.59.652.969.969.264.33.61.644 1 .969.241.299.562.581.906.875.275.364.636.707 1.063 1.063.252.317.568.626.938.938.278.356.636.713 1.063 1.063.241.296.561.584.906.875.274.351.642.718 1.063 1.063.248.304.578.607.938.906.253.324.591.62.969.938.259.336.605.671 1 1 .284.364.647.736 1.094 1.094.235.284.539.564.875.844.258.331.606.675 1 1 .261.334.6.641 1 .969.249.32.561.624.938.938.262.342.623.665 1.031 1 .278.356.623.713 1.063 1.063.242.296.551.584.906.875.252.323.583.652.969.969.247.324.587.621.969.938.22.292.515.559.844.844.065.085.163.167.25.25.19.234.426.458.688.688.137.19.313.376.563.563.121.128.231.279.375.406.14.2.331.367.594.563.123.131.259.276.406.406.142.198.333.4.594.594.1.106.196.207.313.313.155.244.392.451.719.688.077.08.133.17.219.25.176.294.487.557.906.844.027.026.035.068.063.094.176.302.481.613.906.906.022.021.04.041.063.063.177.306.478.61.906.906.172.334.516.652.969.969.175.339.509.647.969.969.175.353.493.666.969 1 .175.34.517.616.969.938.18.363.513.689 1 1.031.186.341.506.643.969.969.186.341.51.674.969 1 .189.338.514.646.969.969.183.328.509.625.938.938.19.368.544.684 1.031 1.031.192.336.491.647.938.969.194.348.539.668 1 1 .198.337.519.645.969.969.202.348.533.666 1 1 .198.329.504.621.938.938.205.354.529.692 1 1.031.2.324.513.625.938.938.205.352.538.663 1 1 .212.352.53.692 1 1.031.207.322.514.626.938.938.213.344.545.668 1 1 .215.334.526.645.969.969.214.337.526.674.969 1 .219.337.552.641 1 .969.214.326.513.652.938.969.217.343.524.637.969.969.228.36.554.682 1.031 1.031.22.324.514.622.938.938.223.341.525.669.969 1 .225.341.555.669 1 1 .227.331.535.646.969.969.229.335.53.673.969 1 .213.305.521.609.906.906.236.369.583.706 1.063 1.063.234.332.532.644.969.969.237.335.559.672 1 1 .238.335.528.64.969.969.227.319.53.626.938.938.232.335.542.643.969.969.234.338.538.671.969 1 .233.338.541.672.969 1 .234.332.548.645.969.969.253.36.589.71 1.063 1.063.215.28.494.569.844.844.241.357.584.686 1.031 1.031.229.32.541.626.938.938.233.335.556.675.969 1 .241.345.568.664 1 1 .237.334.555.644.969.969.249.351.586.688 1.031 1.031.238.318.537.625.938.938.241.336.552.673.969 1 .242.331.557.646.969.969.239.327.566.65.969.969.236.323.543.654.938.969.245.343.578.666 1 1 .233.318.554.627.938.938.243.341.586.668 1 1 .241.329.569.648.969.969.25.346.576.694 1 1.031.256.344.602.663 1.031 1 .233.303.539.609.906.906.249.344.552.696.969 1.031.25.335.591.641 1 .969.246.327.571.649.969.969.235.313.535.632.906.938.255.355.603.686 1.031 1.031.24.319.557.626.938.938.253.344.586.696 1 1.031.236.309.572.604.938.906.152.209.348.426.563.625 111.89-5.783 201.55-95.59 207.13-207.53-.091-.085-.18-.16-.281-.25-.27-.314-.606-.649-1-1-.27-.314-.606-.649-1-1-.269-.313-.608-.651-1-1-.264-.307-.587-.627-.969-.969-.269-.316-.606-.647-1-1-.304-.357-.659-.75-1.125-1.156-.236-.26-.524-.558-.844-.844-.273-.319-.63-.643-1.031-1-.269-.313-.608-.651-1-1-.271-.316-.603-.647-1-1-.264-.307-.587-.627-.969-.969-.286-.336-.633-.684-1.063-1.063-.263-.301-.561-.602-.938-.938-.27-.314-.606-.649-1-1-.269-.313-.608-.651-1-1-.267-.31-.612-.623-1-.969-.267-.313-.579-.651-.969-1-.286-.336-.633-.684-1.063-1.063-.259-.297-.537-.608-.906-.938-.273-.319-.63-.643-1.031-1-.269-.313-.608-.651-1-1-.263-.306-.589-.629-.969-.969-.27-.317-.604-.646-1-1-.269-.316-.606-.647-1-1-.274-.322-.596-.64-1-1-.27-.314-.606-.649-1-1-.27-.314-.606-.649-1-1-.269-.313-.608-.651-1-1-.264-.307-.587-.627-.969-.969-.269-.316-.606-.647-1-1-.308-.362-.682-.744-1.156-1.156-.236-.26-.493-.558-.813-.844-.273-.319-.63-.643-1.031-1-.269-.313-.608-.651-1-1-.263-.306-.589-.629-.969-.969-.27-.317-.604-.646-1-1-.286-.336-.633-.684-1.063-1.063-.263-.301-.561-.602-.938-.938-.27-.314-.606-.649-1-1-.269-.313-.608-.651-1-1-.267-.31-.612-.623-1-.969-.267-.313-.579-.651-.969-1-.269-.316-.606-.647-1-1-.27-.317-.572-.645-.969-1-.273-.319-.63-.643-1.031-1-.269-.313-.608-.651-1-1-.269-.313-.608-.651-1-1-.264-.307-.587-.627-.969-.969-.269-.316-.606-.647-1-1-.304-.357-.659-.75-1.125-1.156-.24-.264-.548-.553-.875-.844-.27-.314-.606-.649-1-1-.269-.313-.608-.651-1-1-.264-.307-.587-.627-.969-.969-.269-.316-.606-.647-1-1-.286-.336-.633-.684-1.063-1.063-.259-.297-.537-.608-.906-.938-.273-.319-.63-.643-1.031-1-.269-.313-.608-.651-1-1-.263-.306-.589-.629-.969-.969-.27-.317-.604-.646-1-1-.286-.336-.633-.684-1.063-1.063-.263-.301-.561-.602-.938-.938-.27-.314-.606-.649-1-1-.269-.313-.608-.651-1-1-.267-.31-.612-.623-1-.969-.267-.313-.579-.651-.969-1-.269-.316-.606-.647-1-1-.27-.317-.572-.645-.969-1-.269-.315-.607-.648-1-1-.273-.319-.63-.643-1.031-1-.269-.313-.608-.651-1-1-.264-.307-.587-.627-.969-.969-.269-.316-.606-.647-1-1-.304-.357-.659-.75-1.125-1.156-.24-.264-.548-.553-.875-.844-.27-.314-.606-.649-1-1-.269-.313-.608-.651-1-1-.271-.316-.603-.647-1-1-.264-.307-.587-.627-.969-.969-.286-.336-.633-.684-1.063-1.063-.259-.297-.537-.608-.906-.938-.273-.319-.63-.643-1.031-1-.269-.313-.608-.651-1-1-.263-.306-.589-.629-.969-.969-.27-.317-.604-.646-1-1-.286-.336-.633-.684-1.063-1.063-.263-.301-.561-.602-.938-.938-1.572-1.831-5.05-4.108-12.719-8.938l-79.78-53.22c-2.621-1.409-3.957-1.872-5.625-1.781" fill-opacity=".235" transform="translate(0 540.36)"/>
  <g fill-rule="evenodd">
   <path d="m256 541.36c-140.83 0-255 114.17-255 255s114.17 255 255 255 255-114.17 255-255-114.17-255-255-255m8.827 44.931c120.9 0 218.9 98 218.9 218.9s-98 218.9-218.9 218.9-218.93-98-218.93-218.9 98.03-218.9 218.93-218.9" fill-opacity=".067"/>
   <g fill-opacity=".129">
    <path d="m256 544.79c-138.94 0-251.57 112.63-251.57 251.57s112.63 251.54 251.57 251.54 251.57-112.6 251.57-251.54-112.63-251.57-251.57-251.57m5.885 38.556c120.9 0 218.9 98 218.9 218.9s-98 218.9-218.9 218.9-218.93-98-218.93-218.9 98.03-218.9 218.93-218.9"/>
    <path d="m256 548.72c-136.77 0-247.64 110.87-247.64 247.64s110.87 247.64 247.64 247.64 247.64-110.87 247.64-247.64-110.87-247.64-247.64-247.64m2.942 31.691c120.9 0 218.9 98 218.9 218.9s-98 218.9-218.9 218.9-218.93-98-218.93-218.9 98.03-218.9 218.93-218.9"/>
   </g>
   <path d="m253.04 548.22c-135.42 0-245.19 109.78-245.19 245.19 0 135.42 109.78 245.19 245.19 245.19 135.42 0 245.19-109.78 245.19-245.19 0-135.42-109.78-245.19-245.19-245.19zm0 26.297c120.9 0 218.9 98 218.9 218.9s-98 218.9-218.9 218.9-218.93-98-218.93-218.9 98.03-218.9 218.93-218.9z" fill="#ffffff" stroke="#000000" stroke-opacity=".31" stroke-width="4.904"/>
  </g>
  <g fill="#ffffff" transform="translate(0 -4.546)">
   <g transform="translate(-36.908 -71.02)">
    <path id="a" d="m322.59 728.3c-.238.013-.493.06-.75.094-1.423.185-2.945.838-3.406 1.469-.636.87-.844 5.607-.844 19.625 0 41.513-.66 69.39 0 92.16 0 15.297.204 20.312.844 21.19.461.631 2.048 1.301 3.531 1.5 2.245.301 3.332.02 6.5-1.781 30.782-20.631 54.33-36.34 87.53-58.53 4.671-2.625 6-4.335 6-7.688 0-3.983-.765-4.699-14-13.03l-79.78-53.22c-2.621-1.409-3.957-1.872-5.625-1.781" fill="#ffffff"/>
    <rect id="b" fill="#ffffff" fill-rule="evenodd" height="55.56" rx="25" width="184.35" x="163.82" y="768.58"/>
   </g>
   <g transform="matrix(-1 0 0 1 548.91 80.11)">
    <use height="1" width="1" xlink:href="#a"/>
    <use height="1" width="1" xlink:href="#b"/>
   </g>
  </g>
 </g>
</svg>
