<?xml version="1.0" encoding="UTF-8" standalone="no"?>
<svg
   inkscape:version="1.3.2 (091e20ef0f, 2023-11-25, custom)"
   sodipodi:docname="cancel.svg"
   id="svg6"
   version="1.1"
   viewBox="0 0 256 256"
   width="256"
   height="256"
   xmlns:inkscape="http://www.inkscape.org/namespaces/inkscape"
   xmlns:sodipodi="http://sodipodi.sourceforge.net/DTD/sodipodi-0.dtd"
   xmlns="http://www.w3.org/2000/svg"
   xmlns:svg="http://www.w3.org/2000/svg"
   xmlns:rdf="http://www.w3.org/1999/02/22-rdf-syntax-ns#"
   xmlns:cc="http://creativecommons.org/ns#"
   xmlns:dc="http://purl.org/dc/elements/1.1/">
  <metadata
     id="metadata10">
    <rdf:RDF>
      <cc:Work
         rdf:about="">
        <dc:format>image/svg+xml</dc:format>
        <dc:type
           rdf:resource="http://purl.org/dc/dcmitype/StillImage" />
      </cc:Work>
    </rdf:RDF>
  </metadata>
  <sodipodi:namedview
     inkscape:current-layer="svg6"
     inkscape:window-maximized="1"
     inkscape:window-y="40"
     inkscape:window-x="0"
     inkscape:cy="174.87753"
     inkscape:cx="270.91558"
     inkscape:zoom="3.2851563"
     showgrid="false"
     id="namedview8"
     inkscape:window-height="1364"
     inkscape:window-width="3440"
     inkscape:pageshadow="2"
     inkscape:pageopacity="0"
     guidetolerance="10"
     gridtolerance="10"
     objecttolerance="10"
     borderopacity="1"
     bordercolor="#666666"
     pagecolor="#ffffff"
     inkscape:showpageshadow="2"
     inkscape:pagecheckerboard="0"
     inkscape:deskcolor="#d1d1d1" />
  <defs
     id="defs3051">
    <style
       id="current-color-scheme"
       type="text/css">
      .ColorScheme-Text {
        color:#232629;
      }
      </style>
  </defs>
  <path
     id="path4"
     class="ColorScheme-Text"
     d="M 128,0 A 128,128 0 0 0 41.458336,33.916672 l -0.01834,-0.01801 A 128,128 0 0 0 41.04166,34.291664 128,128 0 0 0 0,128 128,128 0 0 0 128,256 128,128 0 0 0 214.54165,222.08333 l 0.0717,0.018 a 128,128 0 0 0 0.34496,-0.393 A 128,128 0 0 0 256,128 128,128 0 0 0 128,0 m 0,10.66667 A 117.33333,117.33333 0 0 1 245.33333,128 117.33333,117.33333 0 0 1 214.56245,207.02083 L 48.981333,41.44 A 117.33333,117.33333 0 0 1 128,10.66667 M 41.44,48.981333 207.01867,214.61333 A 117.33333,117.33333 0 0 1 128,245.33333 117.33333,117.33333 0 0 1 10.66667,128 117.33333,117.33333 0 0 1 41.437504,48.979168"
     style="fill:#ffffff;fill-opacity:1;stroke:none;stroke-width:10.6667" />
</svg>
