<?xml version="1.0" encoding="UTF-8" standalone="no"?>
<svg
   inkscape:version="1.3.2 (091e20ef0f, 2023-11-25, custom)"
   sodipodi:docname="hibernate.svg"
   id="svg9"
   version="1.1"
   viewBox="0 0 256.00009 233.925"
   width="256.00009"
   height="233.925"
   xmlns:inkscape="http://www.inkscape.org/namespaces/inkscape"
   xmlns:sodipodi="http://sodipodi.sourceforge.net/DTD/sodipodi-0.dtd"
   xmlns="http://www.w3.org/2000/svg"
   xmlns:svg="http://www.w3.org/2000/svg"
   xmlns:rdf="http://www.w3.org/1999/02/22-rdf-syntax-ns#"
   xmlns:cc="http://creativecommons.org/ns#"
   xmlns:dc="http://purl.org/dc/elements/1.1/">
  <metadata
     id="metadata15">
    <rdf:RDF>
      <cc:Work
         rdf:about="">
        <dc:format>image/svg+xml</dc:format>
        <dc:type
           rdf:resource="http://purl.org/dc/dcmitype/StillImage" />
      </cc:Work>
    </rdf:RDF>
  </metadata>
  <defs
     id="defs13" />
  <sodipodi:namedview
     inkscape:current-layer="svg9"
     inkscape:window-maximized="1"
     inkscape:window-y="40"
     inkscape:window-x="0"
     inkscape:cy="262.69679"
     inkscape:cx="-22.525565"
     inkscape:zoom="1.6425781"
     showgrid="false"
     id="namedview11"
     inkscape:window-height="1364"
     inkscape:window-width="3440"
     inkscape:pageshadow="2"
     inkscape:pageopacity="0"
     guidetolerance="10"
     gridtolerance="10"
     objecttolerance="10"
     borderopacity="1"
     bordercolor="#666666"
     pagecolor="#ffffff"
     inkscape:showpageshadow="2"
     inkscape:pagecheckerboard="0"
     inkscape:deskcolor="#d1d1d1" />
  <style
     id="current-color-scheme"
     type="text/css">
        .ColorScheme-Text {
            color:#232629;
        }
    </style>
  <g
     style="fill:#ffffff;fill-opacity:1"
     id="g7"
     fill="currentColor"
     class="ColorScheme-Text"
     transform="matrix(9.8461571,0,0,9.8461571,-29.538471,-39.384628)">
    <path
       style="fill:#ffffff;fill-opacity:1"
       id="path3"
       d="M 9.79,5.242 8.922,5.742 11.068,9.459 7.453,8.49 7.195,9.457 11.775,10.684 14.844,16 H 8.707 L 5.354,12.646 4.646,13.354 7.293,16 H 3 v 1 H 7.293 L 4.646,19.646 5.354,20.354 8.707,17 h 6.137 l -3.069,5.316 -4.58,1.227 0.258,0.967 3.615,-0.969 -2.146,3.717 0.867,0.5 2.147,-3.717 0.968,3.615 0.965,-0.26 -1.226,-4.58 L 16,17 l 3.357,5.816 -1.226,4.58 0.965,0.26 0.968,-3.615 2.147,3.717 0.867,-0.5 -2.146,-3.717 3.615,0.969 0.258,-0.967 -4.58,-1.227 L 17.156,17 h 6.137 l 3.353,3.354 0.708,-0.708 L 24.707,17 H 29 V 16 H 24.707 L 27.354,13.354 26.646,12.646 23.293,16 H 16 v -0.002 l -3.357,-5.814 1.226,-4.58 -0.965,-0.26 -0.968,3.615 z M 23,4 v 1 h 2.293 l -2,2 L 23,7.293 V 8 h 4 V 7 h -2.293 l 2,-2 L 27,4.707 V 4 h -0.707 z" />
    <path
       style="fill:#ffffff;fill-opacity:1"
       id="path5"
       d="m 20,10 v 1 h 2.293 l -2,2 L 20,13.293 V 14 h 4 v -1 h -2.293 l 2,-2 L 24,10.707 V 10 H 23.293 Z M 16,5 v 1 h 2.293 l -2,2 L 16,8.293 V 9 h 4 V 8 h -2.293 l 2,-2 L 20,5.707 V 5 h -0.707 z" />
  </g>
</svg>
