<?xml version="1.0" encoding="UTF-8" standalone="no"?>
<svg
   inkscape:version="1.3.2 (091e20ef0f, 2023-11-25, custom)"
   sodipodi:docname="lock.svg"
   id="svg16"
   version="1.1"
   viewBox="0 0 256 256"
   width="256"
   height="256"
   xmlns:inkscape="http://www.inkscape.org/namespaces/inkscape"
   xmlns:sodipodi="http://sodipodi.sourceforge.net/DTD/sodipodi-0.dtd"
   xmlns="http://www.w3.org/2000/svg"
   xmlns:svg="http://www.w3.org/2000/svg"
   xmlns:rdf="http://www.w3.org/1999/02/22-rdf-syntax-ns#"
   xmlns:cc="http://creativecommons.org/ns#"
   xmlns:dc="http://purl.org/dc/elements/1.1/">
  <metadata
     id="metadata20">
    <rdf:RDF>
      <cc:Work
         rdf:about="">
        <dc:format>image/svg+xml</dc:format>
        <dc:type
           rdf:resource="http://purl.org/dc/dcmitype/StillImage" />
      </cc:Work>
    </rdf:RDF>
  </metadata>
  <sodipodi:namedview
     inkscape:current-layer="svg16"
     inkscape:window-maximized="1"
     inkscape:window-y="40"
     inkscape:window-x="0"
     inkscape:cy="177.14496"
     inkscape:cx="50.79734"
     inkscape:zoom="2.3229563"
     showgrid="false"
     id="namedview18"
     inkscape:window-height="1364"
     inkscape:window-width="3440"
     inkscape:pageshadow="2"
     inkscape:pageopacity="0"
     guidetolerance="10"
     gridtolerance="10"
     objecttolerance="10"
     borderopacity="1"
     bordercolor="#666666"
     pagecolor="#ffffff"
     inkscape:showpageshadow="2"
     inkscape:pagecheckerboard="0"
     inkscape:deskcolor="#d1d1d1" />
  <defs
     id="defs3051">
    <style
       id="current-color-scheme"
       type="text/css">
      .ColorScheme-Text {
        color:#232629;
      }
      </style>
  </defs>
  <path
     id="path14"
     class="ColorScheme-Text"
     d="M 128,0 C 57.307552,0 0,57.307552 0,128 0,198.69245 57.307552,256 128,256 198.69245,256 256,198.69245 256,128 256,57.307552 198.69245,0 128,0 Z m 0,10.66667 c 64.80141,0 117.33333,52.531922 117.33333,117.33333 0,64.80141 -52.53192,117.33333 -117.33333,117.33333 C 63.198592,245.33333 10.66667,192.80141 10.66667,128 10.66667,63.198592 63.198592,10.66667 128,10.66667 Z m 0,31.999997 c -23.63733,0 -42.666667,19.029333 -42.666667,42.666666 V 128 H 64 v 10.66667 74.66666 H 74.666667 181.33333 192 V 128 H 181.33333 170.66667 V 85.333333 C 170.66667,61.696 151.63733,42.666667 128,42.666667 Z m 0,10.666666 c 17.728,0 32,16.650667 32,37.333334 V 128 H 96 V 90.666667 C 96,69.984 110.272,53.333333 128,53.333333 Z M 74.666667,138.66667 H 181.33333 v 64 H 74.666667 Z"
     style="fill:#ffffff;fill-opacity:1;stroke:none;stroke-width:10.6667" />
</svg>
