<?xml version="1.0" encoding="UTF-8" standalone="no"?>
<svg
   inkscape:version="1.3.2 (091e20ef0f, 2023-11-25, custom)"
   sodipodi:docname="reboot.svg"
   id="svg58"
   viewBox="0 0 256 256"
   version="1.1"
   width="256"
   height="256"
   xmlns:inkscape="http://www.inkscape.org/namespaces/inkscape"
   xmlns:sodipodi="http://sodipodi.sourceforge.net/DTD/sodipodi-0.dtd"
   xmlns="http://www.w3.org/2000/svg"
   xmlns:svg="http://www.w3.org/2000/svg"
   xmlns:rdf="http://www.w3.org/1999/02/22-rdf-syntax-ns#"
   xmlns:cc="http://creativecommons.org/ns#"
   xmlns:dc="http://purl.org/dc/elements/1.1/">
  <metadata
     id="metadata62">
    <rdf:RDF>
      <cc:Work
         rdf:about="">
        <dc:format>image/svg+xml</dc:format>
        <dc:type
           rdf:resource="http://purl.org/dc/dcmitype/StillImage" />
      </cc:Work>
    </rdf:RDF>
  </metadata>
  <sodipodi:namedview
     inkscape:current-layer="svg58"
     inkscape:window-maximized="1"
     inkscape:window-y="40"
     inkscape:window-x="0"
     inkscape:cy="130.4352"
     inkscape:cx="14.002378"
     inkscape:zoom="3.2851563"
     showgrid="false"
     id="namedview60"
     inkscape:window-height="1364"
     inkscape:window-width="3440"
     inkscape:pageshadow="2"
     inkscape:pageopacity="0"
     guidetolerance="10"
     gridtolerance="10"
     objecttolerance="10"
     borderopacity="1"
     bordercolor="#666666"
     pagecolor="#ffffff"
     inkscape:showpageshadow="2"
     inkscape:pagecheckerboard="0"
     inkscape:deskcolor="#d1d1d1" />
  <defs
     id="defs54">
    <style
       id="current-color-scheme"
       type="text/css">
            .ColorScheme-Text {
                color:#232629;
            }
        </style>
  </defs>
  <path
     id="path56"
     d="M 0,128 A 128,128 0 0 1 17.833333,63.104171 L 75.208331,120.45834 67.625003,128 20.645835,81.020832 A 117.33333,117.33333 0 0 0 10.66667,128 117.33333,117.33333 0 0 0 128,245.33333 117.33333,117.33333 0 0 0 185.08333,230.35417 l 7.77083,7.8125 A 128,128 0 0 1 128,256 128,128 0 0 1 0,128 Z M 63.104171,17.833333 A 128,128 0 0 1 128,0 128,128 0 0 1 256,128 128,128 0 0 1 238.16667,192.89583 L 180.79167,135.54166 188.33333,128 235.3125,175 A 117.33333,117.33333 0 0 0 245.33333,128 117.33333,117.33333 0 0 0 128,10.66667 117.33333,117.33333 0 0 0 70.916672,25.645835 Z"
     class="ColorScheme-Text"
     style="fill:#ffffff;fill-opacity:1;stroke:none;stroke-width:10.6667" />
</svg>
