<svg height="128" viewBox="0 0 512 512" width="128" xmlns="http://www.w3.org/2000/svg">
 <path d="m471.95 253.05c0 120.9-98.01 218.9-218.9 218.9-120.9 0-218.9-98.01-218.9-218.9 0-120.9 98.01-218.9 218.9-218.9 120.9 0 218.9 98.01 218.9 218.9" fill="#CF0808" fill-rule="evenodd"/>
 <path d="m254.75 109.38c-38.38 0-77.25 25.62-77.25 64.5v70.75h-28.438v158h .969v1h1v1h1v1h1v1h1v1h1v .969h.97v1h1v1h1v1h1v1h1v1h1v .969h1v1h .969v1h1v1h1v1h1v1h1v .969h1v1h .969v1h1v1h1v1h1v1h1v .969h1v1h .969v1h1v1h1v1h1v1h1v1h1v .969h.969v1h1v1h1v1h1v1h1v1h1v .969h1v1h .969v1h1v1h1v1h1v1h1v .969h1v1h .969v1h1v1h1v1h1v1h1v .969h1v1h .969v1h1v1h1v1h1v1h1v1h1v .969h.969v1h1v1h1v1h1v1h1v1h1v .969h1v1h .969v1h1v1h1v1h1v .469c12.13 2.083 24.589 3.188 37.31 3.188 109.52 0 200.27-80.46 216.38-185.47-.084-.093-.164-.191-.25-.281-.214-.207-.439-.42-.656-.625-.115-.122-.227-.253-.344-.375-.216-.208-.437-.419-.656-.625-.116-.123-.227-.253-.344-.375-.095-.092-.185-.19-.281-.281-.094-.094-.186-.188-.281-.281-.021-.021-.042-.041-.063-.063-.32-.34-.671-.665-1-1-.116-.123-.227-.253-.344-.375-.215-.208-.437-.419-.656-.625-.33-.323-.662-.65-1-.969-.115-.122-.227-.253-.344-.375-.214-.207-.439-.42-.656-.625-.115-.122-.227-.253-.344-.375-.214-.207-.439-.42-.656-.625-.115-.122-.227-.253-.344-.375-.053-.051-.103-.105-.156-.156-.094-.094-.187-.188-.281-.281-.061-.063-.126-.125-.188-.188-.32-.34-.671-.665-1-1-.436-.462-.892-.921-1.344-1.375-.068-.066-.15-.122-.219-.188-.472-.471-.948-.945-1.438-1.406-.115-.122-.227-.253-.344-.375-.214-.207-.439-.42-.656-.625-.115-.122-.227-.253-.344-.375-.053-.051-.103-.105-.156-.156-.094-.094-.187-.188-.281-.281-.061-.063-.126-.125-.188-.188-.32-.34-.671-.665-1-1-.436-.462-.892-.921-1.344-1.375-.068-.066-.15-.122-.219-.188-.472-.471-.948-.945-1.438-1.406-.115-.122-.227-.253-.344-.375-.214-.207-.439-.42-.656-.625-.115-.122-.227-.253-.344-.375-.216-.208-.437-.419-.656-.625-.116-.123-.227-.253-.344-.375-.095-.092-.185-.19-.281-.281-.094-.094-.186-.188-.281-.281-.021-.021-.042-.041-.063-.063-.32-.34-.671-.665-1-1-.116-.123-.227-.253-.344-.375-.215-.208-.437-.419-.656-.625-.33-.323-.662-.65-1-.969-.115-.122-.227-.253-.344-.375-.214-.207-.439-.42-.656-.625-.115-.122-.227-.253-.344-.375-.216-.208-.437-.419-.656-.625-.116-.123-.227-.253-.344-.375-.095-.092-.185-.19-.281-.281-.094-.094-.186-.188-.281-.281-.021-.021-.042-.041-.063-.063-.32-.34-.671-.665-1-1-.115-.122-.227-.253-.344-.375-.215-.208-.437-.419-.656-.625-.118-.121-.224-.255-.344-.375-.068-.066-.15-.122-.219-.188-.472-.471-.948-.945-1.438-1.406-.115-.122-.227-.253-.344-.375-.214-.207-.439-.42-.656-.625-.115-.122-.227-.253-.344-.375-.053-.051-.103-.105-.156-.156-.094-.094-.187-.188-.281-.281-.061-.063-.126-.125-.188-.188-.32-.34-.671-.665-1-1-.436-.462-.892-.921-1.344-1.375-.068-.066-.15-.122-.219-.188-.472-.471-.948-.945-1.438-1.406-.115-.122-.227-.253-.344-.375-.214-.207-.439-.42-.656-.625-.115-.122-.227-.253-.344-.375-.217-.209-.436-.418-.656-.625-.116-.123-.227-.253-.344-.375-.095-.092-.185-.19-.281-.281-.094-.094-.186-.188-.281-.281-.021-.021-.042-.041-.063-.063-.32-.34-.671-.665-1-1-.116-.123-.227-.253-.344-.375-.215-.208-.437-.419-.656-.625-.33-.323-.662-.65-1-.969-.115-.122-.227-.253-.344-.375-.214-.207-.439-.42-.656-.625-.115-.122-.227-.253-.344-.375-.216-.208-.437-.419-.656-.625-.116-.123-.227-.253-.344-.375-.095-.092-.185-.19-.281-.281-.094-.094-.186-.188-.281-.281-.021-.021-.042-.041-.063-.063-.32-.34-.671-.665-1-1-.116-.123-.227-.253-.344-.375-.215-.208-.437-.419-.656-.625-.33-.323-.662-.65-1-.969-.115-.122-.227-.253-.344-.375-.214-.207-.439-.42-.656-.625-.115-.122-.227-.253-.344-.375-.214-.207-.439-.42-.656-.625-.115-.122-.227-.253-.344-.375-.053-.051-.103-.105-.156-.156-.094-.094-.187-.188-.281-.281-.061-.063-.126-.125-.188-.188-.32-.34-.671-.665-1-1-.436-.462-.892-.921-1.344-1.375-.068-.066-.15-.122-.219-.188-.472-.471-.948-.945-1.438-1.406-.115-.122-.227-.253-.344-.375-.214-.207-.439-.42-.656-.625-.115-.122-.227-.253-.344-.375-.053-.051-.103-.105-.156-.156-.094-.094-.187-.188-.281-.281-.061-.063-.126-.125-.188-.188-.32-.34-.671-.665-1-1-.436-.462-.892-.921-1.344-1.375-.068-.066-.15-.122-.219-.188-.472-.471-.948-.945-1.438-1.406-.115-.122-.227-.253-.344-.375-.214-.207-.439-.42-.656-.625-.115-.122-.227-.253-.344-.375-.216-.208-.437-.419-.656-.625-.116-.123-.227-.253-.344-.375-.095-.092-.185-.19-.281-.281-.094-.094-.186-.188-.281-.281-.021-.021-.042-.041-.063-.063-.32-.34-.671-.665-1-1-.116-.123-.227-.253-.344-.375-.215-.208-.437-.419-.656-.625-.33-.323-.662-.65-1-.969-.115-.122-.227-.253-.344-.375-.214-.207-.439-.42-.656-.625-.115-.122-.227-.253-.344-.375-.216-.208-.437-.419-.656-.625-.116-.123-.227-.253-.344-.375-.095-.092-.185-.19-.281-.281-.094-.094-.186-.188-.281-.281-.021-.021-.042-.041-.063-.063-.32-.34-.671-.665-1-1-.116-.123-.227-.253-.344-.375-.215-.208-.437-.419-.656-.625-.33-.323-.662-.65-1-.969-.115-.122-.227-.253-.344-.375-.214-.207-.439-.42-.656-.625-.115-.122-.227-.253-.344-.375-.214-.207-.439-.42-.656-.625-.115-.122-.227-.253-.344-.375-.053-.051-.103-.105-.156-.156-.094-.094-.187-.188-.281-.281-.061-.063-.126-.125-.188-.188-.32-.34-.671-.665-1-1-.436-.462-.892-.921-1.344-1.375-.068-.066-.15-.122-.219-.188-.472-.471-.948-.945-1.438-1.406-.115-.122-.227-.253-.344-.375-.214-.207-.439-.42-.656-.625-.115-.122-.227-.253-.344-.375-.217-.209-.436-.418-.656-.625-.116-.123-.227-.253-.344-.375-.095-.092-.185-.19-.281-.281-.094-.094-.186-.188-.281-.281-.021-.021-.042-.041-.063-.063-.436-.462-.892-.921-1.344-1.375-.068-.066-.15-.122-.219-.188-.472-.471-.948-.945-1.438-1.406-.115-.122-.227-.253-.344-.375-.214-.207-.439-.42-.656-.625-.115-.122-.227-.253-.344-.375-.216-.208-.437-.419-.656-.625-.116-.123-.227-.253-.344-.375-.095-.092-.185-.19-.281-.281-.094-.094-.186-.188-.281-.281-.021-.021-.042-.041-.063-.063-.32-.34-.671-.665-1-1-.116-.123-.227-.253-.344-.375-.215-.208-.437-.419-.656-.625-.33-.323-.662-.65-1-.969-.115-.122-.227-.253-.344-.375-.214-.207-.439-.42-.656-.625-.115-.122-.227-.253-.344-.375-.214-.207-.439-.42-.656-.625-.116-.123-.227-.253-.344-.375-.095-.092-.185-.19-.281-.281-.094-.094-.186-.188-.281-.281-.021-.021-.042-.041-.063-.063-.32-.34-.671-.665-1-1-.115-.122-.227-.253-.344-.375-.215-.208-.437-.419-.656-.625-.118-.121-.224-.255-.344-.375-.068-.066-.15-.122-.219-.188-.472-.471-.948-.945-1.438-1.406-.115-.122-.227-.253-.344-.375-.214-.207-.439-.42-.656-.625-.115-.122-.227-.253-.344-.375-.053-.051-.103-.105-.156-.156-.094-.094-.187-.188-.281-.281-.061-.063-.126-.125-.188-.188-.32-.34-.671-.665-1-1-.436-.462-.892-.921-1.344-1.375-.068-.066-.15-.122-.219-.188-.472-.471-.948-.945-1.438-1.406-.115-.122-.227-.253-.344-.375-.214-.207-.439-.42-.656-.625-.115-.122-.227-.253-.344-.375-.217-.209-.436-.418-.656-.625-.116-.123-.227-.253-.344-.375-.095-.092-.185-.19-.281-.281-.094-.094-.186-.188-.281-.281-.021-.021-.042-.041-.063-.063-.32-.34-.671-.665-1-1-.116-.123-.227-.253-.344-.375-.215-.208-.437-.419-.656-.625-.33-.323-.662-.65-1-.969-.115-.122-.227-.253-.344-.375-.214-.207-.439-.42-.656-.625-.115-.122-.227-.253-.344-.375-.216-.208-.437-.419-.656-.625-.116-.123-.227-.253-.344-.375-.095-.092-.185-.19-.281-.281-.094-.094-.186-.188-.281-.281-.021-.021-.042-.041-.063-.063-.32-.34-.671-.665-1-1-.116-.123-.227-.253-.344-.375-.215-.208-.437-.419-.656-.625-.33-.323-.662-.65-1-.969-.115-.122-.227-.253-.344-.375-.214-.207-.439-.42-.656-.625-.115-.122-.227-.253-.344-.375-.214-.207-.439-.42-.656-.625-.115-.122-.227-.253-.344-.375-.053-.051-.103-.105-.156-.156-.094-.094-.187-.188-.281-.281-.061-.063-.126-.125-.188-.188-.32-.34-.671-.665-1-1-.436-.462-.892-.921-1.344-1.375-.068-.066-.15-.122-.219-.188-.472-.471-.948-.945-1.438-1.406-.115-.122-.227-.253-.344-.375-.214-.207-.439-.42-.656-.625-.115-.122-.227-.253-.344-.375-.217-.209-.436-.418-.656-.625-.116-.123-.227-.253-.344-.375-.095-.092-.185-.19-.281-.281-.094-.094-.186-.188-.281-.281-.021-.021-.042-.041-.063-.063-.436-.462-.892-.921-1.344-1.375-.068-.066-.15-.122-.219-.188-.472-.471-.948-.945-1.438-1.406-.115-.122-.227-.253-.344-.375-.214-.207-.439-.42-.656-.625-.115-.122-.227-.253-.344-.375-.216-.208-.437-.419-.656-.625-.116-.123-.227-.253-.344-.375-.095-.092-.185-.19-.281-.281-.094-.094-.186-.188-.281-.281-.021-.021-.042-.041-.063-.063-.32-.34-.671-.665-1-1-.116-.123-.227-.253-.344-.375-.215-.208-.437-.419-.656-.625-.33-.323-.662-.65-1-.969-.115-.122-.227-.253-.344-.375-.214-.207-.439-.42-.656-.625-.115-.122-.227-.253-.344-.375-.214-.207-.439-.42-.656-.625-.116-.123-.227-.253-.344-.375-.095-.092-.185-.19-.281-.281-.094-.094-.186-.188-.281-.281-.021-.021-.042-.041-.063-.063-.32-.34-.671-.665-1-1-.115-.122-.227-.253-.344-.375-.215-.208-.437-.419-.656-.625-.118-.121-.224-.255-.344-.375-.068-.066-.15-.122-.219-.188-.472-.471-.948-.945-1.438-1.406-.115-.122-.227-.253-.344-.375-.214-.207-.439-.42-.656-.625-.115-.122-.227-.253-.344-.375-.053-.051-.103-.105-.156-.156-.094-.094-.187-.188-.281-.281-.061-.063-.126-.125-.188-.188-.32-.34-.671-.665-1-1-.436-.462-.892-.921-1.344-1.375-.068-.066-.15-.122-.219-.188-.472-.471-.948-.945-1.438-1.406-.115-.122-.227-.253-.344-.375-.214-.207-.439-.42-.656-.625-.115-.122-.227-.253-.344-.375-.217-.209-.436-.418-.656-.625-.116-.123-.227-.253-.344-.375-.063-.061-.124-.126-.188-.188-.143-.149-.293-.29-.438-.438-.127-.124-.247-.252-.375-.375-13.66-13.717-34.662-23.594-61.16-23.594" fill-opacity=".235" fill-rule="evenodd"/>
 <path d="m256 1c-140.83 0-255 114.17-255 255 0 140.83 114.17 255 255 255 140.83 0 255-114.17 255-255 0-140.83-114.17-255-255-255m8.827 44.931c120.9 0 218.9 98 218.9 218.9 0 120.9-98 218.9-218.9 218.9-120.9 0-218.93-98-218.93-218.9 0-120.9 98.03-218.9 218.93-218.9" fill-opacity=".067" fill-rule="evenodd"/>
 <g fill-opacity=".129" fill-rule="evenodd">
  <path d="m256 4.433c-138.94 0-251.57 112.63-251.57 251.57 0 138.94 112.63 251.57 251.57 251.57 138.94 0 251.57-112.63 251.57-251.57 0-138.94-112.63-251.57-251.57-251.57m5.885 38.556c120.9 0 218.9 98 218.9 218.9 0 120.9-98 218.9-218.9 218.9-120.9 0-218.93-98-218.93-218.9 0-120.9 98.03-218.9 218.93-218.9"/>
  <path d="m256 8.356c-136.77 0-247.64 110.87-247.64 247.64 0 136.77 110.87 247.64 247.64 247.64 136.77 0 247.64-110.87 247.64-247.64 0-136.77-110.87-247.64-247.64-247.64m2.942 31.691c120.9 0 218.9 98 218.9 218.9 0 120.9-98 218.9-218.9 218.9-120.9 0-218.93-98-218.93-218.9 0-120.9 98.03-218.9 218.93-218.9"/>
 </g>
 <path d="m253.04 7.859c-135.42 0-245.19 109.78-245.19 245.19 0 135.42 109.78 245.19 245.19 245.19 135.42 0 245.19-109.78 245.19-245.19 0-135.42-109.78-245.19-245.19-245.19zm0 26.297c120.9 0 218.9 98 218.9 218.9 0 120.9-98 218.9-218.9 218.9-120.9 0-218.93-98-218.93-218.9 0-120.9 98.03-218.9 218.93-218.9z" fill="#ffffff" fill-rule="evenodd" stroke="#000000" stroke-opacity=".31" stroke-width="4.904"/>
 <path d="m254.75 109.37c-38.38 0-77.24 25.637-77.24 64.52v70.74h-28.461v158.01h213.9v-158.01h-29.32v-72.7c0-29.22-30.22-62.56-78.886-62.56m-.55 35.438c20.665-.108 43.17 14.316 43.17 36.3v63.52h-84.73l.034-.034v-63.21c0-23.843 23.745-36.48 41.522-36.573m.963 134.47c11.824 0 21.414 9.59 21.414 21.414 0 7.05-3.436 13.286-8.696 17.19l8.49 47.641h-42.04l8.421-47.4c-5.441-3.882-9.01-10.234-9.01-17.427 0-11.824 9.59-21.414 21.414-21.414" fill="#ffffff" fill-rule="evenodd"/>
</svg>
