<?xml version="1.0" encoding="UTF-8" standalone="no"?>
<svg
   width="256"
   height="256"
   viewBox="0 0 256 256"
   version="1.1"
   id="svg12"
   sodipodi:docname="reboot.svg"
   inkscape:version="1.3.2 (091e20ef0f, 2023-11-25, custom)"
   xmlns:inkscape="http://www.inkscape.org/namespaces/inkscape"
   xmlns:sodipodi="http://sodipodi.sourceforge.net/DTD/sodipodi-0.dtd"
   xmlns="http://www.w3.org/2000/svg"
   xmlns:svg="http://www.w3.org/2000/svg"
   xmlns:rdf="http://www.w3.org/1999/02/22-rdf-syntax-ns#"
   xmlns:cc="http://creativecommons.org/ns#"
   xmlns:dc="http://purl.org/dc/elements/1.1/">
  <metadata
     id="metadata16">
    <rdf:RDF>
      <cc:Work
         rdf:about="">
        <dc:format>image/svg+xml</dc:format>
        <dc:type
           rdf:resource="http://purl.org/dc/dcmitype/StillImage" />
        <dc:title>view-refresh</dc:title>
      </cc:Work>
    </rdf:RDF>
  </metadata>
  <sodipodi:namedview
     pagecolor="#ffffff"
     bordercolor="#666666"
     borderopacity="1"
     objecttolerance="10"
     gridtolerance="10"
     guidetolerance="10"
     inkscape:pageopacity="0"
     inkscape:pageshadow="2"
     inkscape:window-width="3440"
     inkscape:window-height="1364"
     id="namedview14"
     showgrid="false"
     inkscape:pagecheckerboard="true"
     inkscape:zoom="9.8333333"
     inkscape:cx="86.542373"
     inkscape:cy="127.98305"
     inkscape:window-x="0"
     inkscape:window-y="40"
     inkscape:window-maximized="1"
     inkscape:current-layer="svg12"
     inkscape:showpageshadow="2"
     inkscape:deskcolor="#d1d1d1" />
  <!-- Generator: Sketch 51.3 (57544) - http://www.bohemiancoding.com/sketch -->
  <title
     id="title2">view-refresh</title>
  <desc
     id="desc4">Created with Sketch.</desc>
  <defs
     id="defs6" />
  <g
     id="view-refresh"
     style="fill:#b00000;fill-rule:evenodd;stroke:none;stroke-width:1"
     transform="matrix(18.285714,0,0,18.285714,-91.42857,-91.428569)">
    <g
       id="21"
       transform="translate(5,5)"
       style="fill:#b00000">
      <path
         d="M 12.488598,4 H 12.197307 C 11.159879,2.2065959 9.2208471,1 7,1 3.6862915,1 1,3.6862915 1,7 c 0,3.313709 2.6862915,6 6,6 2.6124377,0 4.834916,-1.669615 5.658589,-4 h 1.051532 C 12.849572,11.891489 10.171021,14 7,14 3.1340068,14 0,10.865993 0,7 0,3.1340068 3.1340068,0 7,0 c 1.9756701,0 3.760175,0.81847727 5.032933,2.1348516 z"
         id="Combined-Shape"
         style="fill:#b00000"
         inkscape:connector-curvature="0" />
      <polygon
         id="Triangle"
         transform="rotate(135,12.75,3.75)"
         points="12.75,1.9822331 16.285534,5.517767 9.2144661,5.517767 "
         style="fill:#b00000" />
    </g>
  </g>
</svg>
