<?xml version="1.0" encoding="UTF-8" standalone="no"?>
<svg
   xmlns:dc="http://purl.org/dc/elements/1.1/"
   xmlns:cc="http://creativecommons.org/ns#"
   xmlns:rdf="http://www.w3.org/1999/02/22-rdf-syntax-ns#"
   xmlns:svg="http://www.w3.org/2000/svg"
   xmlns="http://www.w3.org/2000/svg"
   xmlns:sodipodi="http://sodipodi.sourceforge.net/DTD/sodipodi-0.dtd"
   xmlns:inkscape="http://www.inkscape.org/namespaces/inkscape"
   inkscape:version="1.0 (4035a4fb49, 2020-05-01)"
   sodipodi:docname="logout.svg"
   id="svg10"
   version="1.1"
   viewBox="0 0 32 32"
   height="32"
   width="32">
  <metadata
     id="metadata16">
    <rdf:RDF>
      <cc:Work
         rdf:about="">
        <dc:format>image/svg+xml</dc:format>
        <dc:type
           rdf:resource="http://purl.org/dc/dcmitype/StillImage" />
      </cc:Work>
    </rdf:RDF>
  </metadata>
  <defs
     id="defs14" />
  <sodipodi:namedview
     inkscape:current-layer="svg10"
     inkscape:window-maximized="1"
     inkscape:window-y="0"
     inkscape:window-x="0"
     inkscape:cy="16"
     inkscape:cx="16"
     inkscape:zoom="26.28125"
     showgrid="false"
     id="namedview12"
     inkscape:window-height="1021"
     inkscape:window-width="1920"
     inkscape:pageshadow="2"
     inkscape:pageopacity="0"
     guidetolerance="10"
     gridtolerance="10"
     objecttolerance="10"
     borderopacity="1"
     bordercolor="#666666"
     pagecolor="#ffffff" />
  <path
     id="path2"
     d="M 16 0.0234375 C 24.839844 0.0234375 32.003906 7.1875 32.003906 16.023438 C 32.003906 24.863281 24.839844 32.027344 16 32.023438 C 7.160156 32.027344 -0.00390625 24.863281 -0.00390625 16.023438 C -0.00390625 7.1875 7.160156 0.0234375 16 0.0234375 Z"
     style="fill:#f79400;fill-rule:evenodd;fill-opacity:1" />
  <g
     id="g8"
     style="fill:#ffffff;fill-opacity:1">
    <path
       style="fill:#ffffff;fill-opacity:1"
       id="path4"
       d="M 4.023438 14.023438 L 4.023438 18.023438 L 16.023438 18.023438 L 16.023438 14.023438 Z" />
    <path
       id="path6"
       d="M 4.664062 20.023438 C 6.308594 24.6875 10.75 28.023438 15.976562 28.023438 C 22.601562 28.023438 27.976562 22.652344 27.976562 16.023438 C 27.976562 9.398438 22.601562 4.023438 15.976562 4.023438 C 10.75 4.023438 6.308594 7.363281 4.664062 12.023438 L 9.101562 12.023438 C 10.484375 9.636719 13.015625 8.023438 15.976562 8.023438 C 20.394531 8.023438 23.976562 11.605469 23.976562 16.023438 C 23.976562 20.441406 20.394531 24.023438 15.976562 24.023438 C 13.015625 24.023438 10.484375 22.410156 9.101562 20.023438 Z"
       style="fill-rule:evenodd;fill:#ffffff;fill-opacity:1" />
  </g>
</svg>
