<?xml version="1.0" encoding="UTF-8" standalone="no"?>
<svg
   xmlns:dc="http://purl.org/dc/elements/1.1/"
   xmlns:cc="http://creativecommons.org/ns#"
   xmlns:rdf="http://www.w3.org/1999/02/22-rdf-syntax-ns#"
   xmlns:svg="http://www.w3.org/2000/svg"
   xmlns="http://www.w3.org/2000/svg"
   xmlns:sodipodi="http://sodipodi.sourceforge.net/DTD/sodipodi-0.dtd"
   xmlns:inkscape="http://www.inkscape.org/namespaces/inkscape"
   sodipodi:docname="berkana.svg"
   inkscape:version="1.0 (4035a4fb49, 2020-05-01)"
   width="64mm"
   height="64mm"
   viewBox="0 0 64 64"
   version="1.1"
   id="SVGRoot">
  <defs
     id="defs18" />
  <sodipodi:namedview
     inkscape:pagecheckerboard="false"
     inkscape:window-maximized="1"
     inkscape:window-y="0"
     inkscape:window-x="0"
     inkscape:window-height="1021"
     inkscape:window-width="1920"
     showgrid="false"
     inkscape:document-rotation="0"
     inkscape:current-layer="layer1"
     inkscape:document-units="mm"
     inkscape:cy="72.894475"
     inkscape:cx="57.482729"
     inkscape:zoom="1.4"
     inkscape:pageshadow="2"
     inkscape:pageopacity="0"
     borderopacity="1.0"
     bordercolor="#666666"
     pagecolor="#000000"
     id="base" />
  <metadata
     id="metadata21">
    <rdf:RDF>
      <cc:Work
         rdf:about="">
        <dc:format>image/svg+xml</dc:format>
        <dc:type
           rdf:resource="http://purl.org/dc/dcmitype/StillImage" />
        <dc:title></dc:title>
      </cc:Work>
    </rdf:RDF>
  </metadata>
  <g
     id="layer1"
     inkscape:groupmode="layer"
     inkscape:label="Layer 1">
    <path
       d="m 23.739172,9.8826988 c 0.238361,4.1672202 0.269241,8.3432402 0.39674,12.5144872 0.04476,1.464441 0.10758,2.928274 0.16137,4.39241 0.346656,7.106165 0.858052,14.202671 1.264361,21.305533 0.05416,1.806474 0.253229,3.610266 0.27617,5.418068 0.04366,2.805991 4.011926,2.744251 3.96827,-0.06174 v 0 C 29.773752,51.588525 29.591219,49.729883 29.523915,47.868463 29.119108,40.792523 28.610377,33.722875 28.263351,26.643737 28.210082,25.196835 28.14777,23.750238 28.103545,22.303032 27.972742,18.022644 27.947164,13.736439 27.685462,9.4610739 27.387328,6.6706251 23.441038,7.09225 23.739172,9.8826988 Z"
       id="path395"
       style="fill:#ffffff;stroke-width:0.264583" />
    <path
       d="m 26.197242,9.5351903 c 0.352586,0.327734 0.679689,0.6852267 1.057759,0.9832027 0.589645,0.464727 1.225983,0.866933 1.839224,1.300048 0.806187,0.569388 1.6188,1.129768 2.419057,1.707462 2.471809,1.784365 4.874362,3.650946 7.261462,5.545948 1.560472,1.304337 3.194129,2.528294 4.657748,3.94352 2.02556,1.942316 4.772409,-0.922261 2.746849,-2.864576 v 0 C 44.615452,18.660904 42.9113,17.331948 41.242004,15.963218 39.245916,14.379292 38.602389,13.848403 36.501147,12.27081 34.294957,10.614423 33.572395,10.115176 31.376692,8.5717011 30.845058,8.1979877 30.321571,7.8121458 29.778509,7.4552433 29.695828,7.400905 29.595804,7.3792536 29.504452,7.3412587 27.953108,5.0027077 24.645898,7.1966393 26.197242,9.5351903 Z"
       id="path397"
       style="fill:#ffffff;stroke-width:0.264583" />
    <path
       d="m 27.190979,30.153362 c 2.683791,-1.120306 5.450411,-2.034349 8.193574,-2.99689 2.144805,-0.748751 4.294227,-1.484184 6.439741,-2.230887 1.359482,-0.473142 2.70157,-0.977256 4.089575,-1.359232 2.702695,-0.755597 1.634119,-4.577785 -1.068576,-3.822189 v 0 c -0.394464,0.111657 -0.79284,0.210328 -1.183396,0.334971 -1.055217,0.336765 -2.090759,0.73232 -3.136866,1.096397 -2.150443,0.748421 -4.30481,1.485522 -6.454526,2.236042 -2.835469,0.994945 -5.694924,1.940437 -8.466751,3.104249 -2.572129,1.122338 -0.984904,4.759878 1.587225,3.637539 z"
       id="path399"
       style="fill:#ffffff;stroke-width:0.264583" />
    <path
       d="m 28.796102,32.152451 c 2.780712,1.761908 5.46733,3.670787 8.142777,5.587526 2.514137,1.825982 4.963367,3.738393 7.4333,5.623057 2.231024,1.702356 4.638518,-1.452792 2.407494,-3.155148 v 0 c -2.501715,-1.908889 -4.98252,-3.845814 -7.529698,-5.694333 -2.847549,-2.039382 -5.699271,-4.091123 -8.689998,-5.916339 -2.513933,-1.247248 -4.277808,2.307991 -1.763875,3.555237 z"
       id="path409"
       style="fill:#ffffff;stroke-width:0.264583" />
    <path
       d="m 29.671599,55.981905 c 3.832752,-1.913019 7.493798,-4.145386 11.157028,-6.359543 2.396379,-1.412844 4.722707,-2.940786 7.118541,-4.354232 2.108618,-1.18935 1.440923,-0.05522 -1.10998,-3.722677 0.007,-0.0122 0.01389,-0.02439 0.02085,-0.03659 -2.155354,1.797201 0.386273,4.845333 2.541627,3.04813 v 0 c 0.110437,-0.09849 0.220872,-0.19698 0.331309,-0.295468 -0.686705,-1.097656 -1.302219,-2.243199 -2.060112,-3.292962 -0.05179,-0.07174 -0.165561,0.06264 -0.246854,0.09757 -0.517025,0.222117 -1.002533,0.513633 -1.49433,0.784301 -2.40702,1.421662 -4.747024,2.953507 -7.154042,4.375439 -3.55588,2.149403 -7.108346,4.318532 -10.826288,6.180452 -2.52832,1.217822 -0.806063,4.793406 1.722257,3.575587 z"
       id="path411"
       style="fill:#ffffff;stroke-width:0.264583" />
  </g>
</svg>
