<?xml version="1.0" encoding="UTF-8" standalone="no"?>
<svg
   xmlns:dc="http://purl.org/dc/elements/1.1/"
   xmlns:cc="http://creativecommons.org/ns#"
   xmlns:rdf="http://www.w3.org/1999/02/22-rdf-syntax-ns#"
   xmlns:svg="http://www.w3.org/2000/svg"
   xmlns="http://www.w3.org/2000/svg"
   xmlns:sodipodi="http://sodipodi.sourceforge.net/DTD/sodipodi-0.dtd"
   xmlns:inkscape="http://www.inkscape.org/namespaces/inkscape"
   sodipodi:docname="mannaz.svg"
   inkscape:version="1.0 (4035a4fb49, 2020-05-01)"
   width="64mm"
   height="64mm"
   viewBox="0 0 64 64"
   version="1.1"
   id="SVGRoot">
  <defs
     id="defs18" />
  <sodipodi:namedview
     inkscape:pagecheckerboard="false"
     inkscape:window-maximized="1"
     inkscape:window-y="0"
     inkscape:window-x="0"
     inkscape:window-height="1021"
     inkscape:window-width="1920"
     showgrid="false"
     inkscape:document-rotation="0"
     inkscape:current-layer="layer1"
     inkscape:document-units="mm"
     inkscape:cy="72.894475"
     inkscape:cx="57.482729"
     inkscape:zoom="1.4"
     inkscape:pageshadow="2"
     inkscape:pageopacity="0"
     borderopacity="1.0"
     bordercolor="#666666"
     pagecolor="#000000"
     id="base" />
  <metadata
     id="metadata21">
    <rdf:RDF>
      <cc:Work
         rdf:about="">
        <dc:format>image/svg+xml</dc:format>
        <dc:type
           rdf:resource="http://purl.org/dc/dcmitype/StillImage" />
        <dc:title></dc:title>
      </cc:Work>
    </rdf:RDF>
  </metadata>
  <g
     id="layer1"
     inkscape:groupmode="layer"
     inkscape:label="Layer 1">
    <path
       d="m 15.349618,8.8757633 c -0.01,0.2154671 -0.03488,0.4307625 -0.02987,0.6464014 0.04302,1.8517023 0.329752,3.6922823 0.509717,5.5325643 0.246904,2.524783 0.237074,2.716021 0.401193,5.281797 0.209938,5.039338 0.265479,10.08374 0.366063,15.126166 -0.01339,1.656919 0.180548,3.322331 0.01337,4.976456 -0.05044,0.499099 -0.135429,0.932166 -0.221863,1.424889 -0.337491,1.817899 -0.505384,3.657733 -0.560864,5.504056 -0.02325,1.152649 -0.01747,2.305645 -9.79e-4,3.458337 0.01058,0.611714 -0.01871,0.145664 0.38081,1.34816 1.522602,2.357364 4.85642,0.204079 3.333818,-2.153285 v 0 c 0.274746,1.014151 0.262907,1.277255 0.253715,0.748271 -0.01574,-1.095814 -0.0215,-2.191911 -2.35e-4,-3.287702 0.04489,-1.657942 0.201923,-3.309236 0.504416,-4.941347 0.118625,-0.693685 0.206096,-1.130525 0.271582,-1.843913 0.162291,-1.767941 0.0016,-3.542668 -0.0058,-5.313074 C 20.462934,30.282735 20.40765,25.179866 20.19126,20.082324 20.019129,17.409194 20.03174,17.25217 19.775078,14.626799 19.547588,12.299826 19.550135,12.779626 19.358124,10.673259 19.27155,9.7235444 19.278159,9.9449072 19.295802,9.2983862 19.594641,6.5080131 15.648457,6.0853899 15.349618,8.8757633 Z"
       id="path293"
       style="fill:#ffffff;stroke-width:0.264583" />
    <path
       d="m 17.102215,12.156318 c 0.06689,0.04215 0.128562,0.09406 0.200687,0.126457 0.339737,0.152623 0.692878,0.274213 1.032334,0.427461 1.13407,0.511982 2.837418,1.357009 3.886748,1.917278 1.887305,1.007689 3.682573,2.062963 5.537177,3.131399 4.136824,2.438458 8.307901,4.817055 12.498136,7.16219 1.238242,0.702085 0.737222,0.366116 1.541589,0.947927 2.298859,1.609577 4.575146,-1.641499 2.276287,-3.251076 v 0 C 42.940077,21.838888 43.562202,22.23265 42.195558,21.457849 38.019557,19.120701 33.862752,16.750048 29.740014,14.319843 27.105968,12.802968 24.483162,11.277596 21.752817,9.9378862 20.957798,9.547792 19.436249,8.8146985 18.502404,8.4996321 18.123808,8.3718992 17.729535,8.2964673 17.343101,8.1948848 14.541945,8.0245524 14.301059,11.985985 17.102215,12.156318 Z"
       id="path295"
       style="fill:#ffffff;stroke-width:0.264583" />
    <path
       d="m 22.15757,28.400826 c 2.957475,-1.440275 5.969059,-2.761287 8.88163,-4.294726 0.992302,-0.522437 1.970556,-1.071132 2.955833,-1.606698 4.218389,-2.384969 8.409487,-4.824232 12.48188,-7.452349 1.269222,-0.859549 2.516441,-1.760041 3.671996,-2.769181 C 52.259456,10.428255 49.6437,7.4434914 47.533156,9.2931083 v 0 c -1.005959,0.8859247 -2.105253,1.6618767 -3.20875,2.4196247 -3.988099,2.57544 -8.095107,4.961711 -12.225539,7.300192 -2.455801,1.336369 -3.042156,1.689708 -5.491397,2.894923 -2.088724,1.027813 -4.236792,1.931528 -6.311522,2.987933 -2.478441,1.316366 -0.616819,4.82141 1.861622,3.505045 z"
       id="path297"
       style="fill:#ffffff;stroke-width:0.264583" />
    <path
       d="m 46.527086,11.227162 c -0.30693,3.461095 -0.436388,6.934749 -0.616101,10.404263 -0.191995,3.627097 -0.417536,7.253834 -0.522804,10.884955 -0.03793,1.308375 -0.07624,4.105857 -0.09591,5.386826 -0.07117,3.718616 -0.174393,7.436538 -0.282811,11.154228 -0.0818,2.805136 3.885258,2.920825 3.967062,0.115686 v 0 c 0.108948,-3.735948 0.212654,-7.472132 0.28403,-11.209015 0.0182,-1.186796 0.05799,-4.068452 0.09351,-5.297042 0.104462,-3.612915 0.329543,-7.221435 0.52035,-10.830343 0.179951,-3.474194 0.31128,-6.952154 0.616792,-10.418039 0.135424,-2.8030608 -3.828701,-2.9945797 -3.964125,-0.191519 z"
       id="path301"
       style="fill:#ffffff;stroke-width:0.264583" />
    <path
       d="m 41.341282,25.414248 c 0.536519,0.445308 1.104399,0.84314 1.71541,1.178635 0.29614,0.156235 0.607025,0.280777 0.907015,0.429018 0.07133,0.0377 0.241604,0.134377 0.250738,0.139674 0.08194,0.06222 0.221311,0.1445 0.266067,0.172834 0.02141,0.01482 0.06759,0.05013 0.07752,0.05769 -0.02223,-0.01712 -0.04335,-0.03559 -0.06468,-0.05378 2.111152,1.848924 4.725926,-1.136697 2.614771,-2.985621 v 0 c -0.0315,-0.02695 -0.06294,-0.05399 -0.09571,-0.07941 -0.108996,-0.08528 -0.220872,-0.166855 -0.335484,-0.244436 -0.04756,-0.03077 -0.09481,-0.062 -0.142669,-0.0923 -0.01982,-0.01254 -0.07491,-0.05453 -0.0603,-0.0362 0.01783,0.02238 0.04673,0.03302 0.07048,0.04898 0.06297,0.0423 -0.24855,-0.173986 -0.18772,-0.128661 -0.209126,-0.131978 -0.426667,-0.249379 -0.646472,-0.362559 -0.252304,-0.123075 -0.508619,-0.237032 -0.763265,-0.354897 -0.385058,-0.202391 -0.726498,-0.465701 -1.065035,-0.737901 -2.15592,-1.796523 -4.696587,1.252409 -2.540666,3.048932 z"
       id="path305"
       style="fill:#ffffff;stroke-width:0.264583" />
  </g>
</svg>
