<?xml version="1.0" encoding="UTF-8" standalone="no"?>
<svg
   xmlns:dc="http://purl.org/dc/elements/1.1/"
   xmlns:cc="http://creativecommons.org/ns#"
   xmlns:rdf="http://www.w3.org/1999/02/22-rdf-syntax-ns#"
   xmlns:svg="http://www.w3.org/2000/svg"
   xmlns="http://www.w3.org/2000/svg"
   xmlns:sodipodi="http://sodipodi.sourceforge.net/DTD/sodipodi-0.dtd"
   xmlns:inkscape="http://www.inkscape.org/namespaces/inkscape"
   inkscape:version="1.0 (4035a4fb49, 2020-05-01)"
   sodipodi:docname="cancel.svg"
   id="svg6"
   version="1.1"
   viewBox="0 0 32 32">
  <metadata
     id="metadata10">
    <rdf:RDF>
      <cc:Work
         rdf:about="">
        <dc:format>image/svg+xml</dc:format>
        <dc:type
           rdf:resource="http://purl.org/dc/dcmitype/StillImage" />
      </cc:Work>
    </rdf:RDF>
  </metadata>
  <sodipodi:namedview
     inkscape:current-layer="svg6"
     inkscape:window-maximized="1"
     inkscape:window-y="0"
     inkscape:window-x="0"
     inkscape:cy="16"
     inkscape:cx="16"
     inkscape:zoom="26.28125"
     showgrid="false"
     id="namedview8"
     inkscape:window-height="1021"
     inkscape:window-width="1920"
     inkscape:pageshadow="2"
     inkscape:pageopacity="0"
     guidetolerance="10"
     gridtolerance="10"
     objecttolerance="10"
     borderopacity="1"
     bordercolor="#666666"
     pagecolor="#ffffff" />
  <defs
     id="defs3051">
    <style
       id="current-color-scheme"
       type="text/css">
      .ColorScheme-Text {
        color:#232629;
      }
      </style>
  </defs>
  <path
     id="path4"
     class="ColorScheme-Text"
     d="M16 4A12 12 0 0 0 7.886719 7.179688L7.885 7.178A12 12 0 0 0 7.847656 7.214844 12 12 0 0 0 4 16 12 12 0 0 0 16 28 12 12 0 0 0 24.11328 24.820312L24.12 24.822A12 12 0 0 0 24.15234 24.785156 12 12 0 0 0 28 16 12 12 0 0 0 16 4M16 5A11 11 0 0 1 27 16 11 11 0 0 1 24.11523 23.408203L8.592 7.885A11 11 0 0 1 16 5M7.885 8.592L23.408 24.12A11 11 0 0 1 16 27 11 11 0 0 1 5 16 11 11 0 0 1 7.884766 8.591797"
     style="fill:#ffffff;fill-opacity:1;stroke:none" />
</svg>
