<?xml version="1.0" encoding="UTF-8" standalone="no"?>
<svg
   xmlns:dc="http://purl.org/dc/elements/1.1/"
   xmlns:cc="http://creativecommons.org/ns#"
   xmlns:rdf="http://www.w3.org/1999/02/22-rdf-syntax-ns#"
   xmlns:svg="http://www.w3.org/2000/svg"
   xmlns="http://www.w3.org/2000/svg"
   xmlns:sodipodi="http://sodipodi.sourceforge.net/DTD/sodipodi-0.dtd"
   xmlns:inkscape="http://www.inkscape.org/namespaces/inkscape"
   height="128"
   viewBox="0 0 512 512"
   width="128"
   version="1.1"
   id="svg26"
   sodipodi:docname="cancel.svg"
   inkscape:version="0.92.1 r">
  <metadata
     id="metadata32">
    <rdf:RDF>
      <cc:Work
         rdf:about="">
        <dc:format>image/svg+xml</dc:format>
        <dc:type
           rdf:resource="http://purl.org/dc/dcmitype/StillImage" />
        <dc:title></dc:title>
      </cc:Work>
    </rdf:RDF>
  </metadata>
  <defs
     id="defs30" />
  <sodipodi:namedview
     pagecolor="#ffffff"
     bordercolor="#666666"
     borderopacity="1"
     objecttolerance="10"
     gridtolerance="10"
     guidetolerance="10"
     inkscape:pageopacity="0"
     inkscape:pageshadow="2"
     inkscape:window-width="1920"
     inkscape:window-height="1023"
     id="namedview28"
     showgrid="false"
     inkscape:zoom="0.32593203"
     inkscape:cx="-8.2925809"
     inkscape:cy="-53.001638"
     inkscape:window-x="0"
     inkscape:window-y="0"
     inkscape:window-maximized="1"
     inkscape:current-layer="svg26" />
  <path
     style="fill:#1793d1;fill-rule:evenodd"
     inkscape:connector-curvature="0"
     id="path2"
     d="m 471.95,253.05 c 0,120.9 -98.01,218.9 -218.9,218.9 -120.9,0 -218.9,-98.01 -218.9,-218.9 0,-120.9 98.01,-218.9 218.9,-218.9 120.9,0 218.9,98.01 218.9,218.9" />
  <path
     style="opacity:0.25;fill:#000000;fill-opacity:1;stroke:none;stroke-width:1px;stroke-linecap:butt;stroke-linejoin:miter;stroke-opacity:1"
     d="m 382.91525,126.91525 92.28899,105.52458 c 3.40059,83.78873 -33.0988,156.50389 -86.86526,191.69576 -51.21945,38.82842 -108.60088,53.0089 -171.38983,45.55933 l -86.77966,-84.61017 z"
     id="path4518"
     inkscape:connector-curvature="0"
     sodipodi:nodetypes="cccccc" />
  <g
     fill-rule="evenodd"
     id="g18">
    <path
       d="m256 1c-140.83 0-255 114.17-255 255s114.17 255 255 255 255-114.17 255-255-114.17-255-255-255m8.827 44.931c120.9 0 218.9 98 218.9 218.9s-98 218.9-218.9 218.9-218.93-98-218.93-218.9 98.03-218.9 218.93-218.9"
       fill-opacity=".067"
       id="path8" />
    <g
       fill-opacity=".129"
       id="g14">
      <path
         d="m256 4.433c-138.94 0-251.57 112.63-251.57 251.57s112.63 251.57 251.57 251.57 251.57-112.63 251.57-251.57-112.63-251.57-251.57-251.57m5.885 38.556c120.9 0 218.9 98 218.9 218.9s-98 218.9-218.9 218.9-218.93-98-218.93-218.9 98.03-218.9 218.93-218.9"
         id="path10" />
      <path
         d="m256 8.356c-136.77 0-247.64 110.87-247.64 247.64s110.87 247.64 247.64 247.64 247.64-110.87 247.64-247.64-110.87-247.64-247.64-247.64m2.942 31.691c120.9 0 218.9 98 218.9 218.9s-98 218.9-218.9 218.9-218.93-98-218.93-218.9 98.03-218.9 218.93-218.9"
         id="path12" />
    </g>
    <path
       d="m253.04 7.859c-135.42 0-245.19 109.78-245.19 245.19 0 135.42 109.78 245.19 245.19 245.19 135.42 0 245.19-109.78 245.19-245.19 0-135.42-109.78-245.19-245.19-245.19zm0 26.297c120.9 0 218.9 98 218.9 218.9s-98 218.9-218.9 218.9-218.93-98-218.93-218.9 98.03-218.9 218.93-218.9z"
       fill="#ffffff"
       stroke="#000000"
       stroke-opacity=".31"
       stroke-width="4.904"
       id="path16" />
  </g>
  <path
     inkscape:connector-curvature="0"
     style="opacity:1;fill:#ffffff;stroke-width:34.58610153;stroke:none;fill-opacity:1"
     class="ColorScheme-Text"
     d="m 359.84183,117.49355 a 34.586102,34.586102 0 0 0 -24.45341,10.1327 l -79.3049,79.30489 -78.96699,-78.96699 a 34.586102,34.586102 0 0 0 -0.34586,-0.34586 34.586102,34.586102 0 0 0 -24.25074,-9.99746 l -0.34586,0.47383 a 34.586102,34.586102 0 0 0 -34.58609,34.5861 34.586102,34.586102 0 0 0 10.13268,24.45342 l 79.3049,79.30489 -79.3049,79.3049 a 34.586102,34.586102 0 0 0 -9.99746,24.18328 34.586102,34.586102 0 0 0 34.5861,34.58611 34.586102,34.586102 0 0 0 24.45342,-10.13269 l 79.30489,-79.30489 78.96699,78.96698 a 34.586102,34.586102 0 0 0 24.79132,10.4706 34.586102,34.586102 0 0 0 34.5861,-34.58611 34.586102,34.586102 0 0 0 -10.13269,-24.4534 l -79.57501,-79.50756 78.96698,-78.967 a 34.586102,34.586102 0 0 0 10.74072,-24.92655 34.586102,34.586102 0 0 0 -34.5861,-34.5861 z"
     id="path5" />
</svg>
