<?xml version="1.0" encoding="UTF-8" standalone="no"?>
<!-- Created with Inkscape (http://www.inkscape.org/) -->

<svg
   version="1.1"
   id="svg2"
   width="256"
   height="255.58078"
   viewBox="0 0 256 255.58078"
   sodipodi:docname="hibernate.svg"
   inkscape:version="1.3.2 (091e20ef0f, 2023-11-25, custom)"
   xmlns:inkscape="http://www.inkscape.org/namespaces/inkscape"
   xmlns:sodipodi="http://sodipodi.sourceforge.net/DTD/sodipodi-0.dtd"
   xmlns="http://www.w3.org/2000/svg"
   xmlns:svg="http://www.w3.org/2000/svg"
   xmlns:rdf="http://www.w3.org/1999/02/22-rdf-syntax-ns#"
   xmlns:cc="http://creativecommons.org/ns#"
   xmlns:dc="http://purl.org/dc/elements/1.1/">
  <metadata
     id="metadata8">
    <rdf:RDF>
      <cc:Work
         rdf:about="">
        <dc:format>image/svg+xml</dc:format>
        <dc:type
           rdf:resource="http://purl.org/dc/dcmitype/StillImage" />
        <dc:title />
      </cc:Work>
    </rdf:RDF>
  </metadata>
  <defs
     id="defs6" />
  <sodipodi:namedview
     pagecolor="#ffffff"
     bordercolor="#666666"
     borderopacity="1"
     objecttolerance="10"
     gridtolerance="10"
     guidetolerance="10"
     inkscape:pageopacity="0"
     inkscape:pageshadow="2"
     inkscape:window-width="3440"
     inkscape:window-height="1364"
     id="namedview4"
     showgrid="false"
     inkscape:pagecheckerboard="true"
     inkscape:snap-nodes="false"
     inkscape:zoom="2.36"
     inkscape:cx="-187.71186"
     inkscape:cy="232.83898"
     inkscape:window-x="0"
     inkscape:window-y="40"
     inkscape:window-maximized="1"
     inkscape:current-layer="svg2"
     inkscape:showpageshadow="2"
     inkscape:deskcolor="#d1d1d1" />
  <path
     style="fill:#000000"
     d=""
     id="path825"
     inkscape:connector-curvature="0" />
  <path
     style="fill:#000000"
     d=""
     id="path819"
     inkscape:connector-curvature="0" />
  <path
     style="fill:#000000"
     d=""
     id="path817"
     inkscape:connector-curvature="0" />
  <path
     style="fill:#ff9221;stroke:none;stroke-width:8.05695;stroke-miterlimit:4;stroke-dasharray:none;stroke-opacity:1"
     d="M 128.73012,0 C 93.279396,0 57.673851,12.551957 34.296983,37.631487 0.1366776,74.279871 -9.8550024,133.00833 10.448481,177.79265 c 17.833807,39.33677 41.353893,60.03324 84.115591,74.03432 36.494408,11.94904 100.895838,-5.91231 127.701348,-35.41046 44.97944,-49.4977 44.97944,-129.287326 0,-178.785023 C 199.47518,12.551957 164.18086,0 128.73012,0 Z m 0.86637,12.727605 c 13.75548,0.0027 27.72041,2.625534 41.2702,8.285538 94.80241,39.600793 94.80241,172.468157 0,212.068967 C 97.627222,263.67562 13.627646,206.24708 14.03993,125.85835 14.368184,61.855198 69.989397,12.71571 129.59649,12.727605 Z m -1.1499,46.594364 c -3.44739,0 -5.6392,26.333736 -5.6392,67.702031 0,41.36831 2.19181,67.68628 5.6392,67.68628 3.4474,0 5.63921,-26.31797 5.63921,-67.68628 0,-41.368295 -2.19181,-67.702031 -5.63921,-67.702031 z"
     id="path817-3" />
</svg>
