<?xml version="1.0" encoding="UTF-8" standalone="no"?>
<svg
   width="219.429"
   height="256.00049"
   viewBox="0 0 219.429 256.00049"
   version="1.1"
   id="svg12"
   sodipodi:docname="lock.svg"
   inkscape:version="1.3.2 (091e20ef0f, 2023-11-25, custom)"
   xmlns:inkscape="http://www.inkscape.org/namespaces/inkscape"
   xmlns:sodipodi="http://sodipodi.sourceforge.net/DTD/sodipodi-0.dtd"
   xmlns="http://www.w3.org/2000/svg"
   xmlns:svg="http://www.w3.org/2000/svg"
   xmlns:rdf="http://www.w3.org/1999/02/22-rdf-syntax-ns#"
   xmlns:cc="http://creativecommons.org/ns#"
   xmlns:dc="http://purl.org/dc/elements/1.1/">
  <metadata
     id="metadata16">
    <rdf:RDF>
      <cc:Work
         rdf:about="">
        <dc:format>image/svg+xml</dc:format>
        <dc:type
           rdf:resource="http://purl.org/dc/dcmitype/StillImage" />
        <dc:title>document-edit copy</dc:title>
      </cc:Work>
    </rdf:RDF>
  </metadata>
  <sodipodi:namedview
     pagecolor="#ffffff"
     bordercolor="#666666"
     borderopacity="1"
     objecttolerance="10"
     gridtolerance="10"
     guidetolerance="10"
     inkscape:pageopacity="0"
     inkscape:pageshadow="2"
     inkscape:window-width="1920"
     inkscape:window-height="1080"
     id="namedview14"
     showgrid="false"
     inkscape:pagecheckerboard="true"
     inkscape:zoom="9.8333333"
     inkscape:cx="68.237288"
     inkscape:cy="127.98305"
     inkscape:window-x="0"
     inkscape:window-y="40"
     inkscape:window-maximized="0"
     inkscape:current-layer="svg12"
     inkscape:showpageshadow="2"
     inkscape:deskcolor="#d1d1d1" />
  <!-- Generator: Sketch 51.3 (57544) - http://www.bohemiancoding.com/sketch -->
  <title
     id="title2">document-edit copy</title>
  <desc
     id="desc4">Created with Sketch.</desc>
  <defs
     id="defs6" />
  <g
     id="document-edit-copy"
     style="fill:#ff9221;fill-rule:evenodd;stroke:none;stroke-width:1"
     transform="matrix(18.28575,0,0,18.28575,-109.7145,-91.42875)">
    <g
       id="27"
       transform="translate(6,5)"
       style="fill:#ff9221;fill-rule:nonzero">
      <path
         d="M 6,1 C 4.3434673,1 3,2.3667179 3,4.0625 V 7 H 1 v 6 H 11 V 7 H 9 V 4.0625 C 9,2.3672731 7.6561924,1 6,1 Z M 6,0 c 2.216,0 4,1.8225 4,4.0625 V 6 h 1 c 0.554,0 1,0.446 1,1 v 6 c 0,0.554 -0.446,1 -1,1 H 1 C 0.446,14 0,13.554 0,13 V 7 C 0,6.446 0.446,6 1,6 H 2 V 4.0625 C 2,1.8216 3.784,0 6,0 Z"
         id="Combined-Shape"
         style="fill:#ff9221"
         inkscape:connector-curvature="0" />
      <rect
         id="Rectangle"
         x="2"
         y="6"
         width="8"
         height="1"
         style="fill:#ff9221" />
    </g>
  </g>
</svg>
