<svg height="128" viewBox="0 0 512 512" width="128" xmlns="http://www.w3.org/2000/svg">
 <path d="m471.95 253.05c0 120.9-98.01 218.9-218.9 218.9-120.9 0-218.9-98.01-218.9-218.9 0-120.9 98.01-218.9 218.9-218.9 120.9 0 218.9 98.01 218.9 218.9" fill="#1793d1" fill-rule="evenodd"/>
 <path d="m240.63 136.94c-65.64 0-119.03 53.42-119.03 119.06 0 33.08 13.555 63.03 35.406 84.63.166.168.333.333.5.5.116.113.227.231.344.344.218.221.437.437.656.656.005.005.026-.005.031 0 .325.333.64.671.969 1 .43.44.875.879 1.313 1.313.329.334.667.67 1 1 .425.431.85.856 1.281 1.281.125.126.25.25.375.375.005.005.026-.005.031 0 .01.009.022.022.031.031.02.021.042.041.063.063.295.301.577.609.875.906.005.005.026-.005.031 0 .325.333.64.671.969 1 .43.44.875.879 1.313 1.313.329.334.667.67 1 1 .423.43.852.858 1.281 1.281.125.126.25.25.375.375.005.005.026-.005.031 0 .01.009.022.022.031.031.02.021.042.041.063.063.295.301.577.609.875.906.116.113.227.231.344.344.218.221.437.437.656.656.025.026.069.036.094.063.407.416.805.84 1.219 1.25.329.334.667.67 1 1 .422.428.853.859 1.281 1.281.125.126.25.25.375.375.005.005.026-.005.031 0 .01.009.022.022.031.031.02.021.042.041.063.063.295.301.577.609.875.906.005.005.026-.005.031 0 .01.009.022.022.031.031.315.322.619.65.938.969.435.446.87.874 1.313 1.313.329.334.667.67 1 1 .422.428.853.859 1.281 1.281.125.126.25.25.375.375.005.005.026-.005.031 0 .01.009.022.022.031.031.02.021.042.041.063.063.295.301.577.609.875.906.005.005.026-.005.031 0 .01.009.022.022.031.031.02.021.042.041.063.063.295.301.577.609.875.906.005.005.026-.005.031 0 .325.333.64.671.969 1 .43.44.875.879 1.313 1.313.329.334.667.67 1 1 .425.431.85.856 1.281 1.281.125.126.25.25.375.375.005.005.026-.005.031 0 .01.009.022.022.031.031.02.021.042.041.063.063.295.301.577.609.875.906.33.338.666.666 1 1 .025.026.069.036.094.063.407.416.805.84 1.219 1.25.329.334.667.67 1 1 .423.43.852.858 1.281 1.281.125.126.25.25.375.375.005.005.026-.005.031 0 .01.009.022.022.031.031.02.021.042.041.063.063.295.301.577.609.875.906.116.113.227.231.344.344.218.221.437.437.656.656.435.446.87.874 1.313 1.313.329.334.667.67 1 1 .422.428.853.859 1.281 1.281.125.126.25.25.375.375.005.005.026-.005.031 0 .01.009.022.022.031.031.02.021.042.041.063.063.295.301.577.609.875.906.005.005.026-.005.031 0 .01.009.022.022.031.031.02.021.042.041.063.063.295.301.577.609.875.906.005.005.026-.005.031 0 .325.333.64.671.969 1 .43.44.875.879 1.313 1.313.329.334.667.67 1 1 .425.431.85.856 1.281 1.281.125.126.25.25.375.375.005.005.026-.005.031 0 .01.009.022.022.031.031.02.021.042.041.063.063.295.301.577.609.875.906.005.005.026-.005.031 0 .325.333.64.671.969 1 .43.44.875.879 1.313 1.313.329.334.667.67 1 1 .423.43.852.858 1.281 1.281.125.126.25.25.375.375.005.005.026-.005.031 0 .01.009.022.022.031.031.02.021.042.041.063.063.295.301.577.609.875.906.116.113.227.231.344.344.218.221.437.437.656.656.025.026.069.036.094.063.407.416.805.84 1.219 1.25.329.334.667.67 1 1 .423.43.852.858 1.281 1.281.125.126.25.25.375.375.005.005.026-.005.031 0 .01.009.022.022.031.031.02.021.042.041.063.063.295.301.577.609.875.906.116.113.227.231.344.344.218.221.437.437.656.656.435.446.87.874 1.313 1.313.329.334.667.67 1 1 .422.428.853.859 1.281 1.281.125.126.25.25.375.375.005.005.026-.005.031 0 .01.009.022.022.031.031.02.021.042.041.063.063.295.301.577.609.875.906.005.005.026-.005.031 0 .01.009.022.022.031.031.02.021.042.041.063.063.295.301.577.609.875.906.005.005.026-.005.031 0 .325.333.64.671.969 1 .43.44.875.879 1.313 1.313.329.334.667.67 1 1 .425.431.85.856 1.281 1.281.125.126.25.25.375.375.005.005.026-.005.031 0 .01.009.022.022.031.031.02.021.042.041.063.063.295.301.577.609.875.906.33.338.666.666 1 1 .025.026.069.036.094.063.407.416.805.84 1.219 1.25.329.334.667.67 1 1 .423.43.852.858 1.281 1.281.125.126.25.25.375.375.005.005.026-.005.031 0 .01.009.022.022.031.031.02.021.042.041.063.063.295.301.577.609.875.906.116.113.227.231.344.344.218.221.437.437.656.656.435.446.87.874 1.313 1.313.329.334.667.67 1 1 .422.428.853.859 1.281 1.281.125.126.25.25.375.375.005.005.026-.005.031 0 .01.009.022.022.031.031.02.021.042.041.063.063.295.301.577.609.875.906.005.005.026-.005.031 0 .01.009.022.022.031.031.315.322.619.65.938.969.435.446.87.874 1.313 1.313.329.334.667.67 1 1 .329.334.667.67 1 1 .425.431.85.856 1.281 1.281.125.126.25.25.375.375.005.005.026-.005.031 0 .01.009.022.022.031.031.02.021.042.041.063.063.295.301.577.609.875.906.005.005.026-.005.031 0 .325.333.64.671.969 1 .43.44.875.879 1.313 1.313.329.334.667.67 1 1 .425.431.85.856 1.281 1.281.125.126.25.25.375.375.005.005.026-.005.031 0 .01.009.022.022.031.031.02.021.042.041.063.063.295.301.577.609.875.906.33.338.666.666 1 1 .025.026.069.036.094.063.407.416.805.84 1.219 1.25.329.334.667.67 1 1 .423.43.852.858 1.281 1.281.125.126.25.25.375.375.005.005.026-.005.031 0 .01.009.022.022.031.031.02.021.042.041.063.063.295.301.577.609.875.906.116.113.227.231.344.344.218.221.437.437.656.656.435.446.87.874 1.313 1.313.329.334.667.67 1 1 .422.428.853.859 1.281 1.281.125.126.25.25.375.375.005.005.026-.005.031 0 .01.009.022.022.031.031.02.021.042.041.063.063.295.301.577.609.875.906.005.005.026-.005.031 0 .01.009.022.022.031.031.02.021.042.041.063.063.295.301.577.609.875.906.005.005.026-.005.031 0 .325.333.64.671.969 1 .43.44.875.879 1.313 1.313.329.334.667.67 1 1 .425.431.85.856 1.281 1.281.125.126.25.25.375.375.005.005.026-.005.031 0 .01.009.022.022.031.031.02.021.042.041.063.063.295.301.577.609.875.906.33.338.666.666 1 1 .025.026.069.036.094.063.407.416.805.84 1.219 1.25.329.334.667.67 1 1 .423.43.852.858 1.281 1.281.125.126.25.25.375.375.005.005.026-.005.031 0 .01.009.022.022.031.031.02.021.042.041.063.063.295.301.577.609.875.906.116.113.227.231.344.344.218.221.437.437.656.656.435.446.87.874 1.313 1.313.226.23.457.459.688.688 89.15-13.411 160.7-80.57 180.56-167.44l-.75-.781c-.01-.01-.021-.022-.031-.031l-.969-.969c-.01-.01-.021-.022-.031-.031l-.969-.969c-.059-.059-.118-.111-.188-.156l-.813-.844c-.058-.059-.119-.111-.188-.156l-.813-.844c-.058-.058-.119-.111-.188-.156l-.813-.844c-.057-.058-.12-.081-.188-.125l-.813-.844-.969-1c-.01-.01-.021-.022-.031-.031l-.969-.969c-.01-.01-.021-.022-.031-.031l-.969-.969c-.01-.011-.02-.021-.031-.031l-.969-.969c-.01-.01-.02-.021-.031-.031l-.969-.969c-.028-.028-.063-.038-.094-.063l-.906-.906-.969-1c-.01-.01-.021-.022-.031-.031l-.969-.969c-.01-.01-.021-.022-.031-.031l-2.969-2.969c-.034-.034-.087-.034-.125-.063l-.875-.906-.969-1-.031-.031-.969-.969c-.01-.01-.021-.022-.031-.031l-.969-.969c-.01-.01-.021-.022-.031-.031l-.969-.969c-.017-.017-.045-.016-.063-.031l-.938-.969c-.028-.028-.062-.038-.094-.063l-.906-.906-.031-.031-.969-.969-.969-1c-.01-.01-.021-.022-.031-.031l-.969-.969c-.01-.01-.021-.022-.031-.031l-.969-.969c-.01-.01-.021-.022-.031-.031l-.969-.969c-.011-.011-.02-.021-.031-.031l-.969-.969c-.038-.038-.08-.063-.125-.094l-.875-.875-.969-1c-.01-.01-.02-.021-.031-.031l-.969-.969c-.01-.01-.021-.022-.031-.031l-.969-.969c-.01-.01-.021-.022-.031-.031l-.969-.969c-.011-.011-.019-.021-.031-.031l-.969-.969c-.035-.036-.084-.035-.125-.063l-.875-.906-.969-1-.031-.031-.969-.969c-.01-.01-.02-.021-.031-.031l-.969-.969c-.01-.01-.02-.022-.031-.031l-1.969-1.969c-.067-.068-.131-.122-.219-.156l-.781-.813-.969-1c-.009-.01-.021-.022-.031-.031l-.969-.969c-.016-.016-.045-.017-.063-.031l-.938-.969c-.016-.016-.045-.017-.063-.031l-.938-.969c-.01-.01-.02-.022-.031-.031l-.969-.969c-.01-.01-.02-.022-.031-.031l-.969-.969c-.058-.059-.111-.095-.188-.125l-.813-.844-.969-1c-.009-.01-.021-.022-.031-.031l-.969-.969c-.01-.011-.02-.022-.031-.031l-.969-.969c-.01-.01-.02-.022-.031-.031l-.969-.969c-.01-.01-.02-.022-.031-.031l-.969-.969c-.051-.051-.09-.068-.156-.094l-.844-.875-.969-1c-.009-.009-.021-.023-.031-.031l-.969-.969c-.009-.009-.022-.023-.031-.031l-.969-.969c-.011-.011-.02-.022-.031-.031l-.969-.969c-.01-.011-.02-.022-.031-.031l-.969-.969c-.043-.044-.1-.072-.156-.094l-.844-.875c-.042-.042-.07-.104-.125-.125l-.844-.875c-.01-.01-.021-.023-.031-.031l-.969-.969c-.009-.009-.021-.023-.031-.031l-.969-.969c-.038-.038-.075-.074-.125-.094l-.875-.906c-.037-.037-.077-.075-.125-.094l-.875-.906c-.036-.036-.079-.044-.125-.063l-.938-.938c-.022-.015-.037-.053-.063-.063l-.875-.906c-.033-.033-.051-.077-.094-.094l-.875-.906-.063-.031c-.021-.014-.039-.053-.063-.063l-.875-.906c-.006-.006-.025.006-.031 0l-.969-1-.031-.031c-.021-.015-.039-.022-.063-.031l-.906-.938-.031-.031c-.02-.014-.04-.022-.063-.031l-.906-.938c-.019-.019-.039-.019-.063-.031l-.938-.938-.969-1c-.007-.007-.023.006-.031 0l-.969-1c-.007-.007-.024.006-.031 0l-.969-1c-.007-.008-.023.006-.031 0l-.969-1c-.007-.007-.023.006-.031 0l-.969-1c-.018-.018-.039.01-.063 0l-.938-.969-.969-1c-.007-.007-.024.005-.031 0l-.969-1c-.006-.006-.024.005-.031 0l-.969-1c-.007-.007-.024.005-.031 0l-.969-1c-.008-.008-.022.006-.031 0l-.969-1c-.016-.016-.041-.027-.063-.031l-.938-.938-.969-1c-.005-.005-.025.004-.031 0l-.969-1c-.015-.016-.041-.033-.063-.031l-.938-.969c-.013-.013-.045-.033-.063-.031l-1.938-1.969c-.008-.008-.021-.001-.031 0-.021-.021-.041-.042-.063-.063l-.906-.906c-.005-.005.007-.031 0-.031-.055-.056-.127-.106-.188-.156l-.813-.813-.969-1c-.509-.514-1.24-.814-1.938-.75-.232.02-.464.062-.688.156-.892.367-1.469 1.255-1.469 2.219v6.188c-.368-.38-.752-.75-1.125-1.125-.327-.337-.669-.667-1-1-.329-.339-.667-.665-1-1-.326-.335-.671-.637-1-.969-.329-.339-.667-.665-1-1-.026-.026-.037-.067-.063-.094-.133-.128-.273-.248-.406-.375-.031-.032-.063-.062-.094-.094-.144-.139-.262-.299-.406-.438-.327-.337-.669-.667-1-1-.327-.337-.669-.667-1-1-.327-.337-.669-.667-1-1-.326-.335-.671-.637-1-.969-.329-.339-.667-.665-1-1-.031-.032-.063-.062-.094-.094-.128-.123-.246-.253-.375-.375-.031-.032-.063-.062-.094-.094-.144-.139-.262-.299-.406-.438-.327-.337-.669-.667-1-1-.327-.337-.669-.667-1-1-.327-.337-.669-.667-1-1-.326-.335-.671-.637-1-.969-.329-.339-.667-.665-1-1-.206-.212-.418-.415-.625-.625-.122-.119-.221-.257-.344-.375-.327-.337-.669-.667-1-1-.327-.337-.669-.667-1-1-.327-.337-.669-.667-1-1-.329-.339-.667-.665-1-1-.326-.335-.671-.637-1-.969-.329-.339-.667-.665-1-1-.026-.026-.037-.067-.063-.094-.133-.128-.273-.248-.406-.375-.031-.032-.063-.062-.094-.094-.144-.139-.262-.299-.406-.438-.327-.337-.669-.667-1-1-.327-.337-.669-.667-1-1-.327-.337-.669-.667-1-1-.326-.335-.671-.637-1-.969-.329-.339-.667-.665-1-1-.031-.032-.063-.062-.094-.094-.128-.123-.246-.253-.375-.375-.031-.032-.063-.062-.094-.094-.144-.139-.262-.299-.406-.438-.327-.337-.669-.667-1-1-.327-.337-.669-.667-1-1-.327-.337-.669-.667-1-1-.326-.335-.671-.637-1-.969-.329-.339-.667-.665-1-1-.031-.032-.063-.062-.094-.094-.128-.123-.246-.253-.375-.375-.031-.032-.063-.062-.094-.094-.144-.139-.262-.299-.406-.438-.327-.337-.669-.667-1-1-.327-.337-.669-.667-1-1-.327-.337-.669-.667-1-1-.331-.341-.665-.663-1-1-22.17-22.828-53.11-36.688-85.5-36.688" fill-opacity=".235"/>
 <g fill-rule="evenodd" transform="translate(0 -540.36)">
  <path d="m256 541.36c-140.83 0-255 114.17-255 255 0 140.83 114.17 255 255 255 140.83 0 255-114.17 255-255 0-140.83-114.17-255-255-255m8.827 44.931c120.9 0 218.9 98 218.9 218.9 0 120.9-98 218.9-218.9 218.9-120.9 0-218.93-98-218.93-218.9 0-120.9 98.03-218.9 218.93-218.9" fill-opacity=".067"/>
  <g fill-opacity=".129">
   <path d="m256 544.79c-138.94 0-251.57 112.63-251.57 251.57 0 138.94 112.63 251.54 251.57 251.54 138.94 0 251.57-112.6 251.57-251.54 0-138.94-112.63-251.57-251.57-251.57m5.885 38.556c120.9 0 218.9 98 218.9 218.9 0 120.9-98 218.9-218.9 218.9-120.9 0-218.93-98-218.93-218.9 0-120.9 98.03-218.9 218.93-218.9"/>
   <path d="m256 548.72c-136.77 0-247.64 110.87-247.64 247.64 0 136.77 110.87 247.64 247.64 247.64 136.77 0 247.64-110.87 247.64-247.64 0-136.77-110.87-247.64-247.64-247.64m2.942 31.691c120.9 0 218.9 98 218.9 218.9 0 120.9-98 218.9-218.9 218.9-120.9 0-218.93-98-218.93-218.9 0-120.9 98.03-218.9 218.93-218.9"/>
  </g>
  <path d="m253.04 548.22c-135.42 0-245.19 109.78-245.19 245.19 0 135.42 109.78 245.19 245.19 245.19 135.42 0 245.19-109.78 245.19-245.19 0-135.42-109.78-245.19-245.19-245.19zm0 26.297c120.9 0 218.9 98 218.9 218.9 0 120.9-98 218.9-218.9 218.9-120.9 0-218.93-98-218.93-218.9 0-120.9 98.03-218.9 218.93-218.9z" fill="#ffffff" stroke="#000000" stroke-opacity=".31" stroke-width="4.904"/>
 </g>
 <path d="m240.64 136.95c-65.64 0-119.05 53.4-119.05 119.05 0 65.64 53.4 119.05 119.05 119.05 46.871 0 89.56-27.737 108.71-70.68.331-.738.215-1.628-.223-2.307-.44-.674-1.202-1.042-2.01-1.042h-43.899c-.745 0-1.485.3-1.935.893-14.39 18.938-37.06 30.28-60.64 30.28-42.01 0-76.19-34.18-76.19-76.19 0-42.01 34.18-76.19 76.19-76.19 24.607 0 47.881 12.05 62.2 32.29.448.631 1.161 1.042 1.935 1.042h43.3c.798 0 1.492-.375 1.935-1.042.44-.664.535-1.496.223-2.232-18.45-43.593-62.49-72.916-109.6-72.916m128.57 69.05c-.233.02-.446.054-.67.149-.893.367-1.488 1.268-1.488 2.232v26.19h-85.71c-1.317 0-2.381 1.067-2.381 2.381v40.25c0 1.317 1.064 2.381 2.381 2.381h85.71v26.19c0 .948.54 1.782 1.414 2.158.874.376 1.911.204 2.604-.447l49.777-46.875c.464-.44.735-1.068.744-1.711.014-.64-.22-1.254-.67-1.711l-49.777-50.45c-.509-.514-1.236-.808-1.935-.744" fill="#ffffff"/>
</svg>
