<?xml version="1.0" encoding="UTF-8" standalone="no"?>
<svg
   xmlns:dc="http://purl.org/dc/elements/1.1/"
   xmlns:cc="http://creativecommons.org/ns#"
   xmlns:rdf="http://www.w3.org/1999/02/22-rdf-syntax-ns#"
   xmlns:svg="http://www.w3.org/2000/svg"
   xmlns="http://www.w3.org/2000/svg"
   xmlns:sodipodi="http://sodipodi.sourceforge.net/DTD/sodipodi-0.dtd"
   xmlns:inkscape="http://www.inkscape.org/namespaces/inkscape"
   sodipodi:docname="cancel.svg"
   inkscape:version="1.0 (4035a4fb49, 2020-05-01)"
   id="svg8"
   version="1.1"
   viewBox="0 0 65 65"
   height="65mm"
   width="65mm">
  <defs
     id="defs2" />
  <sodipodi:namedview
     inkscape:window-maximized="1"
     inkscape:window-y="0"
     inkscape:window-x="0"
     inkscape:window-height="1021"
     inkscape:window-width="1920"
     showgrid="false"
     inkscape:document-rotation="0"
     inkscape:current-layer="layer1"
     inkscape:document-units="mm"
     inkscape:cy="115.0859"
     inkscape:cx="110.31619"
     inkscape:zoom="2.061125"
     inkscape:pageshadow="2"
     inkscape:pageopacity="0"
     borderopacity="1.0"
     bordercolor="#666666"
     pagecolor="#000000"
     id="base" />
  <metadata
     id="metadata5">
    <rdf:RDF>
      <cc:Work
         rdf:about="">
        <dc:format>image/svg+xml</dc:format>
        <dc:type
           rdf:resource="http://purl.org/dc/dcmitype/StillImage" />
        <dc:title></dc:title>
      </cc:Work>
    </rdf:RDF>
  </metadata>
  <g
     id="layer1"
     inkscape:groupmode="layer"
     inkscape:label="Layer 1">
    <circle
       r="0.012816021"
       cy="-4.3406467"
       cx="-50.893467"
       style="fill:#ffffff;stroke:#000000;stroke-width:0.264583"
       id="path1089" />
    <path
       d="m 24.985596,22.09814 c -0.388798,-0.0095 -0.779978,-0.07238 -1.166394,-0.02839 -0.637659,0.0726 -1.280465,0.170006 -1.888232,0.376156 -1.845119,0.62585 -3.51515,1.60254 -4.986007,2.883437 -0.798046,0.69498 -1.568524,1.444446 -2.179038,2.308821 -0.613917,0.869194 -0.971818,1.893446 -1.457726,2.840167 -0.118942,1.028973 -0.501567,2.061258 -0.356825,3.086923 0.412342,2.921908 2.26377,4.755486 4.753966,6.215811 3.558254,2.086663 8.24469,3.145325 12.274499,3.490884 2.553026,0.218924 5.124752,0.01974 7.687128,0.02961 2.094214,-0.37434 4.232891,-0.553474 6.282639,-1.123021 3.221188,-0.895048 6.363161,-2.323706 8.639577,-4.868646 0.81878,-0.91536 1.502307,-2.015685 1.824869,-3.200691 0.825674,-3.033286 -0.408171,-4.22594 -1.706999,-6.781749 -0.970725,-0.959586 -1.838183,-2.036348 -2.912177,-2.878756 -2.312326,-1.813722 -5.066442,-3.063515 -7.814849,-4.031761 -2.644053,-0.931483 -5.838529,-1.713325 -8.636437,-2.017551 -1.51385,-0.164607 -3.042266,-0.14129 -4.563401,-0.211934 -1.648121,0.187189 -3.319893,0.226262 -4.944368,0.561567 -2.350976,0.48526 -5.424995,1.665659 -7.40013,3.126399 -0.818251,0.605149 -1.593119,1.324606 -2.124985,2.192279 -0.441594,0.720406 -0.473622,1.622234 -0.710433,2.433352 -0.01593,0.05832 0.808831,0.283631 0.824763,0.225311 v 0 c 0.242425,-0.647352 0.293379,-1.403942 0.727275,-1.94206 0.578751,-0.717768 1.395713,-1.223762 2.195428,-1.682674 2.096948,-1.203322 4.830161,-2.032049 7.166142,-2.49681 1.222892,-0.243304 2.474534,-0.308759 3.7118,-0.463138 1.45302,0.01844 2.912345,-0.08117 4.359055,0.05533 1.382527,0.130437 2.743811,0.440803 4.099266,0.742687 2.879101,0.641226 5.499857,1.386832 8.176895,2.642602 1.235562,0.57959 2.451148,1.221354 3.574788,1.995932 1.019273,0.702631 1.881627,1.609317 2.82244,2.413976 0.563349,0.895816 1.359485,1.682173 1.690048,2.68745 0.718478,2.184979 -0.06112,3.799173 -1.670545,5.312581 -2.327934,2.189047 -5.207966,3.166608 -8.274653,3.828537 -1.985201,0.428493 -4.026112,0.537536 -6.039168,0.806302 -1.998247,0.04119 -3.998478,0.221702 -5.994736,0.123566 -3.751466,-0.184423 -8.393414,-0.799852 -11.93375,-2.287252 -2.295999,-0.96462 -4.270456,-2.173007 -4.743639,-4.769403 -0.160753,-0.882065 0.201702,-1.781804 0.302553,-2.672707 0.438431,-0.848127 0.763824,-1.765006 1.315294,-2.544379 0.570023,-0.80559 1.289729,-1.500301 2.017936,-2.166347 1.263094,-1.155276 2.894604,-2.259224 4.44963,-3.000599 0.85704,-0.408601 1.813431,-0.577718 2.672753,-0.984702 0.01606,-0.0045 -0.04819,-0.231652 -0.06425,-0.227109 z"
       id="path1097"
       style="fill:#ffffff;stroke-width:0.264999;stroke-miterlimit:4;stroke-dasharray:none" />
    <path
       d="m 21.298135,49.036239 c 0.498052,-0.389998 1.028023,-0.74236 1.494158,-1.169998 1.97646,-1.813229 3.842059,-3.994105 5.516827,-6.049618 1.24279,-1.525326 2.438535,-3.088667 3.629181,-4.655034 1.494761,-1.966455 6.069454,-8.209563 7.518466,-10.181614 2.23905,-3.209893 3.947051,-5.515081 5.911953,-8.836526 0.263435,-0.445306 2.042038,-3.410712 2.05731,-4.582745 0.0024,-0.188336 -0.285252,-0.403095 -0.458782,-0.32986 -0.429739,0.18136 -0.681805,0.636722 -1.022705,0.955083 -0.01709,0.02861 0.387512,0.270464 0.404614,0.241853 v 0 c 0.1655,-0.359844 0.40839,-0.693378 0.496504,-1.079531 0.01931,-0.0847 -0.151159,-0.200051 -0.21736,-0.143797 -0.418545,0.355663 -0.73519,0.816997 -1.078963,1.245361 -0.699254,0.871312 -1.373119,1.762765 -2.049026,2.65231 -2.145863,2.824119 -4.237024,5.689577 -6.406787,8.495672 -2.855905,3.947059 -4.583473,6.286944 -7.342953,10.289261 -1.101918,1.598208 -2.170816,3.218929 -3.256224,4.828395 -0.879509,1.321363 -1.739692,2.655795 -2.638525,3.96409 -0.146978,0.213932 -2.386601,3.312761 -2.899681,4.023053 -0.02359,0.02418 0.3184,0.357828 0.341993,0.333645 z"
       id="path1099"
       style="fill:#ffffff;stroke-width:0.264999;stroke-miterlimit:4;stroke-dasharray:none" />
  </g>
</svg>
