<?xml version="1.0" encoding="UTF-8" standalone="no"?>
<svg
   xmlns:dc="http://purl.org/dc/elements/1.1/"
   xmlns:cc="http://creativecommons.org/ns#"
   xmlns:rdf="http://www.w3.org/1999/02/22-rdf-syntax-ns#"
   xmlns:svg="http://www.w3.org/2000/svg"
   xmlns="http://www.w3.org/2000/svg"
   xmlns:sodipodi="http://sodipodi.sourceforge.net/DTD/sodipodi-0.dtd"
   xmlns:inkscape="http://www.inkscape.org/namespaces/inkscape"
   inkscape:version="1.0 (4035a4fb49, 2020-05-01)"
   sodipodi:docname="hibernate.svg"
   id="svg8"
   version="1.1"
   viewBox="0 0 65 65"
   height="65mm"
   width="65mm">
  <defs
     id="defs2" />
  <sodipodi:namedview
     inkscape:window-maximized="1"
     inkscape:window-y="0"
     inkscape:window-x="0"
     inkscape:window-height="1021"
     inkscape:window-width="1920"
     showgrid="false"
     inkscape:document-rotation="0"
     inkscape:current-layer="layer1"
     inkscape:document-units="mm"
     inkscape:cy="117.31353"
     inkscape:cx="81.582423"
     inkscape:zoom="2.061125"
     inkscape:pageshadow="2"
     inkscape:pageopacity="0"
     borderopacity="1.0"
     bordercolor="#666666"
     pagecolor="#000000"
     id="base" />
  <metadata
     id="metadata5">
    <rdf:RDF>
      <cc:Work
         rdf:about="">
        <dc:format>image/svg+xml</dc:format>
        <dc:type
           rdf:resource="http://purl.org/dc/dcmitype/StillImage" />
        <dc:title></dc:title>
      </cc:Work>
    </rdf:RDF>
  </metadata>
  <g
     id="layer1"
     inkscape:groupmode="layer"
     inkscape:label="Layer 1">
    <path
       d="m 12.334124,24.866817 c -0.382738,0.210638 -0.807347,0.358663 -1.148215,0.631913 -1.2638915,1.013178 -2.3925682,2.392562 -2.8848617,3.96553 -0.7220842,2.307191 -0.6586175,5.059804 0.2741321,7.302558 0.6036361,1.451417 1.6707646,2.663171 2.5061476,3.994756 1.414184,1.180483 2.676784,2.570975 4.242552,3.541453 3.847719,2.384854 8.198829,3.625837 12.686695,4.023841 4.955389,0.439471 10.059088,0.07645 14.738186,-1.755986 2.141132,-0.838515 4.015213,-2.242384 6.022819,-3.363577 3.077178,-3.412529 5.576101,-5.003784 6.090922,-9.862031 0.409276,-3.862246 -1.330584,-7.351549 -3.888668,-10.083736 -3.717415,-3.970423 -6.253298,-4.336347 -11.204205,-6.341254 -2.318266,-0.370476 -4.609811,-0.998983 -6.9548,-1.111427 -5.625206,-0.269732 -10.697835,0.375688 -16.038836,2.078538 -2.242574,0.71499 -4.341338,1.820493 -6.512007,2.730739 -0.153742,0.09607 1.204835,2.270316 1.358577,2.174251 v 0 c 2.128467,-0.735851 4.209565,-1.626525 6.385399,-2.207552 3.332256,-0.889832 10.15052,-2.044157 13.727224,-1.986326 2.193613,0.03547 4.355682,0.529931 6.533523,0.794896 4.685924,1.515496 6.987526,1.673348 10.679578,5.02066 2.31589,2.099649 4.178414,4.948453 3.798885,8.262889 -0.462651,4.040307 -3.052514,5.713368 -5.663052,8.41365 -1.844069,0.993185 -3.568623,2.250614 -5.532205,2.979555 -3.722605,1.381945 -8.512294,1.867199 -12.466335,1.648266 C 24.53877,45.46667 20.99491,44.825137 16.9562,42.725039 c -1.501185,-0.780603 -2.768265,-1.94636 -4.152397,-2.91954 -0.853327,-1.119738 -1.918198,-2.106178 -2.55998,-3.359211 -0.9299955,-1.815753 -1.1874554,-4.499124 -0.7473845,-6.493332 0.416423,-1.887046 1.7698555,-3.465408 3.0261255,-4.850087 0.01669,-0.01332 -0.171748,-0.249377 -0.18844,-0.236052 z"
       id="path1231"
       style="fill:#ffffff;stroke-width:0.264999;stroke-miterlimit:4;stroke-dasharray:none" />
    <path
       d="m 30.68371,22.727356 c -0.12019,0.07965 -0.269468,0.127181 -0.360569,0.238938 -0.612937,0.751926 -0.865648,1.807112 -1.089523,2.698539 -0.221657,0.88259 -0.392573,1.777769 -0.549097,2.674205 -0.511604,2.930043 -0.441532,2.978951 -0.645361,5.889238 0.0104,0.758785 0.02077,1.51757 0.03117,2.276356 -0.0033,0.0589 0.829625,0.105989 0.832954,0.04709 v 0 c 0.111027,-0.735846 0.222054,-1.471692 0.333081,-2.207537 0.545841,-3.381804 0.431768,-2.356091 0.780182,-5.839162 0.08875,-0.887252 0.163121,-1.775884 0.244494,-2.663844 0.05626,-0.613911 0.07634,-1.232197 0.168396,-1.841769 0.0993,-0.65753 0.12922,-0.629871 0.428612,-1.014362 0.01823,-0.01233 -0.156115,-0.270019 -0.174336,-0.257692 z"
       id="path1235"
       style="fill:#ffffff;stroke-width:0.264999;stroke-miterlimit:4;stroke-dasharray:none" />
    <path
       d="m 29.638166,23.733635 c 0.442889,0.499857 1.023538,1.123304 1.352907,1.678009 1.167234,1.965781 1.78625,4.226432 2.024904,6.486223 0.08463,0.801274 0.06009,1.610337 0.09014,2.415507 -0.204266,1.536202 -0.12451,2.178931 -0.850656,3.502104 -0.28184,0.513567 -0.742431,1.060069 -1.369547,1.155991 -0.447222,0.06841 -0.816919,-0.322329 -1.121225,-0.543983 -0.01421,-0.01503 -0.226554,0.185978 -0.212341,0.200993 v 0 c 0.21581,0.182483 0.393734,0.4229 0.64743,0.547447 1.91067,0.938006 3.253748,-1.144543 3.733739,-2.689598 0.221668,-0.713534 0.273259,-1.469149 0.409887,-2.203725 -0.01931,-0.86196 0.04145,-1.729453 -0.05795,-2.585879 -0.28294,-2.437632 -1.125733,-4.791298 -2.638507,-6.736969 -0.580567,-0.746705 -1.005475,-1.005005 -1.704845,-1.521651 -0.0209,-0.02149 -0.324827,0.27404 -0.30393,0.295531 z"
       id="path1237"
       style="fill:#ffffff;stroke-width:0.264999;stroke-miterlimit:4;stroke-dasharray:none" />
  </g>
</svg>
