<?xml version="1.0" encoding="UTF-8" standalone="no"?>
<svg
   xmlns:dc="http://purl.org/dc/elements/1.1/"
   xmlns:cc="http://creativecommons.org/ns#"
   xmlns:rdf="http://www.w3.org/1999/02/22-rdf-syntax-ns#"
   xmlns:svg="http://www.w3.org/2000/svg"
   xmlns="http://www.w3.org/2000/svg"
   xmlns:sodipodi="http://sodipodi.sourceforge.net/DTD/sodipodi-0.dtd"
   xmlns:inkscape="http://www.inkscape.org/namespaces/inkscape"
   inkscape:version="1.0 (4035a4fb49, 2020-05-01)"
   sodipodi:docname="logout.svg"
   id="svg8"
   version="1.1"
   viewBox="0 0 65 65"
   height="65mm"
   width="65mm">
  <defs
     id="defs2" />
  <sodipodi:namedview
     inkscape:window-maximized="1"
     inkscape:window-y="0"
     inkscape:window-x="0"
     inkscape:window-height="1021"
     inkscape:window-width="1920"
     showgrid="false"
     inkscape:document-rotation="0"
     inkscape:current-layer="layer1"
     inkscape:document-units="mm"
     inkscape:cy="117.02659"
     inkscape:cx="110.31619"
     inkscape:zoom="2.061125"
     inkscape:pageshadow="2"
     inkscape:pageopacity="0"
     borderopacity="1.0"
     bordercolor="#666666"
     pagecolor="#000000"
     id="base" />
  <metadata
     id="metadata5">
    <rdf:RDF>
      <cc:Work
         rdf:about="">
        <dc:format>image/svg+xml</dc:format>
        <dc:type
           rdf:resource="http://purl.org/dc/dcmitype/StillImage" />
        <dc:title></dc:title>
      </cc:Work>
    </rdf:RDF>
  </metadata>
  <g
     id="layer1"
     inkscape:groupmode="layer"
     inkscape:label="Layer 1">
    <circle
       r="0.012816021"
       cy="0.59963304"
       cx="-45.692863"
       style="fill:#ffffff;stroke:#000000;stroke-width:0.264583"
       id="path1089" />
    <path
       d="m 22.344019,16.594926 c 0.400921,0.104809 0.795892,0.235823 1.202763,0.314425 2.098828,0.40547 4.498211,0.675526 6.588035,0.817096 3.230334,0.218832 6.662213,0.23977 9.890799,0.158413 1.416037,-0.03568 2.829565,-0.138944 4.244348,-0.208416 2.027351,-0.207076 3.787092,-0.3287 5.762648,-0.713629 0.467215,-0.09103 0.933503,-0.201879 1.380258,-0.366158 0.174564,-0.06419 0.426362,-0.129217 0.462872,-0.311592 0.03276,-0.163656 -0.168436,-0.321427 -0.324085,-0.381681 -0.267534,-0.103566 -0.571542,-0.05044 -0.857314,-0.07565 -0.02159,-0.0059 -0.105026,0.299596 -0.08342,0.305495 v 0 c 0.28276,-0.01489 0.575442,0.03106 0.84828,-0.04467 0.102106,-0.02834 0.27976,-0.17588 0.200747,-0.246491 -0.137099,-0.122523 -0.364204,-0.05609 -0.547915,-0.06376 -0.492513,-0.02058 -0.985739,-0.02183 -1.478682,-0.0209 -1.963764,0.0037 -3.927091,0.07245 -5.890982,0.06119 -1.414809,0.01602 -2.82957,0.03667 -4.244422,0.04806 -3.088018,0.02485 -5.739897,0.0074 -8.847701,0.06746 -1.378138,0.02665 -2.755701,0.07786 -4.133354,0.123098 -0.909061,0.02985 -1.818596,0.0516 -2.72674,0.102172 -0.44975,0.02504 -0.897055,0.08307 -1.345583,0.124599 -0.02199,-0.0071 -0.122535,0.303833 -0.100547,0.310942 z"
       id="path1121"
       style="fill:#ffffff;stroke-width:0.264999;stroke-miterlimit:4;stroke-dasharray:none" />
    <path
       d="m 51.189625,15.938641 c -0.07504,0.516994 -0.141526,1.035301 -0.225108,1.550983 -0.169788,1.04754 -0.382143,2.088214 -0.534947,3.138365 -0.203068,1.395562 -0.368364,2.796459 -0.532437,4.197142 -0.383585,3.274671 -0.642094,5.7936 -0.870096,9.065158 -0.08351,1.198317 -0.129394,2.398959 -0.19409,3.598437 -0.0021,2.936584 -0.139092,1.681453 0.211177,3.781883 -0.0028,0.03277 0.460568,0.07286 0.463402,0.04009 v 0 c 0.772361,-1.998253 0.379865,-0.790591 0.991253,-3.678309 0.181089,-1.192088 0.386948,-2.380673 0.543267,-3.576262 0.436911,-3.341701 0.649964,-5.710506 0.8271,-9.099389 0.15693,-3.002251 0.239977,-6.022688 -0.131453,-9.014098 2.65e-4,-0.03875 -0.547785,-0.04275 -0.548068,-0.004 z"
       id="path1123"
       style="fill:#ffffff;stroke-width:0.264999;stroke-miterlimit:4;stroke-dasharray:none" />
    <path
       d="m 19.841035,45.075907 c 0.726679,0.04298 1.452382,0.108201 2.180035,0.128953 2.843185,0.08108 6.335898,0.03321 9.093513,-0.07955 4.64831,-0.190084 7.989309,-0.437512 12.601362,-0.973772 1.704665,-0.198208 3.399991,-0.469831 5.099986,-0.704747 0.897919,-0.18782 3.815779,-0.598747 4.981824,-1.332741 0.09898,-0.06231 -0.02299,-0.232788 -0.03449,-0.349183 0.0016,-0.0019 -0.02336,-0.02252 -0.02484,-0.02074 v 0 c -0.05432,-0.07712 -0.07072,-0.21169 -0.162973,-0.231354 -1.593397,-0.339627 -4.08781,-0.179745 -5.487717,-0.168042 -1.741504,0.102729 -3.484756,0.179189 -5.224511,0.308194 -2.078905,0.154154 -4.156405,0.330846 -6.230379,0.541208 -3.996139,0.405323 -7.463123,0.874321 -11.41024,1.421397 -1.179549,0.163489 -2.35995,0.322173 -3.536038,0.508937 -0.677695,0.107619 -1.349527,0.249367 -2.024291,0.374049 -0.04083,0.01265 0.137923,0.590048 0.178751,0.577406 z"
       id="path1125"
       style="fill:#ffffff;stroke-width:0.264999;stroke-miterlimit:4;stroke-dasharray:none" />
    <path
       d="m 8.9468401,29.766855 c 4.6258629,0.502974 9.2978319,0.457111 13.9391489,0.21694 1.218305,-0.06304 2.434087,-0.167894 3.65113,-0.251841 1.991226,-0.238151 4.027057,-0.339265 5.981133,-0.834154 0.180615,-0.04574 0.369718,-0.08544 0.527751,-0.184134 0.06148,-0.03839 0.12677,-0.139208 0.08652,-0.199484 -0.0379,-0.05676 -0.135507,0.01644 -0.203259,0.02466 -0.0045,0.0031 0.03993,0.06647 0.04441,0.06333 v 0 c 0.05856,-0.04952 0.191755,-0.07357 0.175686,-0.148558 -0.05953,-0.277828 -0.826743,-0.309843 -0.871294,-0.314353 -2.074438,-0.210033 -4.170273,-0.07157 -6.248334,-0.07838 -1.225468,0.04254 -2.451378,0.07384 -3.676405,0.127612 -2.533618,0.111206 -5.23469,0.271695 -7.765983,0.470979 -1.017214,0.08008 -2.034714,0.16121 -3.048687,0.275207 -1.253224,0.140896 -1.689451,0.235004 -2.7173054,0.43095 -0.02837,0.0089 0.097124,0.410093 0.1254945,0.401219 z"
       id="path1127"
       style="fill:#ffffff;stroke-width:0.264999;stroke-miterlimit:4;stroke-dasharray:none" />
    <path
       d="m 29.95567,25.140992 c -0.597675,0.0023 -1.193593,0.06433 -1.78494,0.14689 -0.30479,0.04255 -0.614956,0.08604 -0.908139,0.182759 0.08454,0.123197 0.141554,0.270777 0.253628,0.369592 0.07912,0.06976 0.19424,0.08335 0.295098,0.114214 0.291898,0.08934 0.586747,0.168956 0.882107,0.246076 0.491157,0.128242 0.981874,0.259121 1.477249,0.369958 2.295204,0.513532 2.266399,0.460443 4.708633,0.820018 1.954998,0.196886 3.929787,0.42278 5.898846,0.295415 0.224128,-0.0145 0.627835,0.120164 0.666157,-0.101139 0.148479,-0.857456 -1.462,-0.540083 -1.557374,-0.53627 -0.479248,0.09058 -0.96528,0.150652 -1.437744,0.271728 -0.581879,0.149115 -1.151294,0.344176 -1.720019,0.537494 -0.852323,0.289719 -1.70711,0.575266 -2.542249,0.911322 -1.7619,0.708978 -3.636211,1.608186 -5.30196,2.52885 -0.64051,0.35401 -1.253616,0.755484 -1.880425,1.133224 -1.148016,1.003543 -0.909314,0.459052 -1.152457,1.36121 -0.0065,0.0075 0.09952,0.09905 0.105999,0.09156 v 0 c 0.914333,-0.07498 0.301131,0.01027 1.792981,-0.484537 2.136749,-0.963454 2.288956,-1.013381 4.555812,-2.12549 0.893165,-0.438181 1.780511,-0.888151 2.667744,-1.338217 0.763982,-0.387545 1.507717,-0.816284 2.285844,-1.174585 1.065696,-0.490718 1.794224,-0.670682 2.883903,-0.994339 0.30662,-0.05793 1.491249,-0.0909 1.475851,-0.786087 -0.0044,-0.197646 -0.37986,-0.112203 -0.574207,-0.148428 -1.884087,-0.351188 -3.805685,-0.455411 -5.704007,-0.695968 -9.089453,-0.883778 3.372051,0.320239 -4.8029,-0.446907 -0.476064,-0.04468 -1.921716,-0.208642 -2.540254,-0.238786 -0.195827,-0.0095 -0.422476,-0.101526 -0.58817,0.0033 -0.105494,0.06673 -0.0059,0.249585 -0.0089,0.374377 0.902559,0.02534 1.809007,-0.137172 2.690918,-0.306362 0.02693,-0.0097 -0.110122,-0.390546 -0.137052,-0.380855 z"
       id="path1129"
       style="fill:#ffffff;stroke-width:0.264999;stroke-miterlimit:4;stroke-dasharray:none" />
  </g>
</svg>
