<?xml version="1.0" encoding="UTF-8" standalone="no"?>
<svg
   xmlns:dc="http://purl.org/dc/elements/1.1/"
   xmlns:cc="http://creativecommons.org/ns#"
   xmlns:rdf="http://www.w3.org/1999/02/22-rdf-syntax-ns#"
   xmlns:svg="http://www.w3.org/2000/svg"
   xmlns="http://www.w3.org/2000/svg"
   xmlns:sodipodi="http://sodipodi.sourceforge.net/DTD/sodipodi-0.dtd"
   xmlns:inkscape="http://www.inkscape.org/namespaces/inkscape"
   inkscape:version="1.0 (4035a4fb49, 2020-05-01)"
   sodipodi:docname="reboot.svg"
   id="svg8"
   version="1.1"
   viewBox="0 0 65 65"
   height="65mm"
   width="65mm">
  <defs
     id="defs2" />
  <sodipodi:namedview
     inkscape:window-maximized="1"
     inkscape:window-y="0"
     inkscape:window-x="0"
     inkscape:window-height="1021"
     inkscape:window-width="1920"
     showgrid="false"
     inkscape:document-rotation="0"
     inkscape:current-layer="layer1"
     inkscape:document-units="mm"
     inkscape:cy="117.02659"
     inkscape:cx="110.31619"
     inkscape:zoom="2.061125"
     inkscape:pageshadow="2"
     inkscape:pageopacity="0"
     borderopacity="1.0"
     bordercolor="#666666"
     pagecolor="#000000"
     id="base" />
  <metadata
     id="metadata5">
    <rdf:RDF>
      <cc:Work
         rdf:about="">
        <dc:format>image/svg+xml</dc:format>
        <dc:type
           rdf:resource="http://purl.org/dc/dcmitype/StillImage" />
        <dc:title></dc:title>
      </cc:Work>
    </rdf:RDF>
  </metadata>
  <g
     id="layer1"
     inkscape:groupmode="layer"
     inkscape:label="Layer 1">
    <path
       d="m 49.789866,35.52974 c -0.293228,0.145896 -0.589198,0.286406 -0.879684,0.437689 -0.464365,0.241835 -0.912204,0.515851 -1.384631,0.74154 -1.627137,0.777317 -4.056055,1.772433 -5.680991,2.296441 -3.238214,1.044257 -6.407269,1.735238 -9.71573,2.530999 -4.233243,0.578519 -6.141704,1.082518 -10.392883,0.7328 -1.331875,-0.109567 -2.651879,-0.386802 -3.939165,-0.745678 -1.918554,-0.534863 -4.495859,-1.494956 -5.938604,-3.054307 -0.519428,-0.561409 -0.717411,-1.351021 -1.076117,-2.026531 0.09893,-0.765257 -0.0068,-1.586379 0.29679,-2.295771 0.867474,-2.026995 3.271372,-4.215101 4.8453,-5.511811 2.410792,-1.986178 4.986747,-3.606004 7.772402,-5.012462 1.337084,-0.675085 2.740673,-1.209483 4.11101,-1.814224 2.72084,-0.83025 5.364977,-1.800846 8.227663,-2.054062 2.521686,-0.223053 5.53606,0.02976 8.019679,0.60473 1.212099,0.280608 2.424486,0.607215 3.566227,1.101536 0.96194,0.416473 1.800219,1.074391 2.700326,1.611586 1.21865,1.308235 2.112603,1.858224 2.49573,3.636902 0.104418,0.484769 -0.04974,0.990525 -0.0746,1.485788 -0.0055,0.04401 0.616792,0.122222 0.622322,0.07822 v 0 c 0.14215,-0.618506 0.464542,-1.222028 0.426444,-1.855512 -0.126656,-2.10602 -1.198641,-2.903738 -2.443532,-4.485842 -0.951461,-0.657918 -1.823048,-1.449844 -2.854384,-1.973754 -2.717223,-1.380329 -5.595887,-1.888514 -8.62058,-2.060782 -2.857603,-0.162751 -6.027195,0.216508 -8.805724,0.89044 -1.490371,0.361489 -2.932099,0.900168 -4.398148,1.350252 -1.436572,0.625292 -2.915655,1.160807 -4.309715,1.875874 -2.829261,1.451237 -5.62383,3.292746 -7.948632,5.477218 -1.84152,1.730365 -3.847446,4.043143 -4.6220535,6.549451 -0.2846898,0.921139 -0.1416653,1.923047 -0.2124977,2.88457 0.388982,0.860742 0.5950942,1.830445 1.1669462,2.582222 1.404272,1.846106 4.089996,3.316933 6.206924,3.966906 3.478377,1.067982 7.124267,1.317588 10.732221,1.030684 1.851979,-0.14727 3.67025,-0.57907 5.505376,-0.868606 1.714918,-0.487796 3.455897,-0.891857 5.144756,-1.463389 1.517399,-0.513506 2.999142,-1.132382 4.461068,-1.78734 2.618595,-1.173155 5.084173,-2.678533 7.291629,-4.510095 0.02445,-0.02088 -0.270696,-0.366551 -0.29514,-0.345681 z"
       id="path1153"
       style="fill:#ffffff;stroke-width:0.264999;stroke-miterlimit:4;stroke-dasharray:none" />
    <path
       d="m 41.417949,26.819297 c -0.191609,-0.407379 -0.249473,0.129355 -0.18632,0.192487 0.193109,0.193045 0.478571,0.263633 0.724644,0.381979 0.509429,0.245004 1.019635,0.489529 1.541116,0.707713 2.517314,1.053213 2.618232,1.013981 5.351835,1.881886 1.473891,0.364812 3.724413,1.0107 5.309304,1.096864 1.006409,0.05471 2.18831,0.144185 2.734712,-0.918207 0.498295,-0.968854 0.187441,-2.177034 0.07907,-3.155794 -0.726622,-2.568412 -0.213616,-1.32173 -1.569257,-3.727459 -0.02087,-0.04877 -0.710525,0.246364 -0.689657,0.29513 v 0 c 1.107924,2.312196 0.663056,1.125341 1.344041,3.557016 0.05274,0.238649 0.57055,2.08751 0.362495,2.58544 -0.258919,0.619659 -1.502905,0.332703 -1.784626,0.280831 -0.969044,-0.178424 -4.353065,-1.090676 -5.108074,-1.289166 -4.284914,-1.128792 -1.566649,-0.424397 -5.541746,-1.429414 -0.56978,-0.144058 -1.136322,-0.301316 -1.708605,-0.435087 -0.304506,-0.07118 -0.609121,-0.20489 -0.920808,-0.179537 -0.790234,0.06428 -0.315333,0.314834 -0.19004,0.402193 0.01746,0.01781 0.269375,-0.229062 0.251918,-0.246875 z"
       id="path1159"
       style="fill:#ffffff;stroke-width:0.264999;stroke-miterlimit:4;stroke-dasharray:none" />
  </g>
</svg>
