<?xml version="1.0" encoding="UTF-8" standalone="no"?>
<svg
   xmlns:dc="http://purl.org/dc/elements/1.1/"
   xmlns:cc="http://creativecommons.org/ns#"
   xmlns:rdf="http://www.w3.org/1999/02/22-rdf-syntax-ns#"
   xmlns:svg="http://www.w3.org/2000/svg"
   xmlns="http://www.w3.org/2000/svg"
   xmlns:sodipodi="http://sodipodi.sourceforge.net/DTD/sodipodi-0.dtd"
   xmlns:inkscape="http://www.inkscape.org/namespaces/inkscape"
   inkscape:version="1.0 (4035a4fb49, 2020-05-01)"
   sodipodi:docname="suspend.svg"
   id="svg8"
   version="1.1"
   viewBox="0 0 65 65"
   height="65mm"
   width="65mm">
  <defs
     id="defs2" />
  <sodipodi:namedview
     inkscape:window-maximized="1"
     inkscape:window-y="0"
     inkscape:window-x="0"
     inkscape:window-height="1021"
     inkscape:window-width="1920"
     showgrid="false"
     inkscape:document-rotation="0"
     inkscape:current-layer="layer1"
     inkscape:document-units="mm"
     inkscape:cy="115.37284"
     inkscape:cx="81.582423"
     inkscape:zoom="2.061125"
     inkscape:pageshadow="2"
     inkscape:pageopacity="0"
     borderopacity="1.0"
     bordercolor="#666666"
     pagecolor="#000000"
     id="base" />
  <metadata
     id="metadata5">
    <rdf:RDF>
      <cc:Work
         rdf:about="">
        <dc:format>image/svg+xml</dc:format>
        <dc:type
           rdf:resource="http://purl.org/dc/dcmitype/StillImage" />
        <dc:title></dc:title>
      </cc:Work>
    </rdf:RDF>
  </metadata>
  <g
     id="layer1"
     inkscape:groupmode="layer"
     inkscape:label="Layer 1">
    <path
       d="m 30.429366,25.065414 c 0.199642,-1.016623 0.326819,-2.047473 0.45823,-3.075007 -0.142008,0.06701 -0.39169,0.04782 -0.426027,0.201043 -0.141923,0.633343 -0.06351,1.297371 -0.05517,1.946367 0.0158,1.229635 0.05676,2.459306 0.127487,3.687007 0.169643,2.944982 0.46895,6.087425 0.837584,9.014544 0.155625,1.235737 0.358902,2.465007 0.53835,3.69751 0.561761,2.781742 0.217715,1.676768 0.819827,3.373705 -0.0013,0.02508 0.353378,0.0449 0.35478,0.01982 v 0 c 0.792324,-1.772883 0.435999,-0.637484 0.535392,-3.529624 -0.05573,-1.247444 -0.07563,-2.497007 -0.167198,-3.742335 -0.21713,-2.95294 -0.590518,-6.108745 -1.113255,-9.023188 -0.05522,-0.307872 -0.894961,-4.686145 -1.430425,-5.608872 -0.09621,-0.16579 -0.376449,-0.0725 -0.564674,-0.108751 -0.196585,1.028777 -0.296683,2.09198 -0.187844,3.136462 -7.93e-4,0.0193 0.272146,0.03062 0.272947,0.01132 z"
       id="path1201"
       style="fill:#ffffff;stroke-width:0.264999;stroke-miterlimit:4;stroke-dasharray:none" />
    <path
       d="m 24.111623,38.901018 c -0.394651,-0.232439 -1.932087,-0.899451 -1.76715,0.276431 0.151799,1.082228 1.645267,3.190113 2.08404,3.890658 0.799114,1.073732 2.737861,3.805656 3.779224,4.707065 1.548672,1.340532 3.237897,2.193025 5.369711,1.881719 3.389791,-0.495009 4.445158,-1.824151 7.065528,-3.804214 0.913471,-1.017965 1.905992,-1.97019 2.740411,-3.0539 1.398617,-1.816468 2.452664,-3.65864 3.115988,-5.845892 0.196471,-0.647853 0.218752,-1.336191 0.328128,-2.004287 0.01103,-0.04951 -0.689139,-0.205629 -0.70018,-0.15612 v 0 c -0.223221,0.57632 -0.383964,1.180922 -0.669669,1.728962 -0.432109,0.828881 -0.9486,1.612564 -1.475015,2.384999 -1.995476,2.928067 -2.230252,3.001431 -4.657261,5.704594 -1.184019,0.992428 -3.596503,3.321396 -5.339779,3.784862 -1.845437,0.490627 -3.26586,-0.226113 -4.604067,-1.414598 -0.729761,-0.648112 -1.261372,-1.489755 -1.88985,-2.236494 -0.651534,-0.774131 -1.300119,-1.550738 -1.950179,-2.326108 -0.559104,-0.665347 -1.114773,-1.333595 -1.677313,-1.99604 -0.34363,-0.404654 -0.682911,-0.813398 -1.04114,-1.205188 -0.07976,-0.08724 -0.350312,-0.142147 -0.270479,-0.229314 0.101548,-0.110879 0.300589,0.01511 0.449815,0.0335 1.03566,0.127569 0.132151,0.07557 1.009227,0.108622 0.01621,0.0071 0.116221,-0.222184 0.10001,-0.229257 z"
       id="path1203"
       style="fill:#ffffff;stroke-width:0.264999;stroke-miterlimit:4;stroke-dasharray:none" />
    <path
       d="m 20.9968,19.033034 c 2.80332,0.147986 5.61501,0.08634 8.415288,-0.09469 2.110415,-0.136433 4.405239,-0.355058 6.501667,-0.690298 0.77733,-0.124303 1.544379,-0.306059 2.316568,-0.459088 0.500512,-0.156113 1.013722,-0.276194 1.501537,-0.468337 0.120962,-0.04764 0.920178,-0.32473 0.859668,-0.732161 -0.0118,-0.07951 -0.131326,-0.09272 -0.196988,-0.139084 -0.004,-0.0026 -0.04008,0.05366 -0.03611,0.05621 v 0 c 0.04572,-0.0018 0.182803,-0.0021 0.137167,-0.0054 -0.896686,-0.06582 -1.78767,0.284532 -2.683322,0.206049 -1.81516,0.152431 -3.630218,0.306083 -5.445381,0.458482 -3.247755,0.272679 -6.501638,0.508753 -9.726805,0.994379 -0.612418,0.09221 -1.218544,0.222232 -1.827816,0.333348 -0.03823,0.01305 0.146297,0.553659 0.184524,0.540611 z"
       id="path1209"
       style="fill:#ffffff;stroke-width:0.264999;stroke-miterlimit:4;stroke-dasharray:none" />
  </g>
</svg>
