<?xml version="1.0" encoding="UTF-8" standalone="no"?>
<!-- Generator: Adobe Illustrator 18.0.0, SVG Export Plug-In . SVG Version: 6.00 Build 0)  -->

<svg
   xmlns:dc="http://purl.org/dc/elements/1.1/"
   xmlns:cc="http://creativecommons.org/ns#"
   xmlns:rdf="http://www.w3.org/1999/02/22-rdf-syntax-ns#"
   xmlns:svg="http://www.w3.org/2000/svg"
   xmlns="http://www.w3.org/2000/svg"
   xmlns:sodipodi="http://sodipodi.sourceforge.net/DTD/sodipodi-0.dtd"
   xmlns:inkscape="http://www.inkscape.org/namespaces/inkscape"
   version="1.1"
   id="Capa_1"
   x="0px"
   y="0px"
   viewBox="0 0 22 22"
   xml:space="preserve"
   width="22"
   height="22"
   inkscape:version="0.92.4 5da689c313, 2019-01-14"
   sodipodi:docname="icomute_22_0.svg"
   inkscape:export-filename="/home/victor/Settings/git/ticons/src/icomute_22_1.png"
   inkscape:export-xdpi="350.75598"
   inkscape:export-ydpi="350.75598"><sodipodi:namedview
     pagecolor="#ffffff"
     bordercolor="#666666"
     borderopacity="1"
     objecttolerance="10"
     gridtolerance="10"
     guidetolerance="10"
     inkscape:pageopacity="0"
     inkscape:pageshadow="2"
     inkscape:window-width="1920"
     inkscape:window-height="1021"
     id="namedview21"
     showgrid="false"
     inkscape:zoom="22.627417"
     inkscape:cx="7.6752245"
     inkscape:cy="10.373136"
     inkscape:window-x="0"
     inkscape:window-y="0"
     inkscape:window-maximized="1"
     inkscape:current-layer="Capa_1" /><metadata
     id="metadata39"><rdf:RDF><cc:Work
         rdf:about=""><dc:format>image/svg+xml</dc:format><dc:type
           rdf:resource="http://purl.org/dc/dcmitype/StillImage" /><dc:title /><dc:title /></cc:Work></rdf:RDF></metadata><defs
     id="defs37" /><path
     style="opacity:1;fill:#6790eb;fill-opacity:1;stroke:#2da6e0;stroke-width:0;stroke-miterlimit:4;stroke-dasharray:none;stroke-opacity:1"
     d="m 18.586725,3.3138983 c -0.09716,0 -0.196238,0.015077 -0.293331,0.044881 L 3.1219562,8.0135977 C 2.6524353,8.1575944 2.3000751,8.6320199 2.2291416,9.2157719 2.1583503,9.7995686 2.3830332,10.378854 2.7981706,10.682424 l 3.2074006,2.345041 v 5.148512 c 0,0.194798 0.092086,0.372828 0.2356261,0.458428 0.1435755,0.08558 0.3146971,0.06357 0.4407972,-0.0561 l 3.0086411,-2.854763 2.4716704,1.80807 c 0.19287,0.141088 0.405668,0.208377 0.615514,0.208377 0.402466,0 0.794935,-0.247744 1.021046,-0.695659 L 19.606168,5.5387219 C 19.861572,5.0328455 19.839855,4.3891161 19.55167,3.9101767 19.32264,3.5295983 18.962462,3.3138547 18.586725,3.3138983 Z m 0.49209,0.7742002 c 0.03248,-0.00978 -1.262462,2.8891688 -2.857969,6.3603025 -1.581987,3.44172 -3.346375,6.288172 -3.385323,6.288172 -0.03895,0 -0.388139,-0.229171 -0.775802,-0.508119 -2.1517264,-1.548293 -3.5340275,-2.59008 -3.5119522,-2.647989 0.01376,-0.03609 0.8774695,-0.972085 1.9202732,-2.07896 1.387172,-1.4724 2.029248,-2.2043776 2.322601,-2.5710492 -0.03623,-0.07373 -0.110547,-0.1047621 -0.176319,-0.073734 L 12.296949,9.0057921 10.153873,10.201555 6.6460297,11.89101 C 6.4971569,11.962972 4.39823,10.646622 3.0530315,9.5798308 2.8254666,9.3408692 2.7530641,9.3269513 2.7562,9.2041458 Z"
     id="path3"
     inkscape:connector-curvature="0"
     sodipodi:nodetypes="ccccccscccsscccccssssscccccccc"
     inkscape:export-xdpi="350"
     inkscape:export-ydpi="350" /><g
     id="g5"
     transform="translate(0,-471.595)"
     style="fill:#6790eb;fill-opacity:1" /><g
     id="g7"
     transform="translate(0,-471.595)"
     style="fill:#6790eb;fill-opacity:1" /><g
     id="g9"
     transform="translate(0,-471.595)"
     style="fill:#6790eb;fill-opacity:1" /><g
     id="g11"
     transform="translate(0,-471.595)"
     style="fill:#6790eb;fill-opacity:1" /><g
     id="g13"
     transform="translate(0,-471.595)"
     style="fill:#6790eb;fill-opacity:1" /><g
     id="g15"
     transform="translate(0,-471.595)"
     style="fill:#6790eb;fill-opacity:1" /><g
     id="g17"
     transform="translate(0,-471.595)"
     style="fill:#6790eb;fill-opacity:1" /><g
     id="g19"
     transform="translate(0,-471.595)"
     style="fill:#6790eb;fill-opacity:1" /><g
     id="g21"
     transform="translate(0,-471.595)"
     style="fill:#6790eb;fill-opacity:1" /><g
     id="g23"
     transform="translate(0,-471.595)"
     style="fill:#6790eb;fill-opacity:1" /><g
     id="g25"
     transform="translate(0,-471.595)"
     style="fill:#6790eb;fill-opacity:1" /><g
     id="g27"
     transform="translate(0,-471.595)"
     style="fill:#6790eb;fill-opacity:1" /><g
     id="g29"
     transform="translate(0,-471.595)"
     style="fill:#6790eb;fill-opacity:1" /><g
     id="g31"
     transform="translate(0,-471.595)"
     style="fill:#6790eb;fill-opacity:1" /><g
     id="g33"
     transform="translate(0,-471.595)"
     style="fill:#6790eb;fill-opacity:1" /></svg>