<?xml version="1.0" encoding="iso-8859-1"?>
<!-- Generator: Adobe Illustrator 16.0.0, SVG Export Plug-In . SVG Version: 6.00 Build 0)  -->
<!DOCTYPE svg PUBLIC "-//W3C//DTD SVG 1.1//EN" "http://www.w3.org/Graphics/SVG/1.1/DTD/svg11.dtd">
<svg version="1.1" id="Capa_1" xmlns="http://www.w3.org/2000/svg" xmlns:xlink="http://www.w3.org/1999/xlink" x="0px" y="0px"
	 width="611.997px" height="611.997px" viewBox="0 0 611.997 611.997" style="enable-background:new 0 0 611.997 611.997;"
	 xml:space="preserve">
<g>
	<g>
		<g>
			<path d="M184.439,480.989c3.706-3.727,9.762-3.746,13.487-0.039c3.726,3.705,3.746,9.763,0.04,13.486l-47.814,47.854
				c-3.706,3.728-9.762,3.746-13.488,0.041c-1.873-1.873-2.809-4.323-2.809-6.772h-0.04V382.513c0-3.607,1.992-6.754,4.94-8.39
				L482.36,145.035c4.362-2.929,10.3-1.772,13.229,2.61c2.929,4.363,1.753,10.3-2.61,13.229L152.961,387.593v124.914
				L184.439,480.989z"/>
			<path d="M174.876,427.458c-3.706-3.727-3.686-9.782,0.04-13.487s9.782-3.687,13.487,0.039l106.685,106.705L592.87,92.619v-3.467
				L27.688,253.274l122.444,122.465c3.726,3.726,3.726,9.801,0,13.527c-3.726,3.725-9.802,3.725-13.527,0L2.766,255.386l0.02-0.02
				c-1.096-1.116-1.952-2.471-2.411-4.084c-1.454-5.041,1.455-10.34,6.495-11.814L598.967,67.538
				c1.076-0.398,2.231-0.638,3.467-0.638c5.279,0,9.563,4.284,9.563,9.563v19.125h-0.021c0,1.893-0.559,3.805-1.714,5.459
				L304.253,540.994l-0.02-0.02c-0.319,0.459-0.697,0.916-1.116,1.313c-3.726,3.707-9.782,3.687-13.487-0.039L174.876,427.458z"/>
		</g>
	</g>
</g>
<g>
</g>
<g>
</g>
<g>
</g>
<g>
</g>
<g>
</g>
<g>
</g>
<g>
</g>
<g>
</g>
<g>
</g>
<g>
</g>
<g>
</g>
<g>
</g>
<g>
</g>
<g>
</g>
<g>
</g>
</svg>
