<svg width="22" height="22" version="1.1" viewBox="0 0 22 22" xml:space="preserve" xmlns="http://www.w3.org/2000/svg"><path d="m18.587 3.3139c-0.09716 0-0.19624 0.015077-0.29333 0.044881l-15.171 4.6548c-0.46952 0.144-0.82188 0.61842-0.89281 1.2022-0.070791 0.5838 0.15389 1.1631 0.56903 1.4667l3.2074 2.345v5.1485c0 0.1948 0.092086 0.37283 0.23563 0.45843 0.14358 0.08558 0.3147 0.06357 0.4408-0.0561l3.0086-2.8548 2.4717 1.8081c0.19287 0.14109 0.40567 0.20838 0.61551 0.20838 0.40247 0 0.79494-0.24774 1.021-0.69566l5.8073-11.506c0.2554-0.50588 0.23369-1.1496-0.054498-1.6285-0.22903-0.38058-0.58921-0.59632-0.96494-0.59628zm0.49209 0.7742c0.03248-0.00978-1.2625 2.8892-2.858 6.3603-1.582 3.4417-3.3464 6.2882-3.3853 6.2882-0.03895 0-0.38814-0.22917-0.7758-0.50812-2.1517-1.5483-3.534-2.5901-3.512-2.648 0.01376-0.03609 0.87747-0.97208 1.9203-2.079 1.3872-1.4724 2.0292-2.2044 2.3226-2.571-0.03623-0.07373-0.11055-0.10476-0.17632-0.073734l-0.31738 0.14907-2.1431 1.1958-3.5078 1.6895c-0.14887 0.071962-2.2478-1.2444-3.593-2.3112-0.22756-0.23896-0.29997-0.25288-0.29683-0.37568z" fill="#ffffff" stroke-width="0"/></svg>
